<svg width="16" height="16" viewBox="0 0 16 16" fill="none" xmlns="http://www.w3.org/2000/svg">
<path d="M8.02667 1.3335C4.38667 1.3335 1.42 4.30016 1.42 7.94016C1.42 9.10683 1.72667 10.2402 2.3 11.2402L1.36667 14.6668L4.86667 13.7468C5.83334 14.2735 6.92 14.5535 8.02667 14.5535C11.6667 14.5535 14.6333 11.5868 14.6333 7.94683C14.6333 6.18016 13.9467 4.52016 12.7 3.2735C11.4533 2.02016 9.79333 1.3335 8.02667 1.3335ZM8.03333 2.44683C9.5 2.44683 10.8733 3.02016 11.9133 4.06016C12.9467 5.10016 13.52 6.48016 13.52 7.94683C13.52 10.9735 11.0533 13.4335 8.02667 13.4335C7.04 13.4335 6.07334 13.1735 5.23334 12.6668L5.03334 12.5535L2.95334 13.1002L3.50667 11.0735L3.37334 10.8602C2.82667 10.0002 2.53334 8.98016 2.53334 7.94016C2.54 4.9135 5 2.44683 8.03333 2.44683ZM5.68667 4.88683C5.58 4.88683 5.4 4.92683 5.24667 5.0935C5.1 5.26016 4.66667 5.66683 4.66667 6.4735C4.66667 7.28683 5.26 8.06683 5.33334 8.18016C5.42667 8.2935 6.50667 9.96016 8.16667 10.6668C8.56 10.8468 8.86667 10.9468 9.10667 11.0202C9.5 11.1468 9.86 11.1268 10.1467 11.0868C10.4667 11.0402 11.12 10.6868 11.26 10.3002C11.4 9.9135 11.4 9.58683 11.36 9.5135C11.3133 9.44683 11.2067 9.40683 11.04 9.3335C10.8733 9.24016 10.06 8.84016 9.91333 8.78683C9.76 8.7335 9.66667 8.70683 9.54 8.86683C9.43334 9.0335 9.11333 9.40683 9.02 9.5135C8.92 9.62683 8.82667 9.64016 8.66667 9.56016C8.49333 9.4735 7.96 9.30016 7.33333 8.74016C6.84 8.30016 6.51333 7.76016 6.41333 7.5935C6.33333 7.4335 6.40667 7.3335 6.48667 7.26016C6.56 7.18683 6.66667 7.06683 6.73334 6.96683C6.82 6.8735 6.84667 6.80016 6.9 6.6935C6.95334 6.58016 6.92667 6.48683 6.88667 6.40683C6.84667 6.3335 6.51334 5.50683 6.37334 5.18016C6.24 4.86016 6.10667 4.90016 6 4.8935C5.90667 4.8935 5.8 4.88683 5.68667 4.88683Z" fill="white"/>
</svg>
