<svg width="90" height="90" viewBox="0 0 90 90" fill="none" xmlns="http://www.w3.org/2000/svg">
<g clip-path="url(#clip0_2903_4896)">
<rect width="90" height="90" rx="45" fill="#FFE7E7"/>
<path d="M67.585 86.1582C71.0555 74.5218 72.7802 68.3835 69.6372 60.7385C66.4942 53.0935 72.43 13.966 42.9475 15.2573C36.4817 15.5446 27.3988 15.195 27.3036 35.8787C27.2084 56.5623 16.3959 51.3696 21.1527 62.9134C25.9095 74.4572 6.25102 83.1577 12.973 96.0437C19.695 108.93 2.1356 113.968 6.966 120.634C9.40868 120.01 11.8867 119.535 14.3867 119.21C14.0007 118.104 13.9582 116.274 15.6327 113.509C18.7316 108.393 23.4422 102.372 20.3731 95.3519C20.3731 95.3519 25.7509 98.3113 20.8366 110.41C19.2296 114.386 18.8233 116.97 19.0052 118.65C21.1674 118.493 23.5284 118.409 26.0025 118.459C25.4618 116.985 25.3743 115.383 25.7512 113.859C26.8979 109.325 29.2308 107.814 29.6574 104.086C29.6574 104.086 30.8053 109.797 29.1485 112.878C28.6885 113.751 28.4226 114.713 28.3688 115.698C28.3151 116.683 28.4747 117.668 28.8369 118.586C35.2929 118.903 41.6057 120.601 47.3495 123.566C64.6528 132.943 72.6978 118.031 72.6978 118.031C72.6978 118.031 64.1529 97.7891 67.585 86.1582Z" fill="#263238"/>
<path d="M63.2025 63.2233C70.1733 65.0365 72.629 70.7601 73.849 83.0226C70.6319 86.5194 60.01 87.6376 60.01 87.6376C60.01 87.6376 56.5449 69.1782 63.2025 63.2233Z" fill="#CEDDFF"/>
<path opacity="0.7" d="M63.2025 63.2233C70.1733 65.0365 72.629 70.7601 73.849 83.0226C70.6319 86.5194 60.01 87.6376 60.01 87.6376C60.01 87.6376 56.5449 69.1782 63.2025 63.2233Z" fill="white"/>
<path d="M71.7567 76.9284C71.995 81.6754 71.9076 86.4331 71.4951 91.1682C71.0754 98.0922 70.4513 104.904 69.1935 116.243L34.2962 115.467C35.2154 105.651 34.3681 94.4296 28.5491 72.1618C28.1934 70.986 28.1085 69.7451 28.3005 68.5319C28.4926 67.3187 28.9567 66.1646 29.6582 65.1563C30.3596 64.1479 31.2802 63.3114 32.3508 62.7094C33.4215 62.1074 34.6146 61.7554 35.8406 61.68C37.2209 61.5685 38.6957 61.4865 40.2001 61.4474C45.4828 61.202 50.7761 61.3281 56.0411 61.8248C57.7521 62.0228 59.5389 62.2845 61.2367 62.555C67.3286 63.5724 71.7397 70.7612 71.7567 76.9284Z" fill="#1A9FBD"/>
<path d="M41.6045 43.6602C42.8696 48.7934 44.3508 58.171 40.9645 61.4999C40.9645 61.4999 45.8059 60.8806 55.9184 67.4562C58.9858 63.2709 56.8098 61.853 56.8098 61.853C51.0516 60.372 50.9805 56.154 51.7596 52.2025L41.6045 43.6602Z" fill="#D67B72"/>
<path d="M53.825 66.1926C50.4462 66.5906 49.2865 71.6085 49.2865 71.6085C49.2865 71.6085 41.3004 65.693 38.8134 61.586C39.8483 61.0351 40.8535 60.4302 41.8249 59.7738C41.8249 59.7738 51.9122 64.1487 53.825 66.1926Z" fill="white"/>
<path d="M57.0695 65.6667C57.0695 65.6667 59.9602 66.5154 60.9328 70.6473C61.8663 63.23 58.4296 61.883 58.4296 61.883C57.5169 61.3317 56.4334 61.1352 55.3852 61.3308C56.1321 61.739 56.7107 62.3979 57.0189 63.1913C57.3271 63.9846 57.345 64.8614 57.0695 65.6667Z" fill="white"/>
<path opacity="0.2" d="M45.7891 47.1523L51.8091 52.2121C51.6079 53.1352 51.4918 54.0748 51.4623 55.0192C49.2878 54.6248 46.1712 52.2003 45.8243 49.9164C45.6488 49.0044 45.6369 48.0685 45.7891 47.1523Z" fill="black"/>
<path d="M37.944 33.478C39.2895 41.608 39.6929 45.0253 44.2158 49.0524C51.0281 55.042 60.6334 52.1672 61.7257 43.9427C62.7195 36.5363 60.362 24.4918 52.0477 21.6238C50.2921 20.9563 48.3901 20.7698 46.5382 21.0836C44.6864 21.3973 42.9519 22.1999 41.5141 23.4084C40.0763 24.6169 38.9873 26.1874 38.3596 27.9577C37.732 29.7279 37.5885 31.6337 37.944 33.478Z" fill="#D67B72"/>
<path d="M54.7192 35.752C55.5187 37.3015 56.516 38.7407 57.6861 40.0334C57.3658 40.3017 56.9889 40.4939 56.5836 40.5955C56.1783 40.6971 55.7552 40.7053 55.3462 40.6198L54.7192 35.752Z" fill="#C06563"/>
<path d="M52.2933 44.0149C52.6727 44.0427 53.0538 44.0366 53.4321 43.9968C53.4579 43.9946 53.483 43.9869 53.5056 43.9743C53.5283 43.9617 53.548 43.9445 53.5635 43.9238C53.5791 43.903 53.5901 43.8793 53.5958 43.854C53.6015 43.8287 53.6018 43.8025 53.5967 43.7771C53.5866 43.7246 53.5578 43.6774 53.5155 43.6445C53.4733 43.6116 53.4206 43.5952 53.3671 43.5982C52.5087 43.6912 51.6404 43.5865 50.8287 43.2922C50.0169 42.9979 49.2833 42.5218 48.6839 41.9004C48.6523 41.8587 48.6062 41.8304 48.5548 41.821C48.5033 41.8117 48.4502 41.822 48.406 41.85C48.3841 41.8646 48.3654 41.8835 48.3509 41.9055C48.3365 41.9276 48.3266 41.9523 48.3219 41.9782C48.3172 42.0041 48.3178 42.0307 48.3236 42.0564C48.3294 42.0821 48.3403 42.1064 48.3556 42.1278C49.3884 43.2239 50.792 43.8965 52.2933 44.0149Z" fill="#263238"/>
<path d="M48.7736 35.6399C48.8871 36.3218 49.3419 36.841 49.8086 36.8134C50.2753 36.7857 50.5101 36.1794 50.3966 35.4975C50.2832 34.8156 49.8404 34.2986 49.3617 34.3241C48.8829 34.3496 48.6602 34.958 48.7736 35.6399Z" fill="#263238"/>
<path d="M57.2671 34.5595C57.3805 35.2414 57.8354 35.7606 58.3043 35.7209C58.7732 35.6811 59.0057 35.0869 58.8923 34.405C58.7789 33.7231 58.3361 33.2061 57.8552 33.2437C57.3742 33.2812 57.1054 33.8688 57.2671 34.5595Z" fill="#263238"/>
<path d="M57.6709 33.2975L59.2058 32.6775C59.2058 32.6775 58.587 34.0252 57.6709 33.2975Z" fill="#263238"/>
<path d="M47.0973 31.8053C47.1479 31.7959 47.1955 31.7744 47.2361 31.7427C47.2766 31.7109 47.3088 31.6698 47.33 31.6229C47.5421 31.1806 47.8592 30.7969 48.2535 30.5053C48.6479 30.2136 49.1076 30.0228 49.5926 29.9494C49.6436 29.946 49.6934 29.932 49.7387 29.9083C49.7841 29.8845 49.8239 29.8516 49.8559 29.8116C49.8878 29.7716 49.911 29.7254 49.924 29.6759C49.9371 29.6265 49.9397 29.5748 49.9317 29.5243C49.9168 29.4166 49.8605 29.319 49.7748 29.2522C49.689 29.1853 49.5806 29.1546 49.4725 29.1665C48.858 29.243 48.2728 29.4732 47.7708 29.8358C47.2689 30.1984 46.8664 30.6817 46.6007 31.2411C46.5564 31.3372 46.5515 31.4469 46.587 31.5467C46.6226 31.6464 46.6958 31.7282 46.7909 31.7747C46.8857 31.8224 46.9949 31.8333 47.0973 31.8053Z" fill="#263238"/>
<path d="M59.8955 30.6155C59.9459 30.624 59.9975 30.622 60.047 30.6095C60.0965 30.597 60.1429 30.5743 60.1832 30.5429C60.269 30.4816 60.3276 30.3893 60.3464 30.2855C60.3652 30.1818 60.3428 30.0748 60.284 29.9872C59.8912 29.4693 59.3849 29.0485 58.8039 28.7571C58.2229 28.4657 57.5828 28.3115 56.9328 28.3063C56.8818 28.3098 56.832 28.3238 56.7867 28.3475C56.7413 28.3713 56.7015 28.4042 56.6696 28.4442C56.6376 28.4842 56.6144 28.5304 56.6013 28.5798C56.5883 28.6293 56.5857 28.6809 56.5937 28.7315C56.6062 28.8389 56.6587 28.9376 56.7407 29.008C56.8228 29.0784 56.9284 29.1152 57.0364 29.1112C57.552 29.125 58.0579 29.2549 58.5162 29.4914C58.9746 29.728 59.3736 30.065 59.6836 30.4773C59.737 30.5455 59.8116 30.5941 59.8955 30.6155Z" fill="#263238"/>
<path d="M49.1765 34.3936L50.7136 33.7615C50.7136 33.7615 50.0927 35.1213 49.1765 34.3936Z" fill="#263238"/>
<path d="M49.0578 22.1802C50.3016 23.3185 51.207 24.7781 51.6744 26.3981C52.53 26.1987 53.413 26.1437 54.2868 26.2355C53.6399 24.4249 52.3107 22.9389 50.5831 22.0949C51.7735 22.3749 52.8828 22.9272 53.8237 23.7084C54.7646 24.4897 55.5114 25.4785 56.0055 26.5971C57.4894 27.0943 58.8689 27.8606 60.0752 28.8575C60.0752 28.8575 54.6639 14.9365 43.0867 18.6391C31.5095 22.3417 36.99 38.9081 36.99 38.9081L39.092 39.2893C39.092 39.2893 43.9637 39.9482 40.4338 29.1385C40.4338 29.1385 43.8917 31.1258 43.5822 34.0019C43.5822 34.0019 45.9047 28.9703 50.0955 26.9852C50.1736 25.3205 49.8159 23.6643 49.0578 22.1802Z" fill="#263238"/>
<path d="M37.0136 37.6121C37.0136 37.6121 26.3832 24.6037 43.0915 17.1026C43.0915 17.1026 31.7895 14.8157 33.8638 4.68551L45.8372 15.2422L56.7963 4.48977C56.7963 4.48977 60.4192 12.0347 48.1748 16.9389C48.1748 16.9389 54.1064 15.6064 57.306 22.1137C57.306 22.1137 51.4252 16.7672 44.4872 19.452C31.7377 24.3894 37.0136 37.6121 37.0136 37.6121Z" fill="#CEDDFF"/>
<path d="M35.4439 40.6069C36.4347 42.0869 37.9709 43.1147 39.717 43.4657C41.9519 43.871 42.735 41.6173 41.8292 39.4565C41.0069 37.523 38.8951 34.9938 36.7309 35.5746C34.5667 36.1554 34.1726 38.7417 35.4439 40.6069Z" fill="#D67B72"/>
<path d="M62.3185 80.804L57.4345 69.6863C57.4345 69.6863 61.2221 74.8777 62.5588 72.8741C63.677 71.1803 58.4433 68.7337 56.7441 67.9888C56.5867 67.9227 56.4149 67.8982 56.2453 67.9177C56.0757 67.9372 55.9139 68 55.7756 68.1002C53.9456 69.4528 47.3228 74.6654 50.3132 77.5785C53.8079 80.945 55.5916 69.115 55.5916 69.115L54.7594 82.1657L56.3334 82.7756L56.4868 69.7515L61.2056 82.1244L62.3185 80.804ZM61.8008 72.3748C61.2378 73.0713 58.5513 69.6517 58.5513 69.6517C58.5513 69.6517 62.4144 71.675 61.8371 72.3814L61.8008 72.3748ZM50.9639 76.3988C49.6309 74.1855 54.6223 69.9873 54.6223 69.9873C54.6223 69.9873 52.3332 78.6187 51.0001 76.4054L50.9639 76.3988Z" fill="#263238"/>
<path d="M102.408 88.3046L62.9287 81.1445L61.4367 89.3714L100.928 96.5336C101.069 93.7388 101.566 90.9734 102.408 88.3046Z" fill="#CEDDFF"/>
<path opacity="0.7" d="M102.408 88.3046L62.9287 81.1445L61.4367 89.3714L100.928 96.5336C101.069 93.7388 101.566 90.9734 102.408 88.3046Z" fill="white"/>
<path d="M68.5492 91.1111L56.1424 88.861L56.0435 88.7182C55.5608 88.0244 55.2198 87.2421 55.0401 86.4161C54.8604 85.5902 54.8456 84.7369 54.9964 83.9053C55.1473 83.0736 55.4608 82.2799 55.9191 81.5696C56.3774 80.8594 56.9713 80.2467 57.667 79.7665L57.8097 79.6676L70.2165 81.9177L69.3459 82.521C68.1397 83.3614 67.3153 84.6453 67.0529 86.0918C66.7906 87.5384 67.1116 89.03 67.9459 90.2405L68.5492 91.1111Z" fill="#CEDDFF"/>
<path d="M101.241 97.0414L67.729 90.9637C66.7625 89.6048 66.3524 87.9277 66.5826 86.2762C66.7049 85.401 67.0082 84.561 67.4732 83.8096C67.9382 83.0582 68.5546 82.412 69.2832 81.912L69.4259 81.8131L102.938 87.8908C103.051 87.9113 103.152 87.9752 103.219 88.0689C103.285 88.1626 103.313 88.2787 103.296 88.3925C103.275 88.5079 103.209 88.6102 103.113 88.677C103.016 88.7437 102.897 88.7695 102.782 88.7486L69.5966 82.73C68.4665 83.5737 67.6981 84.8143 67.4465 86.202C67.1948 87.5896 67.4785 89.0211 68.2404 90.2079L101.39 96.2199C101.503 96.2404 101.604 96.3043 101.671 96.398C101.737 96.4917 101.765 96.6078 101.748 96.7216C101.719 96.8289 101.651 96.9214 101.557 96.9806C101.463 97.0399 101.35 97.0616 101.241 97.0414Z" fill="#CEDDFF"/>
<path d="M67.6522 99.559L56.4173 97.5214L56.3283 97.393C55.4547 96.1303 55.118 94.5726 55.3919 93.0618C55.6659 91.551 56.5283 90.2107 57.7896 89.3353L57.9203 89.2342L69.1552 91.2717L68.3681 91.8278C67.8206 92.1939 67.3523 92.6664 66.9911 93.2172C66.6299 93.768 66.3832 94.3858 66.2657 95.0339C66.1481 95.682 66.1622 96.3471 66.3069 96.9896C66.4517 97.6322 66.7242 98.239 67.1083 98.7741L67.6522 99.559Z" fill="#263238"/>
<path d="M70.8334 82.0258L59.5984 79.9882L59.5116 79.8477C58.638 78.585 58.3013 77.0273 58.5753 75.5165C58.8493 74.0057 59.7116 72.6655 60.973 71.79L61.1014 71.701L72.3364 73.7385L71.5514 74.2825C71.0039 74.6486 70.5356 75.1211 70.1744 75.6719C69.8132 76.2227 69.5666 76.8405 69.449 77.4886C69.3315 78.1367 69.3455 78.8018 69.4903 79.4443C69.635 80.0869 69.9076 80.6937 70.2916 81.2288L70.8334 82.0258Z" fill="#CEDDFF"/>
<path d="M68.4458 96.402C68.3195 96.0731 68.1283 95.7729 67.8837 95.5193C67.639 95.2657 67.3459 95.064 67.0216 94.926C66.6974 94.788 66.3487 94.7167 65.9964 94.7162C65.644 94.7157 65.2952 94.7861 64.9706 94.9232L64.9102 94.9123C62.7099 95.761 60.4229 96.7438 58.1885 97.5739C55.9541 98.404 53.6792 99.2516 51.4469 99.9324C49.3164 100.637 47.1332 101.172 44.918 101.531C44.159 101.656 43.3894 101.704 42.6208 101.676C42.0051 100.117 41.4224 98.5136 40.9231 96.8633C40.3391 94.7859 39.8099 92.681 39.3642 90.5288C38.9185 88.3766 38.5497 86.2134 38.2248 84.0832C38.0629 82.9807 37.9108 81.8925 37.7852 80.7966C37.6595 79.7007 37.5426 78.5565 37.4532 77.6044L37.4817 77.4474C37.3141 76.1033 36.6374 74.8746 35.5911 74.0145C34.5447 73.1543 33.2084 72.7281 31.8572 72.8237C30.5061 72.9193 29.243 73.5294 28.3282 74.5284C27.4134 75.5273 26.9165 76.839 26.9398 78.1933C27.0129 79.5791 27.1057 80.719 27.249 81.9928C27.3923 83.2665 27.551 84.4558 27.7294 85.6735C28.1126 88.1014 28.5947 90.5347 29.1942 92.9393C29.7988 95.3767 30.5334 97.78 31.3948 100.139C32.2898 102.553 33.3524 104.901 34.5749 107.167L34.6892 107.362C34.8111 107.597 34.9597 107.816 35.132 108.016C36.1094 109.178 37.4019 110.032 38.8536 110.476C39.8794 110.8 40.9508 110.956 42.0264 110.939C43.6324 110.918 45.2291 110.691 46.7778 110.266C49.3959 109.547 51.9422 108.589 54.3845 107.403C56.734 106.282 58.9902 105.056 61.1749 103.743C63.3596 102.43 65.4664 101.065 67.5555 99.5222C68.0318 99.1769 68.3784 98.6817 68.5398 98.116C68.7013 97.5502 68.6681 96.9467 68.4458 96.402Z" fill="#D67B72"/>
<path d="M32.9487 62.4035C26.4073 65.4471 25.0549 71.5282 26.0223 83.8072C29.8231 86.6553 40.4748 85.8544 40.4748 85.8544C40.4748 85.8544 40.5643 67.1287 32.9487 62.4035Z" fill="#CEDDFF"/>
<path opacity="0.7" d="M32.9487 62.4035C26.4073 65.4471 25.0549 71.5282 26.0223 83.8072C29.8231 86.6553 40.4748 85.8544 40.4748 85.8544C40.4748 85.8544 40.5643 67.1287 32.9487 62.4035Z" fill="white"/>
</g>
<defs>
<clipPath id="clip0_2903_4896">
<rect width="90" height="90" rx="45" fill="white"/>
</clipPath>
</defs>
</svg>
