<svg width="18" height="17" viewBox="0 0 18 17" fill="none" xmlns="http://www.w3.org/2000/svg">
<path d="M17.3486 8.50065C17.3486 12.9167 13.7683 16.4991 9.35223 16.4991C8.86906 16.4991 8.39894 16.4578 7.94406 16.3729C7.34336 16.2662 6.7666 16.0943 6.22031 15.8592C5.46072 15.5371 4.75555 15.0975 4.13743 14.5599C3.31038 13.8526 2.63132 12.9754 2.14815 11.983C1.63886 10.9296 1.35156 9.74776 1.35156 8.49847C1.35156 4.08027 4.93184 0.5 9.34788 0.5C10.5972 0.5 11.7812 0.787292 12.8346 1.29876C13.8227 1.77976 14.6998 2.45881 15.4115 3.28586C15.9447 3.90398 16.3866 4.60697 16.7108 5.36873C16.9459 5.91502 17.1178 6.49178 17.2245 7.09248C17.305 7.54954 17.3486 8.01965 17.3486 8.50065Z" fill="#C98917"/>
<path d="M15.9774 8.50193C15.9774 12.918 12.3949 16.5004 7.97891 16.5004C7.49791 16.5004 7.02562 16.5004 6.57074 16.3742C6.22468 16.2958 5.95044 16.2284 5.6305 16.1304C5.37151 16.0499 5.1038 15.9933 4.85568 15.8605C4.06781 15.5449 3.38004 15.1227 2.77934 14.5677C2.27005 14.0932 2.0067 13.8364 1.6367 13.3641C1.29282 12.9114 1.05558 12.5719 0.798761 11.9908C0.232881 10.9526 0 9.75775 0 8.50629C0 4.09026 3.58028 0.507812 7.99849 0.507812C9.24561 0.507812 10.4383 0.758105 11.483 1.30657C12.0075 1.60692 12.3449 1.79627 12.8476 2.15104C13.2808 2.48403 13.5158 2.71256 14.0599 3.28062C14.6258 3.88567 15.0742 4.57126 15.3593 5.36349C15.492 5.70954 15.5878 5.99466 15.6858 6.30371C15.7619 6.57142 15.8055 6.75859 15.8816 7.08724C15.9774 7.56606 15.9774 8.02094 15.9774 8.50193Z" fill="#F8C364"/>
<path d="M14.0372 3.28642L2.76314 14.5605C1.87732 13.8814 1.2135 13.0195 0.776031 11.9835L11.4603 1.29932C12.5006 1.73025 13.369 2.43107 14.0372 3.28642Z" fill="#E8AB3E"/>
<path d="M15.8505 7.09338L6.5701 16.3738C5.92587 16.3041 5.34911 16.1257 4.84634 15.8601L15.3369 5.36963C15.6155 5.91592 15.7874 6.47962 15.8505 7.09338Z" fill="#E8AB3E"/>
<path d="M7.97975 2.47412C8.18651 2.47412 8.38892 2.48283 8.59133 2.50459C11.6318 2.8093 14.0064 5.37751 14.0064 8.50073C14.0064 11.6239 11.6318 14.1922 8.59133 14.4969C8.38892 14.5186 8.18651 14.5273 7.97975 14.5273C4.65194 14.5273 1.95312 11.8307 1.95312 8.50073C1.95312 5.17293 4.65194 2.47412 7.97975 2.47412Z" fill="#E8AB3E"/>
<path d="M8.5908 14.4954C8.3688 14.5259 8.1838 14.5346 7.97704 14.5411C4.58176 14.626 1.99612 11.8249 1.93083 8.49709C1.86554 5.08223 4.61005 2.41825 7.97922 2.46396C8.18598 2.46613 8.38839 2.47702 8.5908 2.50313C5.54593 2.80784 3.17141 5.37606 3.17141 8.49927C3.16706 11.6225 5.54593 14.1907 8.5908 14.4954Z" fill="#C98917"/>
<path d="M12.5069 6.51722C12.3219 5.59222 11.7604 5.13952 10.9747 4.97629C10.9289 4.96758 10.9289 4.90446 10.9725 4.89358C11.7495 4.70205 12.2871 4.2167 12.5025 3.33959C12.5134 3.29606 12.5743 3.29171 12.5852 3.33524C12.7942 4.11223 13.2556 4.65635 14.0652 4.88052C14.1109 4.89358 14.1066 4.95452 14.0609 4.96323C13.236 5.08729 12.8116 5.68581 12.5918 6.52157C12.5787 6.5651 12.5156 6.56292 12.5069 6.51722Z" fill="#F9F9F9"/>
</svg>
