<svg width="24" height="24" viewBox="0 0 24 24" fill="none" xmlns="http://www.w3.org/2000/svg">
<g clip-path="url(#clip0_2902_10271)">
<path d="M12 0C5.38293 0 0 5.38293 0 12C0 18.6171 5.38293 24 12 24C18.6171 24 24 18.6171 24 12C24 5.38293 18.6171 0 12 0Z" fill="#EEFFF7"/>
<path d="M18.0823 9.45728L11.5822 15.9572C11.3872 16.1522 11.1312 16.2503 10.8752 16.2503C10.6193 16.2503 10.3633 16.1522 10.1683 15.9572L6.91833 12.7072C6.52722 12.3163 6.52722 11.6842 6.91833 11.2933C7.30927 10.9022 7.94116 10.9022 8.33228 11.2933L10.8752 13.8362L16.6683 8.04333C17.0593 7.65222 17.6912 7.65222 18.0823 8.04333C18.4732 8.43427 18.4732 9.06616 18.0823 9.45728V9.45728Z" fill="#6FCD9E"/>
</g>
<defs>
<clipPath id="clip0_2902_10271">
<rect width="24" height="24" fill="white"/>
</clipPath>
</defs>
</svg>
