<svg width="24" height="24" viewBox="0 0 24 24" fill="none" xmlns="http://www.w3.org/2000/svg">
<path d="M6.51953 16.2005V13.3605C6.51953 12.2672 6.69286 11.2538 7.03953 10.3205C7.41286 9.38722 8.03953 8.46722 8.91953 7.56055L10.4795 8.72055C9.89286 9.36055 9.4662 9.96055 9.19953 10.5205C8.93286 11.0538 8.77286 11.5872 8.71953 12.1205H10.5995V16.2005H6.51953ZM13.1595 16.2005V13.3605C13.1595 12.2672 13.3328 11.2538 13.6795 10.3205C14.0528 9.38722 14.6795 8.46722 15.5595 7.56055L17.1195 8.72055C16.5328 9.36055 16.1062 9.96055 15.8395 10.5205C15.5728 11.0538 15.4128 11.5872 15.3595 12.1205H17.2395V16.2005H13.1595Z" fill="#3470E4"/>
</svg>
