<svg width="114" height="40" viewBox="0 0 114 40" fill="none" xmlns="http://www.w3.org/2000/svg">
<path d="M12.29 12.7081C13.5261 12.7081 14.7639 12.7081 16.0403 12.7081C16.0403 13.5055 16.0403 14.2821 16.0403 15.1604C17.0368 13.1111 18.7153 12.3672 20.7959 12.412C22.8939 12.4567 24.4867 13.3832 25.4326 15.2534C25.7665 14.8332 26.0708 14.3751 26.4502 13.9911C27.4188 13.0095 28.6356 12.5411 30.0081 12.4292C30.9155 12.3551 31.809 12.4326 32.6744 12.7202C34.2742 13.2489 35.2585 14.3785 35.8233 15.9009C36.2289 16.9944 36.3425 18.1361 36.3443 19.2916C36.3478 21.9815 36.346 24.6713 36.346 27.3612C36.346 27.4284 36.3373 27.4972 36.3303 27.592C35.1082 27.592 33.8913 27.592 32.6325 27.592C32.6325 27.4576 32.6325 27.325 32.6325 27.1924C32.6325 24.6954 32.6464 22.2002 32.622 19.7032C32.6167 19.1297 32.5485 18.5373 32.3877 17.988C32.0572 16.8635 31.281 16.1419 30.0781 16.0076C28.7161 15.8561 27.5569 16.2435 26.8068 17.4628C26.4397 18.0586 26.2578 18.7199 26.2508 19.4121C26.2246 21.9866 26.2141 24.5611 26.2001 27.1373C26.2001 27.2837 26.2001 27.4301 26.2001 27.5988C24.9413 27.5988 23.7104 27.5988 22.4394 27.5988C22.4394 27.4559 22.4394 27.3216 22.4394 27.189C22.4376 24.5215 22.4446 21.854 22.4254 19.1866C22.4184 18.3255 22.1928 17.5075 21.5931 16.8514C20.663 15.8337 19.4863 15.7993 18.2747 16.1798C16.8865 16.6155 16.2763 17.6815 16.1154 19.0367C16.0595 19.5103 16.0578 19.9925 16.056 20.4695C16.0508 22.703 16.0543 24.9383 16.0543 27.1718C16.0543 27.3061 16.0543 27.4421 16.0543 27.6212C14.7832 27.6212 13.5366 27.6212 12.2917 27.6212C12.29 22.6479 12.29 17.678 12.29 12.7081Z" fill="#0A0103"/>
<path d="M51.0412 14.4749C51.0412 13.9617 51.0412 13.3556 51.0412 12.7287C52.2983 12.7287 53.5204 12.7287 54.7705 12.7287C54.7705 17.6693 54.7705 22.6186 54.7705 27.5919C53.5501 27.5919 52.321 27.5919 51.0604 27.5919C51.0604 26.9702 51.0604 26.3486 51.0604 25.7062C50.9975 25.7269 50.9573 25.7269 50.9415 25.7476C49.9467 27.0735 48.5358 27.6832 46.9412 27.8709C44.497 28.1602 42.3692 27.4421 40.6558 25.677C39.4214 24.4061 38.7955 22.8528 38.6172 21.1135C38.4266 19.2623 38.6923 17.4868 39.6837 15.8887C41.2275 13.4003 43.5389 12.2862 46.4779 12.4222C47.8364 12.4859 49.0813 12.8941 50.1583 13.7379C50.4712 13.9841 50.7702 14.2476 51.0412 14.4749ZM46.5933 15.8491C44.1893 15.8508 42.3675 17.6848 42.364 20.1061C42.3605 22.548 44.2138 24.4577 46.5968 24.4646C49.0428 24.4732 50.9835 22.5462 50.98 20.1164C50.9748 17.7434 49.0253 15.8474 46.5933 15.8491Z" fill="#0A0103"/>
<path d="M83.222 14.4835C83.222 13.9599 83.222 13.3521 83.222 12.7269C84.4791 12.7269 85.7012 12.7269 86.9496 12.7269C86.9496 17.6727 86.9496 22.6219 86.9496 27.5935C85.7239 27.5935 84.4948 27.5935 83.2342 27.5935C83.2342 26.9667 83.2342 26.3468 83.2342 25.6631C82.9405 25.9679 82.7115 26.2486 82.4405 26.4794C81.2096 27.5264 79.7357 27.9448 78.1464 27.9345C76.0519 27.9207 74.2423 27.1716 72.8034 25.651C71.562 24.3371 70.9361 22.7528 70.7805 20.9739C70.6161 19.0951 70.9203 17.3059 71.9694 15.7113C73.5237 13.3503 75.7861 12.293 78.622 12.4204C79.9927 12.4824 81.2498 12.8888 82.3356 13.7412C82.6485 13.9875 82.944 14.251 83.222 14.4835ZM78.7636 15.849C76.3613 15.8525 74.5395 17.6882 74.5378 20.1094C74.536 22.5496 76.3928 24.4594 78.7741 24.4645C81.2218 24.4697 83.1608 22.5427 83.1538 20.1129C83.1486 17.7399 81.1991 15.8456 78.7636 15.849Z" fill="#0A0103"/>
<path d="M68.7908 17.0339C67.6071 17.0339 66.4322 17.0339 65.2608 17.0339C64.8796 15.4995 63.2729 14.8589 61.9388 15.6993C60.9615 16.3158 60.9842 17.547 62.0315 18.0206C62.6837 18.3168 63.4075 18.4614 64.1051 18.656C65.1804 18.9557 66.2801 19.1761 67.254 19.7599C69.3713 21.029 69.9622 23.6931 68.5303 25.6614C67.7627 26.7153 66.6577 27.2991 65.4111 27.628C63.3778 28.1653 61.4003 28.0533 59.5471 26.9977C58.0469 26.1419 57.1885 24.8572 57.0538 23.1334C57.0504 23.0904 57.0591 23.0456 57.0626 22.9836C58.2253 22.9836 59.3775 22.9836 60.5594 22.9836C60.68 24.0065 61.2989 24.6075 62.2938 24.8451C63.105 25.038 63.904 24.9674 64.6576 24.6006C65.301 24.2872 65.5825 23.774 65.5195 23.142C65.4688 22.6375 65.1559 22.3189 64.717 22.1604C64.0911 21.9349 63.4425 21.7678 62.7973 21.5973C61.7623 21.3235 60.7237 21.0721 59.7639 20.5693C57.4175 19.3397 57.0329 16.8048 57.8721 15.1465C58.4648 13.9737 59.4561 13.2195 60.6905 12.8096C62.8358 12.0984 64.9338 12.2276 66.885 13.4158C68.1701 14.1993 68.7681 15.4082 68.817 16.8858C68.8205 16.9305 68.8048 16.9736 68.7908 17.0339Z" fill="#0A0103"/>
<path d="M94.0005 12.7393C94.0005 17.6936 94.0005 22.6342 94.0005 27.5955C92.7574 27.5955 91.5283 27.5955 90.2765 27.5955C90.2765 22.6463 90.2765 17.7074 90.2765 12.7393C91.5021 12.7393 92.7312 12.7393 94.0005 12.7393Z" fill="#0A0103"/>
<path d="M94.0008 12.7393H90.2785V22.7651L94.0008 18.2481V12.7393Z" fill="#ED0331"/>
<path d="M92.1233 9.38444C93.283 9.38444 94.2231 8.45848 94.2231 7.31625C94.2231 6.17401 93.283 5.24805 92.1233 5.24805C90.9636 5.24805 90.0234 6.17401 90.0234 7.31625C90.0234 8.45848 90.9636 9.38444 92.1233 9.38444Z" fill="#0A0103"/>
<path d="M96.6033 25.996C96.6033 25.6362 96.6904 25.3022 96.8644 24.994C97.0403 24.6858 97.2827 24.4436 97.5915 24.2672C97.9022 24.0891 98.2372 24 98.5966 24C98.9559 24 99.29 24.0891 99.5988 24.2672C99.9076 24.4436 100.149 24.6858 100.323 24.994C100.499 25.3022 100.587 25.6362 100.587 25.996C100.587 26.3469 100.503 26.6756 100.334 26.982C100.166 27.2884 99.9263 27.5351 99.6156 27.7221C99.3068 27.9074 98.9671 28 98.5966 28C98.2279 28 97.8882 27.9083 97.5775 27.7248C97.2687 27.5395 97.0291 27.2937 96.8588 26.9873C96.6885 26.6809 96.6033 26.3505 96.6033 25.996ZM96.9262 25.996C96.9262 26.3024 97.001 26.5865 97.1508 26.8484C97.3005 27.1084 97.5036 27.3124 97.76 27.4603C98.0182 27.6081 98.2971 27.682 98.5966 27.682C98.8979 27.682 99.1777 27.6072 99.436 27.4576C99.6942 27.3062 99.8964 27.1013 100.042 26.843C100.19 26.5847 100.264 26.3024 100.264 25.996C100.264 25.6914 100.19 25.4108 100.042 25.1543C99.8964 24.896 99.6942 24.6929 99.436 24.5451C99.1777 24.3955 98.8979 24.3206 98.5966 24.3206C98.2971 24.3206 98.0182 24.3946 97.76 24.5424C97.5017 24.6885 97.2977 24.8916 97.148 25.1516C97.0001 25.4117 96.9262 25.6932 96.9262 25.996ZM98.1839 26.1964V27.0995H97.788V24.831H98.5629C98.8492 24.831 99.071 24.8898 99.2282 25.0073C99.3873 25.1231 99.4668 25.2924 99.4668 25.515C99.4668 25.7341 99.3471 25.9016 99.1075 26.0174C99.3358 26.1064 99.4509 26.2881 99.4528 26.5625V26.7254C99.4528 26.8786 99.4687 26.9891 99.5005 27.0568V27.0995H99.0935C99.0673 27.0354 99.0542 26.9214 99.0542 26.7575C99.0542 26.5918 99.0513 26.4939 99.0457 26.4636C99.0158 26.2926 98.8932 26.2035 98.678 26.1964H98.1839ZM98.1839 25.8544H98.6218C98.7566 25.8508 98.8651 25.8196 98.9475 25.7609C99.0298 25.7021 99.071 25.6246 99.071 25.5284C99.071 25.3984 99.0345 25.3066 98.9615 25.2532C98.8885 25.198 98.7584 25.1703 98.5713 25.1703H98.1839V25.8544Z" fill="#0A0103"/>
</svg>
