<svg width="90" height="90" viewBox="0 0 90 90" fill="none" xmlns="http://www.w3.org/2000/svg">
<g clip-path="url(#clip0_2903_4741)">
<rect width="90" height="90" rx="45" fill="#FFE7E7"/>
<path d="M26.3024 38.3204H44.4694C48.1159 38.316 51.6337 39.6679 54.3388 42.1131C57.0439 44.5584 58.743 47.9222 59.1057 51.5506C59.1057 51.5506 59.1057 51.6217 59.1057 51.6533C60.0219 61.8584 59.8955 82.4582 59.1057 92.6475C59.1057 93.0582 59.0267 93.5637 58.9556 94.1245C58.5304 97.6669 56.8212 100.93 54.1516 103.297C51.4819 105.664 48.0372 106.97 44.4694 106.968H19.0199C15.9853 106.988 13.0214 106.053 10.5478 104.295C8.07415 102.537 6.21609 100.046 5.23667 97.1734C5.15796 96.9509 5.09203 96.7241 5.0392 96.4941C3.8623 91.3442 3.45947 80.3887 5.0392 75.3415C5.92385 72.5295 10.8921 68.4775 11.7689 65.6656C13.1354 61.3213 10.0312 51.6612 11.7689 47.4512C12.3455 46.0611 14.3833 43.9679 16.3896 42.1433C19.1001 39.675 22.6365 38.3111 26.3024 38.3204Z" fill="#CC4944"/>
<path opacity="0.5" d="M26.3024 38.3204H44.4694C48.1159 38.316 51.6337 39.6679 54.3388 42.1131C57.0439 44.5584 58.743 47.9222 59.1057 51.5506C59.1057 51.5506 59.1057 51.6217 59.1057 51.6533C60.0219 61.8584 59.8955 82.4582 59.1057 92.6475C59.1057 93.0582 59.0267 93.5637 58.9556 94.1245C58.5304 97.6669 56.8212 100.93 54.1516 103.297C51.4819 105.664 48.0372 106.97 44.4694 106.968H19.0199C15.9853 106.988 13.0214 106.053 10.5478 104.295C8.07415 102.537 6.21609 100.046 5.23667 97.1734C5.15796 96.9509 5.09203 96.7241 5.0392 96.4941C3.8623 91.3442 3.45947 80.3887 5.0392 75.3415C5.92385 72.5295 10.8921 68.4775 11.7689 65.6656C13.1354 61.3213 10.0312 51.6612 11.7689 47.4512C12.3455 46.0611 14.3833 43.9679 16.3896 42.1433C19.1001 39.675 22.6365 38.3111 26.3024 38.3204Z" fill="black"/>
<path d="M19.0436 41.4471C18.8191 41.1576 18.5366 40.9182 18.2142 40.7441C17.5691 41.1599 16.9589 41.6274 16.3896 42.1422C14.3833 43.9668 12.3455 46.0916 11.7689 47.4501C10.0312 51.6601 13.1354 61.3202 11.7689 65.6645C10.8921 68.4764 5.92385 72.5284 5.0392 75.3404C3.45946 80.3876 3.8623 91.3431 5.0392 96.493C5.09203 96.723 5.15796 96.9498 5.23667 97.1723C6.07836 99.6606 7.58578 101.871 9.59518 103.563C11.6046 105.255 14.0391 106.364 16.6345 106.769C17.1289 106.546 17.5827 106.241 17.9772 105.869C20.1178 103.689 21.8397 45.4991 19.0436 41.4471Z" fill="#CC4944"/>
<path opacity="0.2" d="M19.0436 41.4471C18.8191 41.1576 18.5366 40.9182 18.2142 40.7441C17.5691 41.1599 16.9589 41.6274 16.3896 42.1422C14.3833 43.9668 12.3455 46.0916 11.7689 47.4501C10.0312 51.6601 13.1354 61.3202 11.7689 65.6645C10.8921 68.4764 5.92385 72.5284 5.0392 75.3404C3.45946 80.3876 3.8623 91.3431 5.0392 96.493C5.09203 96.723 5.15796 96.9498 5.23667 97.1723C6.07836 99.6606 7.58578 101.871 9.59518 103.563C11.6046 105.255 14.0391 106.364 16.6345 106.769C17.1289 106.546 17.5827 106.241 17.9772 105.869C20.1178 103.689 21.8397 45.4991 19.0436 41.4471Z" fill="white"/>
<path opacity="0.3" d="M12.6712 98.8994L7.63971 96.4508C7.16724 96.2226 6.76855 95.866 6.48919 95.4218C6.20983 94.9776 6.06109 94.4638 6.05998 93.9391V83.1574C6.05998 82.4179 6.35374 81.7087 6.87664 81.1858C7.39953 80.6629 8.10872 80.3691 8.84821 80.3691H14.3773C14.7516 80.3689 15.122 80.4441 15.4667 80.5901C15.8113 80.7361 16.123 80.95 16.3831 81.219C16.6433 81.488 16.8467 81.8067 16.9811 82.156C17.1155 82.5053 17.1782 82.8781 17.1655 83.2522L16.6916 96.4903C16.6784 96.9572 16.5477 97.4132 16.3118 97.8162C16.0758 98.2193 15.7421 98.5564 15.3415 98.7965C14.9409 99.0366 14.4862 99.1718 14.0195 99.1898C13.5528 99.2078 13.0891 99.1079 12.6712 98.8994Z" fill="black"/>
<path d="M78 68.6547L75.82 68.8206C75.6997 68.8528 75.5852 68.9035 75.4804 68.9707L75.0933 69.1681C74.8405 69.3103 74.5878 69.4367 74.3034 69.5631C73.7979 69.8237 73.2845 70.0528 72.7948 70.2503C72.2955 70.4591 71.7805 70.6281 71.2546 70.7558L70.7806 62.0672C70.7016 60.3374 70.5753 58.6155 70.4726 56.8857C70.3699 55.1559 70.2356 53.4103 70.0777 51.7595V51.6489C69.8744 49.9439 69.0278 48.3808 67.7108 47.279C66.3939 46.1772 64.7059 45.6198 62.9918 45.7206C61.2777 45.8214 59.6668 46.5729 58.4881 47.8215C57.3094 49.0701 56.6519 50.7217 56.6499 52.4387C56.6499 54.3186 56.8079 56.08 56.95 57.8888C57.0922 59.6976 57.2818 61.4827 57.5266 63.2757L57.8821 65.9692L58.3165 68.6547C58.593 70.4477 58.9563 72.2328 59.3196 74.0258L59.4855 74.8157C59.5982 75.3358 59.81 75.8292 60.1095 76.2691C60.7748 77.2716 61.5718 78.1802 62.4791 78.9704C63.5723 79.9245 64.8491 80.6448 66.231 81.0872C67.6105 81.5129 69.0675 81.6262 70.4963 81.419C71.6519 81.2496 72.7739 80.9005 73.8216 80.3843C75.4291 79.5505 76.8738 78.4349 78.0869 77.0905C78.6231 76.5017 79.1242 75.8819 79.5877 75.2343C79.8167 74.9105 80.03 74.5866 80.2353 74.2549L80.5434 73.7415L80.8672 73.1728C81.1679 72.6485 81.3029 72.0454 81.2543 71.443C81.1917 70.642 80.814 69.8985 80.2038 69.3758C79.5937 68.853 78.8011 68.5937 78 68.6547Z" fill="#263238"/>
<path d="M67.7274 44.5881C72.8931 48.9087 73.3591 63.7266 73.3591 63.7266C71.0369 68.5053 65.5078 69.2952 60.7923 70.0455C60.7923 70.0455 54.7893 66.0251 53.486 55.4725C52.5303 47.6923 57.2932 35.8442 67.7274 44.5881Z" fill="#CC4944"/>
<g opacity="0.2">
<path d="M67.7279 44.5881C72.8937 48.9087 73.3597 63.7266 73.3597 63.7266C71.0375 68.5053 65.5084 69.2952 60.7929 70.0455C60.7929 70.0455 54.7899 66.0251 53.4866 55.4725C52.5309 47.6923 57.2938 35.8442 67.7279 44.5881Z" fill="black"/>
</g>
<path d="M61.0556 41.1653C51.9848 39.4111 42.7476 38.6667 33.5129 38.9458C28.1734 39.1748 24.1293 42.1053 23.7265 52.9659C22.9366 75.0033 19.2479 91.8906 21.2779 100.042C21.2779 100.042 60.7081 115.579 73.3539 105.571C78.7092 79.5055 71.3634 56.6704 67.9275 47.1209C67.3906 45.6212 66.4762 44.2853 65.2725 43.2421C64.0688 42.1988 62.6164 41.4836 61.0556 41.1653Z" fill="#CC4944"/>
<path opacity="0.2" d="M21.804 77.6208C21.4327 81.3647 21.101 84.7848 20.8877 87.8495C24.687 88.4182 31.235 86.6332 41.6691 76.0884L38.7387 74.4297L21.804 77.6208Z" fill="black"/>
<path d="M57.7477 43.2473C56.792 42.1178 55.6388 42.6075 55.2754 41.004C55.1689 39.7634 55.4955 38.5241 56.1996 37.497L44.3516 29.5352C44.1541 34.1638 43.9882 37.813 41.7766 39.448C40.8525 42.8207 46.8791 46.857 55.4176 47.7337C60.8282 48.2708 59.1142 44.8744 57.7477 43.2473Z" fill="#CE7A63"/>
<path opacity="0.2" d="M55.9778 37.8694L46.3335 34.4414C48.4503 38.6119 52.7393 41.1948 55.2511 40.476C55.2641 39.559 55.5145 38.6609 55.9778 37.8694Z" fill="black"/>
<path d="M54.0565 14.9493C47.6585 12.872 41.4976 17.7534 42.2085 23.7959C42.9193 29.8383 43.5196 33.922 47.4137 36.3311C55.1623 41.1256 59.5066 37.6422 60.7703 31.5208C61.8446 26.0075 60.5571 17.0583 54.0565 14.9493Z" fill="#CE7A63"/>
<path d="M54.5118 31.884C54.7891 31.891 55.0665 31.8752 55.3412 31.8367C55.3838 31.8307 55.4225 31.8085 55.449 31.7746C55.4756 31.7407 55.4879 31.6978 55.4834 31.655C55.4805 31.6331 55.4732 31.612 55.4621 31.593C55.4509 31.5739 55.4361 31.5573 55.4185 31.5441C55.4008 31.5308 55.3807 31.5212 55.3593 31.5159C55.3379 31.5105 55.3156 31.5095 55.2938 31.5128C54.6058 31.6151 53.9033 31.5541 53.2433 31.3345C52.5833 31.1149 51.9842 30.7431 51.4946 30.249C51.4637 30.2196 51.4227 30.2031 51.38 30.2031C51.3373 30.2031 51.2963 30.2196 51.2655 30.249C51.2499 30.2638 51.2376 30.2815 51.2291 30.3012C51.2207 30.3209 51.2163 30.3421 51.2163 30.3635C51.2163 30.385 51.2207 30.4062 51.2291 30.4259C51.2376 30.4456 51.2499 30.4633 51.2655 30.4781C51.6853 30.9173 52.1888 31.268 52.7464 31.5095C53.304 31.751 53.9042 31.8783 54.5118 31.884Z" fill="#263238"/>
<path d="M52.8247 25.5015C52.8247 26.0307 53.1486 26.4494 53.4961 26.4257C53.8437 26.402 54.1043 25.9675 54.0806 25.4383C54.057 24.9091 53.7568 24.4905 53.4093 24.5063C53.0617 24.5221 52.801 24.9723 52.8247 25.5015Z" fill="#263238"/>
<path d="M59.0498 25.2672C59.0498 25.7964 59.3737 26.215 59.7133 26.1913C60.053 26.1676 60.3294 25.7332 60.3057 25.204C60.282 24.6748 59.9819 24.2561 59.6344 24.2719C59.2868 24.2877 59.0261 24.7379 59.0498 25.2672Z" fill="#263238"/>
<path d="M56.9594 25.6348L56.8251 30.0896C57.2123 30.1981 57.6184 30.2211 58.0153 30.157C58.4122 30.0929 58.7904 29.9432 59.1237 29.7184C58.7671 28.1931 58.0214 26.7862 56.9594 25.6348Z" fill="#BA4D3C"/>
<path d="M50.9139 24.0994C50.8623 24.1148 50.8074 24.1148 50.7559 24.0994C50.7179 24.0846 50.6831 24.0624 50.6538 24.0341C50.6244 24.0057 50.6009 23.9718 50.5848 23.9343C50.5686 23.8969 50.56 23.8565 50.5596 23.8157C50.5591 23.7749 50.5668 23.7344 50.5821 23.6966C50.7521 23.2305 51.0295 22.811 51.3918 22.4721C51.754 22.1331 52.191 21.8842 52.6674 21.7456C52.7073 21.7368 52.7486 21.7359 52.7889 21.7431C52.8291 21.7502 52.8676 21.7652 52.9021 21.7872C52.9365 21.8092 52.9664 21.8378 52.9898 21.8713C53.0132 21.9048 53.0298 21.9426 53.0386 21.9826C53.0474 22.0225 53.0483 22.0638 53.0412 22.1041C53.034 22.1443 53.019 22.1828 52.997 22.2173C52.975 22.2517 52.9464 22.2815 52.9129 22.305C52.8794 22.3284 52.8416 22.345 52.8017 22.3538C52.4241 22.47 52.0793 22.6736 51.7952 22.9481C51.5111 23.2226 51.2958 23.5602 51.1666 23.9335C51.1412 23.9797 51.1048 24.0189 51.0608 24.0478C51.0168 24.0767 50.9663 24.0944 50.9139 24.0994Z" fill="#263238"/>
<path d="M61.2829 23.1214C61.2383 23.1165 61.195 23.1029 61.1557 23.0812C61.1164 23.0595 61.0818 23.0302 61.0538 22.995C60.8671 22.6518 60.6 22.359 60.2753 22.1417C59.9507 21.9243 59.5782 21.7889 59.1898 21.747C59.1486 21.746 59.1081 21.7368 59.0706 21.7199C59.033 21.7029 58.9993 21.6787 58.9713 21.6485C58.9433 21.6183 58.9217 21.5828 58.9076 21.5441C58.8936 21.5054 58.8875 21.4643 58.8896 21.4232C58.8956 21.3415 58.9323 21.2651 58.9924 21.2094C59.0525 21.1537 59.1315 21.1228 59.2135 21.123C59.7064 21.1762 60.1792 21.3476 60.5918 21.6226C61.0043 21.8977 61.3444 22.2682 61.5831 22.7028C61.6046 22.7375 61.619 22.7761 61.6256 22.8164C61.6321 22.8567 61.6305 22.8978 61.6209 22.9375C61.6114 22.9772 61.594 23.0146 61.5699 23.0475C61.5458 23.0804 61.5153 23.1082 61.4804 23.1293C61.4151 23.145 61.3467 23.1422 61.2829 23.1214Z" fill="#263238"/>
<path d="M45.2611 29.1086C45.2611 29.1086 47.6307 29.8984 47.2437 26.423C47.0527 23.7641 47.0659 21.0944 47.2832 18.4375C47.2832 18.4375 62.8041 20.0883 61.327 15.3412C60.5372 12.7188 57.2355 15.4913 57.2355 15.4913C57.2355 15.4913 58.681 12.4424 56.5799 11.8263C54.7711 11.2971 54.084 14.1959 54.084 14.1959C54.084 14.1959 42.5124 11.0838 40.83 19.4485C39.1476 27.8132 45.2611 29.1086 45.2611 29.1086Z" fill="#263238"/>
<path d="M39.7991 11.7626C32.5797 18.1605 36.6396 24.0687 39.3015 26.7701C37.9587 28.5315 34.7282 33.089 36.0315 34.4476C37.3347 35.8062 39.9097 30.2376 40.8101 28.1287L41.055 28.3182C41.055 28.3182 42.8085 20.4985 54.0799 14.1954C54.0799 14.1717 48.148 4.36153 39.7991 11.7626Z" fill="#CC4944"/>
<path d="M53.478 13.3048C53.0437 12.7438 52.5685 12.2158 52.0562 11.725C51.656 11.5695 51.2246 11.5113 50.7975 11.5552C50.3704 11.5992 49.9599 11.744 49.5997 11.9778C47.5224 13.1942 48.3359 14.7581 49.2838 15.8086C50.5845 14.8208 51.9913 13.981 53.478 13.3048Z" fill="#263238"/>
<path opacity="0.5" d="M36.8389 15.2949C34.0665 20.2553 37.1154 24.5522 39.2875 26.7401L41.1358 24.2757C38.9537 21.7023 37.4735 18.6087 36.8389 15.2949Z" fill="white"/>
<path d="M59.7992 23.1582C59.2896 23.2102 58.8154 23.4425 58.462 23.8133C58.1087 24.184 57.8994 24.6688 57.8719 25.1803C57.6721 25.0581 57.4425 24.9935 57.2084 24.9935C56.9742 24.9935 56.7446 25.0581 56.5449 25.1803C56.4333 24.5898 56.1098 24.0604 55.6353 23.6918C55.1608 23.3231 54.5679 23.1405 53.9681 23.1783C53.3684 23.2162 52.8032 23.4719 52.3788 23.8973C51.9543 24.3227 51.7 24.8885 51.6635 25.4883H42.8091V25.7964H51.6635C51.6844 26.45 51.9642 27.0685 52.4412 27.5158C52.9181 27.9632 53.5533 28.2027 54.2069 28.1818C54.8605 28.1608 55.479 27.8811 55.9263 27.4041C56.3737 26.9271 56.6132 26.292 56.5923 25.6384C56.5923 25.6384 56.5923 25.5673 56.5923 25.5357C56.7656 25.3824 56.9889 25.2978 57.2202 25.2978C57.4515 25.2978 57.6749 25.3824 57.8482 25.5357C57.8482 25.5357 57.8482 25.5989 57.8482 25.6305C57.8482 26.997 58.7328 28.1028 59.8149 28.1028C60.8971 28.1028 61.7817 26.997 61.7817 25.6305C61.7817 24.264 60.8813 23.1582 59.7992 23.1582ZM54.12 27.8026C53.6901 27.8042 53.2693 27.6781 52.9111 27.4404C52.5528 27.2027 52.2732 26.864 52.1076 26.4672C51.942 26.0704 51.8978 25.6335 51.9807 25.2116C52.0637 24.7897 52.2699 24.4019 52.5734 24.0974C52.8768 23.7928 53.2638 23.5851 53.6854 23.5007C54.107 23.4162 54.5441 23.4588 54.9415 23.6229C55.3389 23.7871 55.6786 24.0655 55.9176 24.4229C56.1566 24.7803 56.2842 25.2005 56.2842 25.6305C56.2842 26.2052 56.0565 26.7565 55.6508 27.1636C55.2452 27.5708 54.6947 27.8005 54.12 27.8026ZM59.7992 27.8026C58.8829 27.8026 58.1404 26.8311 58.1404 25.6305C58.1404 24.4299 58.8829 23.4663 59.7992 23.4663C60.7154 23.4663 61.4658 24.4378 61.4658 25.6305C61.4658 26.8232 60.7154 27.8026 59.7992 27.8026Z" fill="#CC4944"/>
<path opacity="0.5" d="M59.7992 23.1582C59.2896 23.2102 58.8154 23.4425 58.462 23.8133C58.1087 24.184 57.8994 24.6688 57.8719 25.1803C57.6721 25.0581 57.4425 24.9935 57.2084 24.9935C56.9742 24.9935 56.7446 25.0581 56.5449 25.1803C56.4333 24.5898 56.1098 24.0604 55.6353 23.6918C55.1608 23.3231 54.5679 23.1405 53.9681 23.1783C53.3684 23.2162 52.8032 23.4719 52.3788 23.8973C51.9543 24.3227 51.7 24.8885 51.6635 25.4883H42.8091V25.7964H51.6635C51.6844 26.45 51.9642 27.0685 52.4412 27.5158C52.9181 27.9632 53.5533 28.2027 54.2069 28.1818C54.8605 28.1608 55.479 27.8811 55.9263 27.4041C56.3737 26.9271 56.6132 26.292 56.5923 25.6384C56.5923 25.6384 56.5923 25.5673 56.5923 25.5357C56.7656 25.3824 56.9889 25.2978 57.2202 25.2978C57.4515 25.2978 57.6749 25.3824 57.8482 25.5357C57.8482 25.5357 57.8482 25.5989 57.8482 25.6305C57.8482 26.997 58.7328 28.1028 59.8149 28.1028C60.8971 28.1028 61.7817 26.997 61.7817 25.6305C61.7817 24.264 60.8813 23.1582 59.7992 23.1582ZM54.12 27.8026C53.6901 27.8042 53.2693 27.6781 52.9111 27.4404C52.5528 27.2027 52.2732 26.864 52.1076 26.4672C51.942 26.0704 51.8978 25.6335 51.9807 25.2116C52.0637 24.7897 52.2699 24.4019 52.5734 24.0974C52.8768 23.7928 53.2638 23.5851 53.6854 23.5007C54.107 23.4162 54.5441 23.4588 54.9415 23.6229C55.3389 23.7871 55.6786 24.0655 55.9176 24.4229C56.1566 24.7803 56.2842 25.2005 56.2842 25.6305C56.2842 26.2052 56.0565 26.7565 55.6508 27.1636C55.2452 27.5708 54.6947 27.8005 54.12 27.8026ZM59.7992 27.8026C58.8829 27.8026 58.1404 26.8311 58.1404 25.6305C58.1404 24.4299 58.8829 23.4663 59.7992 23.4663C60.7154 23.4663 61.4658 24.4378 61.4658 25.6305C61.4658 26.8232 60.7154 27.8026 59.7992 27.8026Z" fill="white"/>
<path d="M40.1892 28.9303C40.9256 30.1565 42.1189 31.0401 43.5067 31.3868C45.355 31.8291 46.2238 30.1546 45.663 28.4485C45.1575 26.9161 43.5936 24.8309 41.7611 25.1547C41.3628 25.2305 40.9896 25.4039 40.6749 25.6595C40.3602 25.9151 40.1139 26.2448 39.9581 26.6191C39.8023 26.9933 39.7418 27.4004 39.7822 27.8038C39.8225 28.2072 39.9624 28.5943 40.1892 28.9303Z" fill="#CE7A63"/>
<path d="M41.5907 40.1758C39.5607 38.0511 36.109 37.743 33.305 38.3986V38.9357C35.8879 39.1727 40.1295 41.0605 41.022 52.6952C42.1989 68.074 25.5959 86.6595 20.4459 91.8411C19.5217 92.7773 18.9616 94.0123 18.8662 95.3244L18.6608 97.9862C18.6379 98.2777 18.7015 98.5695 18.8436 98.8249C18.9858 99.0804 19.2002 99.2882 19.46 99.4224C19.7198 99.5565 20.0134 99.6109 20.304 99.5789C20.5946 99.5468 20.8693 99.4297 21.0936 99.2421C28.0919 93.4208 46.3694 76.2728 46.3694 55.7994C46.3299 47.4031 44.0551 42.7429 41.5907 40.1758Z" fill="#CC4944"/>
<path opacity="0.5" d="M41.5907 40.1758C39.5607 38.0511 36.109 37.743 33.305 38.3986V38.9357C35.8879 39.1727 40.1295 41.0605 41.022 52.6952C42.1989 68.074 25.5959 86.6595 20.4459 91.8411C19.5217 92.7773 18.9616 94.0123 18.8662 95.3244L18.6608 97.9862C18.6379 98.2777 18.7015 98.5695 18.8436 98.8249C18.9858 99.0804 19.2002 99.2882 19.46 99.4224C19.7198 99.5565 20.0134 99.6109 20.304 99.5789C20.5946 99.5468 20.8693 99.4297 21.0936 99.2421C28.0919 93.4208 46.3694 76.2728 46.3694 55.7994C46.3299 47.4031 44.0551 42.7429 41.5907 40.1758Z" fill="black"/>
<path d="M43.3675 71.7315C43.2345 71.3087 43.0194 70.9162 42.7345 70.5765C42.4497 70.2369 42.1007 69.9567 41.7075 69.752C41.3143 69.5473 40.8846 69.4222 40.443 69.3837C40.0014 69.3452 39.5565 69.3942 39.1338 69.5278L38.9759 69.5752C37.0723 70.1755 35.0265 70.8548 33.115 71.4235C31.2035 71.9922 29.2289 72.5451 27.349 72.9479C26.417 73.1454 25.5007 73.335 24.616 73.4534C24.0394 73.5245 23.4865 73.5798 22.9652 73.6035C23.0363 73.1059 23.1232 72.6004 23.2496 72.0791C23.4441 71.2434 23.6894 70.4204 23.9842 69.6147C24.2606 68.7774 24.6082 67.9244 24.9794 67.0713C25.7617 65.3183 26.6397 63.6096 27.6096 61.953C28.0915 61.0999 28.6207 60.2626 29.142 59.4333L29.9319 58.209L30.3268 57.6166L30.6585 57.1269L30.9113 56.7635C31.9038 55.3168 32.2922 53.5398 31.9936 51.8109C31.695 50.0821 30.7331 48.5382 29.3128 47.5083C27.8925 46.4783 26.1262 46.0438 24.3901 46.2972C22.6541 46.5506 21.0857 47.4719 20.019 48.8648L19.3713 49.7179L18.8026 50.5078C18.4314 51.0212 18.0838 51.5425 17.7442 52.0875C17.0491 53.1222 16.4172 54.1964 15.8011 55.247C15.185 56.2975 14.6321 57.4507 14.0871 58.5881C13.5421 59.7255 13.0445 60.9024 12.6022 62.1188C11.6361 64.6269 10.9603 67.2373 10.588 69.899C10.3764 71.329 10.2892 72.7746 10.3273 74.2196C10.3708 75.7617 10.564 77.296 10.9039 78.8008L10.9829 79.1484C11.1725 79.9451 11.5368 80.6897 12.0493 81.3284C12.9117 82.3993 13.9877 83.279 15.2087 83.9113C16.2144 84.425 17.2979 84.7692 18.4156 84.9302C20.05 85.1645 21.7114 85.1352 23.3365 84.8433C24.6471 84.6283 25.9367 84.3006 27.191 83.8639C28.3758 83.4611 29.4974 83.0266 30.5796 82.5369C32.6787 81.587 34.7131 80.4999 36.6694 79.2827C38.5917 78.0982 40.4383 76.795 42.1985 75.3807C42.7389 74.9615 43.1397 74.3885 43.3484 73.7372C43.557 73.0859 43.5637 72.3867 43.3675 71.7315Z" fill="#263238"/>
<path d="M27.5306 40.5664C16.7647 46.2376 12.0808 59.0256 12.0808 59.0256C14.1819 63.0855 24.5133 66.324 29.3315 65.1471C29.3315 65.1471 36.4403 57.9988 37.4435 50.4634C38.3597 43.5284 33.8417 37.2094 27.5306 40.5664Z" fill="#CC4944"/>
<g opacity="0.2">
<path d="M27.5271 40.5683C16.7612 46.2396 12.0773 59.0275 12.0773 59.0275C14.1784 63.0875 24.5098 66.3259 29.328 65.149C29.328 65.149 36.4368 58.0007 37.44 50.4654C38.3562 43.5303 33.8382 37.2114 27.5271 40.5683Z" fill="black"/>
</g>
<path d="M39.4033 71.3761L40.983 73.5957C44.6164 76.06 46.986 70.8311 46.986 70.8311L49.1345 68.7775C49.4919 68.3917 49.7002 67.8911 49.7219 67.3657C49.7436 66.8402 49.5773 66.3242 49.253 65.9102L47.5863 63.5011C47.2704 62.9904 46.7683 62.6225 46.1861 62.4751C45.6039 62.3277 44.9873 62.4124 44.4664 62.7113L42.3179 64.1725C41.6948 64.6001 41.1873 65.1754 40.8409 65.847L39.2611 68.888C39.0566 69.2766 38.9618 69.7135 38.9868 70.1518C39.0119 70.5902 39.1558 71.0134 39.4033 71.3761Z" fill="#CE7A63"/>
<path d="M74.439 72.6015L74.6523 68.6522C74.7417 67.0633 74.6195 65.4696 74.2889 63.913C72.501 55.6225 68.4867 47.9763 62.6779 41.7967C62.3304 41.435 61.8816 41.1872 61.3904 41.0858L57.3542 40.2407C57.2871 40.2269 57.2174 40.2359 57.156 40.2662C57.0946 40.2965 57.045 40.3463 57.0151 40.4079C56.9852 40.4695 56.9767 40.5393 56.9909 40.6063C57.0051 40.6733 57.0412 40.7336 57.0935 40.7778C60.6953 43.6055 71.8798 53.8106 74.1546 72.6015H74.439Z" fill="#CC4944"/>
<path opacity="0.5" d="M74.439 72.6015L74.6523 68.6522C74.7417 67.0633 74.6195 65.4696 74.2889 63.913C72.501 55.6225 68.4867 47.9763 62.6779 41.7967C62.3304 41.435 61.8816 41.1872 61.3904 41.0858L57.3542 40.2407C57.2871 40.2269 57.2174 40.2359 57.156 40.2662C57.0946 40.2965 57.045 40.3463 57.0151 40.4079C56.9852 40.4695 56.9767 40.5393 56.9909 40.6063C57.0051 40.6733 57.0412 40.7336 57.0935 40.7778C60.6953 43.6055 71.8798 53.8106 74.1546 72.6015H74.439Z" fill="black"/>
<path d="M81.1616 71.3761L79.5819 73.5957C75.9406 76.06 73.5789 70.8311 73.5789 70.8311L71.4304 68.7775C71.073 68.3917 70.8647 67.8911 70.843 67.3657C70.8213 66.8402 70.9876 66.3242 71.3119 65.9102L72.9786 63.5011C73.2945 62.9904 73.7966 62.6225 74.3788 62.4751C74.9609 62.3277 75.5776 62.4124 76.0985 62.7113L78.247 64.1725C78.8701 64.6001 79.3776 65.1754 79.724 65.847L81.3038 68.888C81.5083 69.2766 81.6031 69.7135 81.5781 70.1518C81.553 70.5902 81.4091 71.0134 81.1616 71.3761Z" fill="#CE7A63"/>
</g>
<defs>
<clipPath id="clip0_2903_4741">
<rect width="90" height="90" rx="45" fill="white"/>
</clipPath>
</defs>
</svg>
