<svg width="90" height="90" viewBox="0 0 90 90" fill="none" xmlns="http://www.w3.org/2000/svg">
<g clip-path="url(#clip0_2903_4813)">
<rect width="90" height="90" rx="45" fill="#FFE7E7"/>
<path d="M39.1246 14.1788C39.1246 14.1788 21.6324 12.2806 27.4471 24.1022C27.4471 24.1022 13.9796 26.505 23.6267 37.9662C23.6267 37.9662 11.1684 46.2678 20.8395 51.5538C20.8395 51.5538 12.4298 68.5534 29.3093 62.2582C29.3093 62.2582 36.8179 74.8847 47.0057 63.4596C47.0057 63.4596 63.4647 73.6713 64.0653 62.2582C64.0653 62.2582 77.4247 60.8285 64.9904 49.6557C64.9904 49.6557 70.1924 46.0515 64.1735 37.9662C64.1735 37.9662 71.1775 33.2447 61.7707 27.1537C61.7707 27.1537 68.5946 19.9454 58.0104 16.3413C58.0104 16.3413 60.0167 7.59518 49.0601 12.2445C49.0961 12.2085 47.7746 3.81082 39.1246 14.1788Z" fill="#263238"/>
<path d="M18.4615 82.9932C12.3705 87.0538 10.5563 93.9858 11.121 100.942C11.2171 102.251 13.2715 102.287 13.1634 100.942C12.6708 94.7787 14.0043 88.3874 19.4706 84.7352C20.5519 84.0023 19.5547 82.2123 18.4615 82.9571V82.9932Z" fill="#325288"/>
<g opacity="0.2">
<path d="M18.4624 82.9932C12.3714 87.0538 10.5573 93.9858 11.122 100.942C11.2181 102.251 13.2725 102.287 13.1643 100.942C12.6718 94.7787 14.0053 88.3874 19.4716 84.7352C20.5529 84.0023 19.5557 82.2123 18.4624 82.9571V82.9932Z" fill="black"/>
</g>
<path d="M32.4569 59.1337L48.0749 59.35C51.2106 59.387 54.2199 60.5918 56.5148 62.729C58.8097 64.8661 60.2253 67.7821 60.4852 70.9073C61.056 82.6312 60.8995 94.3792 60.0167 106.084C60.0167 106.432 59.9446 106.865 59.8725 107.345C59.4565 110.372 57.9479 113.142 55.631 115.134C53.3141 117.125 50.3489 118.201 47.294 118.158L25.4408 117.857C22.8364 117.841 20.303 117.006 18.1989 115.471C16.0948 113.936 14.5263 111.779 13.7153 109.304C13.7153 109.087 13.5952 108.895 13.5591 108.715C12.61 104.282 12.3578 94.8749 13.7994 90.5619C14.5923 88.1592 18.9053 84.7472 19.6862 82.3445C20.8876 78.6322 18.3526 70.3306 19.9024 66.7265C20.9716 65.0019 22.3336 63.4773 23.9271 62.2213C26.2879 60.168 29.3288 59.0673 32.4569 59.1337Z" fill="#325288"/>
<path opacity="0.5" d="M32.4569 59.1337L48.0749 59.35C51.2106 59.387 54.2199 60.5918 56.5148 62.729C58.8097 64.8661 60.2253 67.7821 60.4852 70.9073C61.056 82.6312 60.8995 94.3792 60.0167 106.084C60.0167 106.432 59.9446 106.865 59.8725 107.345C59.4565 110.372 57.9479 113.142 55.631 115.134C53.3141 117.125 50.3489 118.201 47.294 118.158L25.4408 117.857C22.8364 117.841 20.303 117.006 18.1989 115.471C16.0948 113.936 14.5263 111.779 13.7153 109.304C13.7153 109.087 13.5952 108.895 13.5591 108.715C12.61 104.282 12.3578 94.8749 13.7994 90.5619C14.5923 88.1592 18.9053 84.7472 19.6862 82.3445C20.8876 78.6322 18.3526 70.3306 19.9024 66.7265C20.9716 65.0019 22.3336 63.4773 23.9271 62.2213C26.2879 60.168 29.3288 59.0673 32.4569 59.1337Z" fill="black"/>
<path d="M26.2105 61.7416C26.0249 61.4852 25.7822 61.2755 25.5017 61.1289C24.9433 61.4831 24.4167 61.885 23.9279 62.3303C22.3343 63.5864 20.9723 65.111 19.9032 66.8355C18.3534 70.4396 20.9124 78.7532 19.687 82.4535C18.9061 84.8563 14.5931 88.2682 13.8002 90.6709C12.3946 94.9839 12.5988 104.391 13.5599 108.824C13.5599 109.004 13.656 109.196 13.7161 109.413C14.4066 111.566 15.6745 113.489 17.3818 114.971C19.0891 116.454 21.1704 117.44 23.3993 117.822C23.8393 117.639 24.2454 117.383 24.6006 117.065C26.4147 115.167 28.5532 65.2496 26.2105 61.7416Z" fill="#325288"/>
<path opacity="0.2" d="M26.2105 61.7416C26.0249 61.4852 25.7822 61.2755 25.5017 61.1289C24.9433 61.4831 24.4167 61.885 23.9279 62.3303C22.3343 63.5864 20.9723 65.111 19.9032 66.8355C18.3534 70.4396 20.9124 78.7532 19.687 82.4535C18.9061 84.8563 14.5931 88.2682 13.8002 90.6709C12.3946 94.9839 12.5988 104.391 13.5599 108.824C13.5599 109.004 13.656 109.196 13.7161 109.413C14.4066 111.566 15.6745 113.489 17.3818 114.971C19.0891 116.454 21.1704 117.44 23.3993 117.822C23.8393 117.639 24.2454 117.383 24.6006 117.065C26.4147 115.167 28.5532 65.2496 26.2105 61.7416Z" fill="white"/>
<path d="M70.9252 63.8454C70.9252 64.7224 70.8531 65.7917 70.8291 66.7768C70.8051 67.7619 70.8291 68.8071 70.8291 69.8163C70.8291 71.8466 70.9012 73.889 71.0333 75.9073C71.2419 79.9387 71.7155 83.952 72.451 87.9212L72.7633 89.3869L72.9195 90.1077C72.9195 90.2759 72.9195 90.2158 72.9195 90.2639C72.9195 90.3119 72.8474 90.396 73.1958 90.6723C74.5373 91.3677 76.022 91.742 77.5328 91.7656C81.5214 91.9333 85.5169 91.712 89.4626 91.1048L90.7961 95.5139C86.603 97.3582 82.1413 98.5182 77.5809 98.9499C74.8153 99.2636 72.0158 98.8494 69.4595 97.7485C68.6167 97.3465 67.8391 96.82 67.1529 96.1867C66.3985 95.4863 65.7759 94.6562 65.3148 93.7359C65.2186 93.5076 65.1105 93.2673 65.0144 93.027L64.8943 92.6786L64.7982 92.3783L64.5579 91.5614L64.0893 89.9155C62.9463 85.5839 62.1746 81.1629 61.7827 76.7002C61.5905 74.4777 61.4583 72.2551 61.4463 70.0205C61.4463 68.9032 61.4463 67.798 61.4463 66.6687C61.4463 65.5394 61.5304 64.4701 61.6385 63.2207L70.9252 63.8454Z" fill="#FD967A"/>
<path d="M87.8292 91.5351L93.8361 89.4688L91.4333 96.8212C91.4333 96.8212 86.6278 97.6982 84.6455 95.2234L84.9098 94.5266C85.1473 93.8444 85.5319 93.2228 86.0364 92.7058C86.5409 92.1889 87.153 91.7892 87.8292 91.5351Z" fill="#FD967A"/>
<path d="M69.0542 54.7506C72.0337 56.0241 72.262 69.1672 72.262 69.1672L62.8191 73.6844C62.8191 73.6844 56.5839 59.5441 59.4912 56.5046C62.3986 53.4651 64.6932 52.8884 69.0542 54.7506Z" fill="#325288"/>
<path opacity="0.7" d="M69.0542 54.7506C72.0337 56.0241 72.262 69.1672 72.262 69.1672L62.8191 73.6844C62.8191 73.6844 56.5839 59.5441 59.4912 56.5046C62.3986 53.4651 64.6932 52.8884 69.0542 54.7506Z" fill="white"/>
<path opacity="0.2" d="M68.1745 57.2852L69.3278 70.4764L64.1738 73.2876L68.1745 57.2852Z" fill="black"/>
<path d="M68.4023 57.1768C68.7387 61.8862 68.2701 73.1071 63.9451 99.7418H32.9975C33.5021 87.6679 32.7692 81.721 27.399 58.4622C27.19 57.5874 27.3157 56.666 27.7514 55.879C28.1871 55.0921 28.9013 54.4966 29.7537 54.2093C33.2716 52.9146 36.9498 52.1062 40.6863 51.8066C45.3659 51.4759 50.063 51.4759 54.7425 51.8066C58.4067 52.143 62.3713 52.7917 64.9182 53.2482C65.8522 53.4245 66.7011 53.906 67.3317 54.617C67.9623 55.3281 68.3389 56.2285 68.4023 57.1768Z" fill="#325288"/>
<path opacity="0.9" d="M40.6512 51.8065C39.7141 51.8065 38.765 51.9627 37.8159 52.1068C37.4194 53.4404 37.047 57.0205 42.4893 61.0571C42.4893 61.0571 44.3875 56.7201 54.2989 60.1321C54.2989 60.1321 58.3115 56.2996 60.6422 59.3031C60.6181 57.9246 60.2978 56.5674 59.7028 55.3236C59.1079 54.0799 58.2523 52.9787 57.1942 52.0948C56.3653 51.9867 55.5243 51.9026 54.7074 51.8185C50.0281 51.4838 45.331 51.4798 40.6512 51.8065Z" fill="white"/>
<path d="M40.665 51.8163C45.3399 51.4675 50.0343 51.4675 54.7092 51.8163L55.6223 51.9004C56.7516 54.0268 57.0279 54.5074 54.3488 59.3009C54.3488 59.3009 42.0226 57.1264 38.8149 51.9364C39.3676 51.8764 40.0403 51.8403 40.665 51.8163Z" fill="#FD967A"/>
<path d="M42.0464 35.9961C42.9355 40.5133 43.8245 48.7908 40.6528 51.8063C40.6528 51.8063 41.8542 56.3956 50.2639 56.3956C59.5026 56.3956 54.685 51.8063 54.685 51.8063C49.6392 50.6049 49.7714 46.8686 50.6484 43.3966L42.0464 35.9961Z" fill="#FD967A"/>
<path opacity="0.2" d="M45.5662 39L50.6721 43.349C50.4534 44.1673 50.3086 45.0037 50.2396 45.8479C48.3053 45.5716 45.6623 43.4451 45.434 41.4388C45.33 40.6246 45.3748 39.7982 45.5662 39Z" fill="black"/>
<path d="M37.1666 28.1637C38.8966 35.5162 39.4732 38.6758 43.8703 41.8475C50.5019 46.653 59.1759 42.9047 59.6805 35.1798C60.137 28.2238 57.2777 17.3513 49.4567 15.6333C47.7415 15.2468 45.956 15.3049 44.2696 15.8022C42.5832 16.2994 41.0518 17.2193 39.8207 18.4745C38.5895 19.7297 37.6995 21.2786 37.235 22.9743C36.7705 24.67 36.747 26.4563 37.1666 28.1637Z" fill="#FD967A"/>
<path d="M49.5287 14.1797C52.5201 14.6963 56.3165 19.1414 57.1094 20.9435C52.6282 20.1265 40.29 23.9469 40.29 23.9469C40.29 23.9469 34.7637 23.3222 37.8873 19.0573C41.0109 14.7924 49.5287 14.1797 49.5287 14.1797Z" fill="#263238"/>
<path d="M50.18 28.1133C50.2761 28.714 50.6846 29.1585 51.0811 29.0864C51.4775 29.0143 51.7178 28.4737 51.6097 27.885C51.5016 27.2963 51.1051 26.8398 50.7086 26.8998C50.3122 26.9599 50.0118 27.5006 50.18 28.1133Z" fill="#263238"/>
<path d="M56.667 26.949C56.7632 27.5497 57.1716 27.9942 57.5681 27.9221C57.9645 27.85 58.2048 27.3094 58.0967 26.7207C57.9886 26.1321 57.5921 25.6876 57.1957 25.7476C56.7992 25.8077 56.5589 26.3363 56.667 26.949Z" fill="#263238"/>
<path d="M57.0283 25.7958L58.4099 25.123C58.4099 25.123 57.8573 26.3845 57.0283 25.7958Z" fill="#263238"/>
<path d="M54.9014 28.4023C55.674 29.6909 56.6199 30.8672 57.7126 31.8984C57.4406 32.1703 57.1129 32.3799 56.7519 32.5126C56.391 32.6454 56.0055 32.6981 55.6222 32.6673L54.9014 28.4023Z" fill="#ED893E"/>
<path d="M53.929 36.1991C54.2313 36.1994 54.533 36.1713 54.83 36.115C54.8567 36.1156 54.8831 36.1104 54.9075 36.0996C54.9318 36.0888 54.9535 36.0728 54.9709 36.0526C54.9883 36.0325 55.001 36.0087 55.0082 35.983C55.0153 35.9574 55.0166 35.9305 55.0121 35.9042C55.0076 35.878 54.9973 35.853 54.982 35.8312C54.9667 35.8094 54.9467 35.7913 54.9236 35.7782C54.9004 35.765 54.8746 35.7571 54.8481 35.7551C54.8215 35.7531 54.7949 35.757 54.77 35.7666C54.0203 35.9113 53.247 35.878 52.5125 35.6693C51.778 35.4607 51.1028 35.0825 50.5411 34.5652C50.5074 34.5322 50.4621 34.5137 50.415 34.5137C50.3678 34.5137 50.3225 34.5322 50.2888 34.5652C50.2558 34.5989 50.2373 34.6442 50.2373 34.6913C50.2373 34.7385 50.2558 34.7838 50.2888 34.8175C50.7727 35.2791 51.344 35.6391 51.9692 35.8764C52.5944 36.1137 53.2608 36.2234 53.929 36.1991Z" fill="#263238"/>
<path d="M46.3817 27.1907C46.4588 27.1898 46.5336 27.1651 46.596 27.1199C46.6584 27.0747 46.7053 27.0113 46.7301 26.9384C46.9741 26.4013 47.3262 25.9203 47.7644 25.5255C48.2026 25.1307 48.7176 24.8305 49.2771 24.6437C49.3216 24.6301 49.363 24.6077 49.3987 24.5778C49.4345 24.5479 49.4639 24.5112 49.4851 24.4697C49.5064 24.4283 49.5192 24.383 49.5226 24.3365C49.5261 24.2901 49.5202 24.2434 49.5053 24.1992C49.4917 24.1531 49.4689 24.1103 49.4384 24.0731C49.4079 24.036 49.3702 24.0053 49.3277 23.9829C49.2852 23.9605 49.2386 23.9468 49.1907 23.9427C49.1428 23.9386 49.0945 23.9441 49.0488 23.9589C48.379 24.1794 47.7638 24.5398 47.2439 25.0162C46.724 25.4926 46.3114 26.0741 46.0333 26.7221C46.0186 26.7671 46.0133 26.8145 46.0175 26.8616C46.0218 26.9087 46.0356 26.9544 46.058 26.996C46.0805 27.0376 46.1112 27.0741 46.1483 27.1035C46.1853 27.1328 46.228 27.1543 46.2736 27.1666L46.3817 27.1907Z" fill="#263238"/>
<path d="M57.6384 24.246C57.6992 24.2522 57.7606 24.2434 57.8171 24.2204C57.8737 24.1973 57.9237 24.1608 57.9628 24.1138C57.9934 24.0774 58.0163 24.035 58.0299 23.9894C58.0435 23.9437 58.0476 23.8958 58.042 23.8485C58.0364 23.8012 58.0211 23.7556 57.9972 23.7144C57.9732 23.6733 57.9411 23.6375 57.9027 23.6092C57.4625 23.2454 56.9421 22.9913 56.3843 22.8681C55.8266 22.7449 55.2476 22.7559 54.695 22.9004C54.6501 22.9154 54.6085 22.9391 54.5727 22.9702C54.5369 23.0012 54.5076 23.039 54.4864 23.0814C54.4652 23.1238 54.4525 23.17 54.4491 23.2172C54.4458 23.2645 54.4518 23.312 54.4668 23.3569C54.4818 23.4019 54.5055 23.4435 54.5365 23.4793C54.5676 23.5151 54.6054 23.5444 54.6478 23.5656C54.6901 23.5868 54.7363 23.5995 54.7836 23.6028C54.8309 23.6062 54.8784 23.6002 54.9233 23.5852C55.3624 23.4777 55.8206 23.475 56.2609 23.5773C56.7013 23.6795 57.1114 23.8839 57.4582 24.1739L57.6384 24.246Z" fill="#263238"/>
<path d="M50.48 26.9599L51.8616 26.2871C51.8616 26.2871 51.3089 27.5486 50.48 26.9599Z" fill="#263238"/>
<path d="M60.4629 73.5648L55.6574 62.6802C55.6574 62.6802 59.3577 67.7741 60.6672 65.8038C61.7604 64.1579 56.6425 61.7431 54.9966 60.9983C54.8428 60.932 54.6742 60.9071 54.5077 60.9261C54.3412 60.9451 54.1826 61.0072 54.0475 61.1064C52.2455 62.4159 45.758 67.4978 48.7014 70.3691C52.1133 73.6729 53.8553 62.0916 53.8553 62.0916L53.0143 74.8623L54.5521 75.463L54.7323 62.7283L59.3096 74.8382L60.4629 73.5648ZM59.9704 65.3233C59.4177 66.0081 56.7627 62.6442 56.7627 62.6442C56.7627 62.6442 60.535 64.6385 59.9704 65.3233ZM49.3622 69.2398C48.0647 67.0653 52.9663 62.9566 52.9663 62.9566C52.9663 62.9566 50.6596 71.4143 49.3622 69.2398Z" fill="#263238"/>
<path d="M61.857 26.8167C61.4725 24.7864 59.8507 23.3687 58.2528 23.6691C57.5062 23.886 56.8615 24.362 56.4343 25.0116C56.0071 25.6611 55.8255 26.4417 55.9221 27.2132C55.5905 27.0853 55.23 27.0513 54.8803 27.1149C54.5306 27.1785 54.2053 27.3372 53.9398 27.5736C53.6051 26.7276 52.974 26.0324 52.1645 25.6174C51.3549 25.2024 50.422 25.096 49.5398 25.318C48.6575 25.54 47.8861 26.0753 47.3694 26.8241C46.8528 27.5729 46.626 28.484 46.7315 29.3877L38.5981 30.8894V31.3579L46.7916 29.8442C47.0035 30.816 47.5927 31.6638 48.4298 32.2012C49.2668 32.7385 50.2829 32.9214 51.2547 32.7095C52.2265 32.4976 53.0744 31.9083 53.6117 31.0713C54.1491 30.2343 54.3319 29.2182 54.12 28.2463C54.12 28.2463 54.12 28.1502 54.12 28.0902C54.3383 27.8156 54.6498 27.6309 54.9953 27.5711C55.3409 27.5113 55.6964 27.5806 55.9942 27.7658C55.9942 27.7658 55.9942 27.8619 55.9942 27.91C56.3666 29.9523 58.0005 31.3579 59.5984 31.0576C61.1962 30.7572 62.1934 28.8591 61.857 26.8167ZM51.0445 32.1749C50.4042 32.2925 49.7433 32.2175 49.1456 31.9596C48.5478 31.7016 48.04 31.2722 47.6863 30.7256C47.3326 30.179 47.1489 29.5398 47.1585 28.8888C47.1681 28.2378 47.3705 27.6043 47.7401 27.0684C48.1097 26.5324 48.6299 26.1181 49.235 25.8778C49.8401 25.6375 50.5029 25.5821 51.1395 25.7184C51.7761 25.8548 52.3579 26.1769 52.8115 26.644C53.2651 27.111 53.5699 27.7021 53.6876 28.3425C53.8415 29.2043 53.647 30.0919 53.147 30.8105C52.6469 31.5291 51.8821 32.0198 51.0205 32.1749H51.0445ZM59.5383 30.6011C58.1687 30.8533 56.7751 29.6159 56.4507 27.8259C56.1264 26.0358 56.9673 24.3779 58.3369 24.1256C59.7065 23.8733 61.0881 25.1227 61.4245 26.9008C61.7608 28.6788 60.8838 30.3488 59.5143 30.6011H59.5383Z" fill="#325288"/>
<path d="M40.2199 21.5197C42.887 23.5621 41.7217 30.9746 38.4059 33.2452C33.2399 32.0078 32.2547 15.4167 40.2199 21.5197Z" fill="#263238"/>
<path d="M36.3139 35.3255C37.0568 36.5862 38.2647 37.505 39.6778 37.8845C41.552 38.365 42.453 36.6831 41.8883 34.9291C41.3237 33.1751 39.81 31.2048 37.9478 31.4931C37.5404 31.5651 37.1574 31.7375 36.8335 31.9949C36.5096 32.2522 36.255 32.5862 36.0928 32.9668C35.9306 33.3473 35.8658 33.7623 35.9044 34.1742C35.943 34.586 36.0838 34.9818 36.3139 35.3255Z" fill="#FD967A"/>
<path opacity="0.2" d="M93.8615 90.2623C89.6206 89.6976 85.668 80.0745 83.7458 80.3028C81.8236 80.5311 88.3952 88.7125 85.7161 88.7125C83.037 88.7125 81.4752 85.5649 80.3699 85.685C79.2647 85.8051 77.6428 89.169 75.7806 88.9287C73.9185 88.6885 75.1439 84.1232 74.1587 84.0511C73.1736 83.979 71.4196 89.6856 69.2571 89.0369C67.0946 88.3881 72.8613 79.2816 71.7199 78.9332C70.5786 78.5848 67.9356 82.237 65.7731 86.4178C64.9445 88.0943 63.5604 89.4316 61.8566 90.2022L93.8615 90.2623Z" fill="white"/>
<path opacity="0.2" d="M76.9218 77.6737C75.4682 77.4695 74.447 81.386 75.9007 81.8906C77.3543 82.3952 78.3755 77.878 76.9218 77.6737Z" fill="white"/>
<path d="M31.8351 53.8848C35.9798 56.7802 48.1018 68.8421 26.2967 101.123C25.9369 101.659 25.7104 102.273 25.6359 102.913L25.3115 105.965C25.3115 106.104 25.3533 106.24 25.4313 106.355C25.5094 106.471 25.6202 106.56 25.7495 106.612C25.8788 106.664 26.0207 106.675 26.1568 106.646C26.2928 106.616 26.4169 106.546 26.5129 106.445C30.8619 100.33 43.1281 82.1294 43.1281 70.6562C43.1281 59.1829 39.0554 54.4375 36.4724 52.6354C35.9363 52.2634 35.3148 52.0331 34.6657 51.9659C34.0166 51.8987 33.3611 51.9967 32.7601 52.251L31.9191 52.5993C31.8023 52.6573 31.7028 52.745 31.6305 52.8535C31.5582 52.9621 31.5156 53.0877 31.5071 53.2179C31.4986 53.348 31.5244 53.4781 31.5819 53.5952C31.6395 53.7122 31.7268 53.8121 31.8351 53.8848Z" fill="#325288"/>
<path opacity="0.5" d="M31.8351 53.8848C35.9798 56.7802 48.1018 68.8421 26.2967 101.123C25.9369 101.659 25.7104 102.273 25.6359 102.913L25.3115 105.965C25.3115 106.104 25.3533 106.24 25.4313 106.355C25.5094 106.471 25.6202 106.56 25.7495 106.612C25.8788 106.664 26.0207 106.675 26.1568 106.646C26.2928 106.616 26.4169 106.546 26.5129 106.445C30.8619 100.33 43.1281 82.1294 43.1281 70.6562C43.1281 59.1829 39.0554 54.4375 36.4724 52.6354C35.9363 52.2634 35.3148 52.0331 34.6657 51.9659C34.0166 51.8987 33.3611 51.9967 32.7601 52.251L31.9191 52.5993C31.8023 52.6573 31.7028 52.745 31.6305 52.8535C31.5582 52.9621 31.5156 53.0877 31.5071 53.2179C31.4986 53.348 31.5244 53.4781 31.5819 53.5952C31.6395 53.7122 31.7268 53.8121 31.8351 53.8848Z" fill="black"/>
<path d="M44.8096 90.5278C42.8475 90.1302 40.9194 89.5799 39.043 88.882C38.3837 88.6479 37.7577 88.3288 37.1808 87.9328V87.7406C36.5615 83.6536 36.2682 79.5239 36.3038 75.3904C36.3038 73.276 36.3038 71.1495 36.412 69.023C36.5201 66.8966 36.6162 64.7221 36.7483 62.7158L27.4856 61.8027C27.2213 64.2055 27.1373 66.416 27.0411 68.7227C26.945 71.0294 27.0411 73.288 27.0411 75.5946C27.174 80.2994 27.794 84.9778 28.8913 89.5547L28.9994 89.9872L29.0595 90.2155C29.0595 90.4077 29.1676 90.5879 29.2277 90.7801C29.4681 91.4567 29.8171 92.0898 30.2609 92.6543C30.9038 93.482 31.699 94.1793 32.6036 94.7087C33.8653 95.441 35.2243 95.9911 36.6402 96.3426C38.9993 96.9714 41.413 97.3737 43.8485 97.5439C48.4113 97.875 52.9943 97.8026 57.5443 97.3277V92.7264C53.2554 92.0776 48.9063 91.4169 44.8096 90.5278Z" fill="#FD967A"/>
<path d="M24.313 56.2759C22.7632 59.1232 24.313 71.6896 24.313 71.6896L38.9819 73.5638C38.9819 73.5638 39.919 61.0214 36.8795 58.114C33.84 55.2067 26.079 53.0321 24.313 56.2759Z" fill="#325288"/>
<g opacity="0.7">
<path d="M24.313 56.2759C22.7632 59.1232 24.313 71.6896 24.313 71.6896L38.9819 73.5638C38.9819 73.5638 39.919 61.0214 36.8795 58.114C33.84 55.2067 26.079 53.0321 24.313 56.2759Z" fill="white"/>
</g>
<path d="M54.4688 93.1816L61.8093 89.4453L60.0432 96.99C60.0432 96.99 55.3338 98.3115 53.1353 96.0289L54.4688 93.1816Z" fill="#FD967A"/>
<path d="M68.0908 90.6828L66.2767 96.9179L60.0415 96.99L61.8075 89.4453L68.0908 90.6828Z" fill="#FD967A"/>
<path d="M58.6585 52.719C63.7926 59.8197 66.6725 68.3003 66.9241 77.059C66.9241 77.1196 66.9481 77.1776 66.9909 77.2205C67.0337 77.2633 67.0918 77.2873 67.1523 77.2873C67.2129 77.2873 67.2709 77.2633 67.3137 77.2205C67.3565 77.1776 67.3806 77.1196 67.3806 77.059L68.4618 72.0012V71.7129C68.4618 70.5115 68.4618 63.111 62.4549 52.5868C62.4216 52.5279 62.3748 52.4777 62.3185 52.4401C62.2622 52.4025 62.1978 52.3787 62.1306 52.3706L59.031 52.0102C58.9433 51.9949 58.853 52.0078 58.773 52.0471C58.6931 52.0863 58.6277 52.15 58.5863 52.2288C58.5449 52.3076 58.5296 52.3976 58.5426 52.4857C58.5556 52.5738 58.5962 52.6555 58.6585 52.719Z" fill="#325288"/>
<path opacity="0.5" d="M58.6585 52.719C63.7926 59.8197 66.6725 68.3003 66.9241 77.059C66.9241 77.1196 66.9481 77.1776 66.9909 77.2205C67.0337 77.2633 67.0918 77.2873 67.1523 77.2873C67.2129 77.2873 67.2709 77.2633 67.3137 77.2205C67.3565 77.1776 67.3806 77.1196 67.3806 77.059L68.4618 72.0012V71.7129C68.4618 70.5115 68.4618 63.111 62.4549 52.5868C62.4216 52.5279 62.3748 52.4777 62.3185 52.4401C62.2622 52.4025 62.1978 52.3787 62.1306 52.3706L59.031 52.0102C58.9433 51.9949 58.853 52.0078 58.773 52.0471C58.6931 52.0863 58.6277 52.15 58.5863 52.2288C58.5449 52.3076 58.5296 52.3976 58.5426 52.4857C58.5556 52.5738 58.5962 52.6555 58.6585 52.719Z" fill="black"/>
</g>
<defs>
<clipPath id="clip0_2903_4813">
<rect width="90" height="90" rx="45" fill="white"/>
</clipPath>
</defs>
</svg>
