<svg width="60" height="205" viewBox="0 0 60 205" fill="none" xmlns="http://www.w3.org/2000/svg">
<g clip-path="url(#clip0_2902_9168)">
<path d="M0 0H60V46.6667C60 63.2352 46.5685 76.6667 30 76.6667V76.6667C13.4315 76.6667 0 63.2352 0 46.6667V0Z" fill="#1A9FBD"/>
<g filter="url(#filter0_dddd_2902_9168)">
<path d="M13.6967 34.7504L19.0867 36.9871C18.6172 38.2249 18.2264 39.4908 17.9161 40.7776C17.8208 41.1661 17.9344 41.5763 18.2162 41.8605L23.9686 47.6213C24.2528 47.9029 24.663 48.0165 25.0515 47.9212C26.3384 47.6097 27.6043 47.2174 28.8421 46.7465L31.0787 52.1365C31.1897 52.4056 31.428 52.6011 31.7133 52.658C31.9986 52.715 32.2935 52.6255 32.4992 52.4198L35.4898 49.4291C36.6564 48.2596 37.2727 46.6506 37.1852 45.0011L37.0394 42.1688C43.2958 37.4162 49.0899 29.3648 50.8222 16.1145C50.8679 15.81 50.7665 15.502 50.5485 15.2844C50.3309 15.0665 50.0229 14.9651 49.7184 15.0107C36.4681 16.7352 28.4171 22.5084 23.6433 28.7772L20.8316 28.6482C19.1842 28.5611 17.5768 29.1753 16.4079 30.3395L13.4129 33.3386C13.211 33.5443 13.1241 33.8369 13.1807 34.1196C13.2374 34.4023 13.4303 34.6385 13.6962 34.7507L13.6967 34.7504ZM35.8274 24.883C36.5058 24.2086 37.4243 23.8312 38.3804 23.8333C39.3369 23.8353 40.2537 24.2165 40.9292 24.8938C41.605 25.5708 41.9842 26.4881 41.9842 27.4445C41.9842 28.401 41.605 29.3186 40.9292 29.9956C40.2537 30.6726 39.337 31.0538 38.3804 31.0558C37.4243 31.0579 36.5058 30.6804 35.8274 30.0064C35.1451 29.3285 34.7616 28.4063 34.7616 27.4446C34.7616 26.4829 35.1452 25.561 35.8274 24.8831V24.883ZM10.8352 53.9609C11.1435 48.2876 13.8967 45.1638 15.4753 43.8227H15.4756C15.6311 43.7022 15.8443 43.6876 16.0146 43.7864C16.1849 43.8855 16.2781 44.0778 16.2503 44.2728C16.098 45.1265 16.0727 45.9981 16.1753 46.8593C16.2613 47.5662 16.5818 48.224 17.0853 48.7275C17.5888 49.2313 18.2466 49.5515 18.9535 49.6375C19.8205 49.7491 20.6995 49.731 21.5609 49.5834C21.7623 49.548 21.9642 49.6427 22.0651 49.8205C22.1662 49.9981 22.1444 50.22 22.011 50.3749C20.6695 51.9328 17.5455 54.6861 11.8728 54.9985C11.593 55.0141 11.3199 54.9101 11.122 54.712C10.9239 54.5141 10.8198 54.241 10.8355 53.9612L10.8352 53.9609Z" fill="white" fill-opacity="0.1"/>
</g>
<path d="M13.6967 33.0825L19.0867 35.3191C18.6172 36.5569 18.2264 37.8228 17.9161 39.1097C17.8208 39.4981 17.9344 39.9084 18.2162 40.1926L23.9686 45.9533C24.2528 46.2349 24.663 46.3485 25.0515 46.2532C26.3384 45.9417 27.6043 45.5495 28.8421 45.0785L31.0787 50.4685C31.1897 50.7376 31.428 50.9331 31.7133 50.9901C31.9986 51.047 32.2935 50.9575 32.4992 50.7518L35.4898 47.7612C36.6564 46.5917 37.2727 44.9827 37.1852 43.3332L37.0394 40.5009C43.2958 35.7483 49.0899 27.6969 50.8222 14.4466C50.8679 14.1421 50.7665 13.8341 50.5485 13.6165C50.3309 13.3985 50.0229 13.2971 49.7184 13.3428C36.4681 15.0672 28.4171 20.8404 23.6433 27.1093L20.8316 26.9803C19.1842 26.8931 17.5768 27.5073 16.4079 28.6715L13.4129 31.6706C13.211 31.8763 13.1241 32.1689 13.1807 32.4516C13.2374 32.7343 13.4303 32.9705 13.6962 33.0827L13.6967 33.0825ZM35.8274 23.215C36.5058 22.5407 37.4243 22.1632 38.3804 22.1653C39.3369 22.1673 40.2537 22.5485 40.9292 23.2258C41.605 23.9028 41.9842 24.8201 41.9842 25.7766C41.9842 26.733 41.605 27.6506 40.9292 28.3276C40.2537 29.0046 39.337 29.3859 38.3804 29.3879C37.4243 29.3899 36.5058 29.0125 35.8274 28.3384C35.1451 27.6606 34.7616 26.7383 34.7616 25.7766C34.7616 24.815 35.1452 23.893 35.8274 23.2151V23.215ZM10.8352 52.2929C11.1435 46.6197 13.8967 43.4959 15.4753 42.1548H15.4756C15.6311 42.0342 15.8443 42.0197 16.0146 42.1184C16.1849 42.2175 16.2781 42.4099 16.2503 42.6048C16.098 43.4585 16.0727 44.3301 16.1753 45.1913C16.2613 45.8982 16.5818 46.556 17.0853 47.0595C17.5888 47.5633 18.2466 47.8835 18.9535 47.9695C19.8205 48.0811 20.6995 48.0631 21.5609 47.9155C21.7623 47.88 21.9642 47.9747 22.0651 48.1526C22.1662 48.3301 22.1444 48.5521 22.011 48.7069C20.6695 50.2649 17.5455 53.0182 11.8728 53.3305C11.593 53.3462 11.3199 53.2422 11.122 53.044C10.9239 52.8461 10.8198 52.573 10.8355 52.2932L10.8352 52.2929Z" fill="white"/>
</g>
<defs>
<filter id="filter0_dddd_2902_9168" x="-170.606" y="-166.44" width="402.879" height="402.88" filterUnits="userSpaceOnUse" color-interpolation-filters="sRGB">
<feFlood flood-opacity="0" result="BackgroundImageFix"/>
<feColorMatrix in="SourceAlpha" type="matrix" values="0 0 0 0 0 0 0 0 0 0 0 0 0 0 0 0 0 0 127 0" result="hardAlpha"/>
<feOffset/>
<feGaussianBlur stdDeviation="15.12"/>
<feColorMatrix type="matrix" values="0 0 0 0 1 0 0 0 0 1 0 0 0 0 1 0 0 0 1 0"/>
<feBlend mode="normal" in2="BackgroundImageFix" result="effect1_dropShadow_2902_9168"/>
<feColorMatrix in="SourceAlpha" type="matrix" values="0 0 0 0 0 0 0 0 0 0 0 0 0 0 0 0 0 0 127 0" result="hardAlpha"/>
<feOffset/>
<feGaussianBlur stdDeviation="30.24"/>
<feColorMatrix type="matrix" values="0 0 0 0 1 0 0 0 0 1 0 0 0 0 1 0 0 0 1 0"/>
<feBlend mode="normal" in2="effect1_dropShadow_2902_9168" result="effect2_dropShadow_2902_9168"/>
<feColorMatrix in="SourceAlpha" type="matrix" values="0 0 0 0 0 0 0 0 0 0 0 0 0 0 0 0 0 0 127 0" result="hardAlpha"/>
<feOffset/>
<feGaussianBlur stdDeviation="51.84"/>
<feColorMatrix type="matrix" values="0 0 0 0 1 0 0 0 0 1 0 0 0 0 1 0 0 0 1 0"/>
<feBlend mode="normal" in2="effect2_dropShadow_2902_9168" result="effect3_dropShadow_2902_9168"/>
<feColorMatrix in="SourceAlpha" type="matrix" values="0 0 0 0 0 0 0 0 0 0 0 0 0 0 0 0 0 0 127 0" result="hardAlpha"/>
<feOffset/>
<feGaussianBlur stdDeviation="90.72"/>
<feColorMatrix type="matrix" values="0 0 0 0 1 0 0 0 0 1 0 0 0 0 1 0 0 0 1 0"/>
<feBlend mode="normal" in2="effect3_dropShadow_2902_9168" result="effect4_dropShadow_2902_9168"/>
<feBlend mode="normal" in="SourceGraphic" in2="effect4_dropShadow_2902_9168" result="shape"/>
</filter>
<clipPath id="clip0_2902_9168">
<rect width="60" height="205" fill="white"/>
</clipPath>
</defs>
</svg>
