<svg width="106" height="106" viewBox="0 0 106 106" fill="none" xmlns="http://www.w3.org/2000/svg">
<g filter="url(#filter0_d_2902_10074)">
<rect x="17" y="17" width="72" height="72" rx="24" fill="#21191B"/>
<g clip-path="url(#clip0_2902_10074)">
<path d="M68.1858 43.6973H66.8188" stroke="white" stroke-width="0.229762" stroke-linecap="round" stroke-linejoin="round"/>
<path d="M66.8188 43.002H67.6757" stroke="white" stroke-width="0.229762" stroke-linecap="round" stroke-linejoin="round"/>
<path d="M68.8591 44.3925H66.8189" stroke="white" stroke-width="0.229762" stroke-linecap="round" stroke-linejoin="round"/>
<path d="M67.4902 43.6973H68.1876" stroke="white" stroke-width="0.229762" stroke-linecap="round" stroke-linejoin="round"/>
<path d="M74.0283 72.168H58.3135" stroke="white" stroke-width="0.229762" stroke-linecap="round" stroke-linejoin="round"/>
<path d="M71.9878 71.4707H74.028" stroke="white" stroke-width="0.229762" stroke-linecap="round" stroke-linejoin="round"/>
<path d="M74.0281 72.8613H59.4316" stroke="white" stroke-width="0.229762" stroke-linecap="round" stroke-linejoin="round"/>
<path d="M74.0281 73.5566H60.6279" stroke="white" stroke-width="0.229762" stroke-linecap="round" stroke-linejoin="round"/>
<path d="M69.2078 45.2734H66.8097" stroke="white" stroke-width="0.229762" stroke-linecap="round" stroke-linejoin="round"/>
<path d="M68.2283 45.2734C68.2283 45.2734 70.1071 48.1241 70.7563 51.1157C71.4054 54.1073 71.5668 60.4115 71.5668 60.4115" stroke="white" stroke-width="0.229762" stroke-linecap="round" stroke-linejoin="round"/>
<path d="M67.2509 45.2734C67.2509 45.2734 69.1279 48.1241 69.777 51.1157C70.4262 54.1073 70.5894 60.4115 70.5894 60.4115" stroke="white" stroke-width="0.229762" stroke-linecap="round" stroke-linejoin="round"/>
<path d="M66.8188 48.541C66.8188 48.541 69.5119 52.0649 69.5119 58.395H67.9317V57.6995H66.8188" stroke="white" stroke-width="0.229762" stroke-linecap="round" stroke-linejoin="round"/>
<path d="M67.9316 58.3945V60.4106" stroke="white" stroke-width="0.229762" stroke-linecap="round" stroke-linejoin="round"/>
<path d="M66.8188 52.5059C67.4216 53.0159 68.8349 54.7315 68.8349 58.3945" stroke="white" stroke-width="0.229762" stroke-linecap="round" stroke-linejoin="round"/>
<path d="M73.264 60.992H66.8097" stroke="white" stroke-width="0.229762" stroke-linecap="round" stroke-linejoin="round"/>
<path d="M73.2639 63.2402H66.8096" stroke="white" stroke-width="0.229762" stroke-linecap="round" stroke-linejoin="round"/>
<path d="M66.8097 61.7561H73.635" stroke="white" stroke-width="0.229762" stroke-linecap="round" stroke-linejoin="round"/>
<path d="M66.8096 62.5234H73.6349" stroke="white" stroke-width="0.229762" stroke-linecap="round" stroke-linejoin="round"/>
<path d="M70.6432 63.2402L71.9452 64.7481H66.8188" stroke="white" stroke-width="0.229762" stroke-linecap="round" stroke-linejoin="round"/>
<path d="M60.3741 63.2402L61.6761 64.7481H56.5479" stroke="white" stroke-width="0.229762" stroke-linecap="round" stroke-linejoin="round"/>
<path d="M65.5002 63.2402L66.8022 64.7481H61.6758" stroke="white" stroke-width="0.229762" stroke-linecap="round" stroke-linejoin="round"/>
<path d="M56.8722 63.2402L58.1742 64.7481H53.0479" stroke="white" stroke-width="0.229762" stroke-linecap="round" stroke-linejoin="round"/>
<path d="M71.9063 63.2402L73.2083 64.7481H68.0801" stroke="white" stroke-width="0.229762" stroke-linecap="round" stroke-linejoin="round"/>
<path d="M74.0279 64.7479H69.3411" stroke="white" stroke-width="0.229762" stroke-linecap="round" stroke-linejoin="round"/>
<path d="M74.0279 71.4707H57.0352" stroke="white" stroke-width="0.229762" stroke-linecap="round" stroke-linejoin="round"/>
<path d="M71.1996 64.7479V71.4711" stroke="white" stroke-width="0.229762" stroke-linecap="round" stroke-linejoin="round"/>
<path d="M65.4502 43.6973H66.819" stroke="white" stroke-width="0.229762" stroke-linecap="round" stroke-linejoin="round"/>
<path d="M66.8187 43.002H65.96" stroke="white" stroke-width="0.229762" stroke-linecap="round" stroke-linejoin="round"/>
<path d="M64.7785 44.3925H66.8187" stroke="white" stroke-width="0.229762" stroke-linecap="round" stroke-linejoin="round"/>
<path d="M66.1457 43.6973H65.4502" stroke="white" stroke-width="0.229762" stroke-linecap="round" stroke-linejoin="round"/>
<path d="M64.4301 45.2734H66.8282" stroke="white" stroke-width="0.229762" stroke-linecap="round" stroke-linejoin="round"/>
<path d="M61.0918 60.4102H66.8191" stroke="white" stroke-width="0.229762" stroke-linecap="round" stroke-linejoin="round"/>
<path d="M65.4093 45.2734C65.4093 45.2734 63.5305 48.1241 62.8814 51.1157C62.2322 54.1073 62.069 60.4115 62.069 60.4115" stroke="white" stroke-width="0.229762" stroke-linecap="round" stroke-linejoin="round"/>
<path d="M66.3866 45.2734C66.3866 45.2734 64.5077 48.1241 63.8586 51.1157C63.2095 54.1073 63.0481 60.4115 63.0481 60.4115" stroke="white" stroke-width="0.229762" stroke-linecap="round" stroke-linejoin="round"/>
<path d="M66.8189 48.541C66.8189 48.541 64.124 52.0649 64.124 58.395H65.7061V57.6995H66.8189" stroke="white" stroke-width="0.229762" stroke-linecap="round" stroke-linejoin="round"/>
<path d="M65.7061 58.3945V60.4106" stroke="white" stroke-width="0.229762" stroke-linecap="round" stroke-linejoin="round"/>
<path d="M66.8187 52.5059C66.2159 53.0159 64.8008 54.7315 64.8008 58.3945" stroke="white" stroke-width="0.229762" stroke-linecap="round" stroke-linejoin="round"/>
<path d="M60.3735 60.992H66.8279" stroke="white" stroke-width="0.229762" stroke-linecap="round" stroke-linejoin="round"/>
<path d="M60.3735 63.2402H66.8279" stroke="white" stroke-width="0.229762" stroke-linecap="round" stroke-linejoin="round"/>
<path d="M66.8282 61.7561H60.0029" stroke="white" stroke-width="0.229762" stroke-linecap="round" stroke-linejoin="round"/>
<path d="M66.8282 62.5234H60.0029" stroke="white" stroke-width="0.229762" stroke-linecap="round" stroke-linejoin="round"/>
<path d="M59.1127 63.2402H53.0479" stroke="white" stroke-width="0.229762" stroke-linecap="round" stroke-linejoin="round"/>
<path d="M58.2873 61.7561H53.0477" stroke="white" stroke-width="0.229762" stroke-linecap="round" stroke-linejoin="round"/>
<path d="M57.4619 60.2502H53.0477" stroke="white" stroke-width="0.229762" stroke-linecap="round" stroke-linejoin="round"/>
<path d="M56.6384 58.7423H53.0477" stroke="white" stroke-width="0.229762" stroke-linecap="round" stroke-linejoin="round"/>
<path d="M55.6666 57.2363H53.0477" stroke="white" stroke-width="0.229762" stroke-linecap="round" stroke-linejoin="round"/>
<path d="M55.6664 64.7479L56.247 65.397V71.4711" stroke="white" stroke-width="0.229762" stroke-linecap="round" stroke-linejoin="round"/>
<path d="M56.2472 67.0193C56.2472 67.0193 55.5053 65.6969 54.6466 65.6282C53.7879 65.5596 53.0479 66.602 53.0479 66.602" stroke="white" stroke-width="0.229762" stroke-linecap="round" stroke-linejoin="round"/>
<path d="M56.2471 68.2049C56.2471 68.2049 55.5052 66.8844 54.6465 66.8139C53.7878 66.7434 53.0477 67.7876 53.0477 67.7876" stroke="white" stroke-width="0.229762" stroke-linecap="round" stroke-linejoin="round"/>
<path d="M53.0477 71.4711H57.0353V65.397L57.614 64.7479" stroke="white" stroke-width="0.229762" stroke-linecap="round" stroke-linejoin="round"/>
<path d="M57.0355 71.4707L60.628 73.5572H53.0479" stroke="white" stroke-width="0.229762" stroke-linecap="round" stroke-linejoin="round"/>
<path d="M53.0479 57.6289H56.9891" stroke="white" stroke-width="0.229762" stroke-linecap="round" stroke-linejoin="round"/>
<path d="M53.0477 59.1837H57.9627" stroke="white" stroke-width="0.229762" stroke-linecap="round" stroke-linejoin="round"/>
<path d="M53.0479 60.7012H58.751" stroke="white" stroke-width="0.229762" stroke-linecap="round" stroke-linejoin="round"/>
<path d="M53.0479 62.2656H59.4929" stroke="white" stroke-width="0.229762" stroke-linecap="round" stroke-linejoin="round"/>
<path d="M53.0477 72.2129H57.1744" stroke="white" stroke-width="0.229762" stroke-linecap="round" stroke-linejoin="round"/>
<path d="M53.0479 72.793H58.1742" stroke="white" stroke-width="0.229762" stroke-linecap="round" stroke-linejoin="round"/>
<path d="M59.5613 64.7479V71.4711" stroke="white" stroke-width="0.229762" stroke-linecap="round" stroke-linejoin="round"/>
<path d="M64.5226 64.7479V71.4711" stroke="white" stroke-width="0.229762" stroke-linecap="round" stroke-linejoin="round"/>
<path d="M66.8021 64.7479V71.4711" stroke="white" stroke-width="0.229762" stroke-linecap="round" stroke-linejoin="round"/>
<path d="M44.4197 64.7479H49.548" stroke="white" stroke-width="0.229762" stroke-linecap="round" stroke-linejoin="round"/>
<path d="M49.2209 63.2402L47.9189 64.7481H53.0472" stroke="white" stroke-width="0.229762" stroke-linecap="round" stroke-linejoin="round"/>
<path d="M46.9829 63.2402H53.0478" stroke="white" stroke-width="0.229762" stroke-linecap="round" stroke-linejoin="round"/>
<path d="M47.8082 61.7561H53.0478" stroke="white" stroke-width="0.229762" stroke-linecap="round" stroke-linejoin="round"/>
<path d="M48.6315 60.2502H53.0475" stroke="white" stroke-width="0.229762" stroke-linecap="round" stroke-linejoin="round"/>
<path d="M49.4571 58.7423H53.0478" stroke="white" stroke-width="0.229762" stroke-linecap="round" stroke-linejoin="round"/>
<path d="M50.4286 57.2363H53.0475" stroke="white" stroke-width="0.229762" stroke-linecap="round" stroke-linejoin="round"/>
<path d="M50.427 64.7479L49.8483 65.397V71.4711" stroke="white" stroke-width="0.229762" stroke-linecap="round" stroke-linejoin="round"/>
<path d="M49.8486 67.0193C49.8486 67.0193 50.5905 65.6969 51.4474 65.6282C52.3043 65.5596 53.048 66.602 53.048 66.602" stroke="white" stroke-width="0.229762" stroke-linecap="round" stroke-linejoin="round"/>
<path d="M49.8483 68.2049C49.8483 68.2049 50.5902 66.8844 51.4471 66.8139C52.3039 66.7434 53.0477 67.7876 53.0477 67.7876" stroke="white" stroke-width="0.229762" stroke-linecap="round" stroke-linejoin="round"/>
<path d="M53.0475 71.4711H49.0599V65.397L48.4794 64.7479" stroke="white" stroke-width="0.229762" stroke-linecap="round" stroke-linejoin="round"/>
<path d="M49.0602 71.4707L45.4658 73.5572H53.0478" stroke="white" stroke-width="0.229762" stroke-linecap="round" stroke-linejoin="round"/>
<path d="M53.0477 57.6289H49.1064" stroke="white" stroke-width="0.229762" stroke-linecap="round" stroke-linejoin="round"/>
<path d="M53.0476 59.1837H48.1327" stroke="white" stroke-width="0.229762" stroke-linecap="round" stroke-linejoin="round"/>
<path d="M53.0479 60.7012H47.3447" stroke="white" stroke-width="0.229762" stroke-linecap="round" stroke-linejoin="round"/>
<path d="M53.0476 62.2656H46.6025" stroke="white" stroke-width="0.229762" stroke-linecap="round" stroke-linejoin="round"/>
<path d="M53.0477 72.2129H48.921" stroke="white" stroke-width="0.229762" stroke-linecap="round" stroke-linejoin="round"/>
<path d="M53.0472 72.793H47.9189" stroke="white" stroke-width="0.229762" stroke-linecap="round" stroke-linejoin="round"/>
<path d="M46.5321 64.7479V71.4711" stroke="white" stroke-width="0.229762" stroke-linecap="round" stroke-linejoin="round"/>
<path d="M43.3735 73.5566H45.4656" stroke="white" stroke-width="0.229762" stroke-linecap="round" stroke-linejoin="round"/>
<path d="M63.3448 69.7461H60.7408V70.8589H63.3448V69.7461Z" stroke="white" stroke-width="0.229762" stroke-linecap="round" stroke-linejoin="round"/>
<path d="M70.3037 69.7461H67.6997V70.8589H70.3037V69.7461Z" stroke="white" stroke-width="0.229762" stroke-linecap="round" stroke-linejoin="round"/>
<path d="M72.5462 60.4102H66.8188" stroke="white" stroke-width="0.229762" stroke-linecap="round" stroke-linejoin="round"/>
<path d="M44.4197 64.7478L45.718 63.2399H46.9792V61.7562H47.8046V60.2501H48.6281V58.7423H49.4571V57.2363H50.429C51.0141 56.0806 51.9244 55.1213 53.0478 54.4765C54.1713 55.1224 55.0825 56.0813 55.6703 57.2363H56.6422V58.7423H57.4657V60.2501H58.291V61.7562H59.1145V63.2399H60.3776V60.992L60.0066 60.4115H61.0953C61.0953 60.4115 61.2586 54.1055 61.9077 51.1157C62.5568 48.126 64.4338 45.2734 64.4338 45.2734H63.9479L64.7825 44.3925C64.7347 44.396 64.6867 44.3896 64.6414 44.3737C64.5962 44.3578 64.5548 44.3327 64.5197 44.3001C64.4846 44.2675 64.4566 44.2279 64.4374 44.184C64.4183 44.1401 64.4084 44.0926 64.4084 44.0447C64.4084 43.9968 64.4183 43.9494 64.4374 43.9054C64.4566 43.8615 64.4846 43.822 64.5197 43.7893C64.5548 43.7567 64.5962 43.7316 64.6414 43.7158C64.6867 43.6999 64.7347 43.6935 64.7825 43.697H65.4539C65.366 43.6905 65.2839 43.6511 65.2239 43.5866C65.1639 43.5221 65.1306 43.4373 65.1306 43.3492C65.1306 43.2611 65.1639 43.1763 65.2239 43.1118C65.2839 43.0473 65.366 43.0079 65.4539 43.0014H65.9639C65.9639 43.0014 66.8097 42.0036 66.7985 40.1953C66.7689 42.05 67.674 43.0014 67.674 43.0014H68.184C68.2718 43.0079 68.354 43.0473 68.414 43.1118C68.4739 43.1763 68.5073 43.2611 68.5073 43.3492C68.5073 43.4373 68.4739 43.5221 68.414 43.5866C68.354 43.6511 68.2718 43.6905 68.184 43.697H68.8554C68.9432 43.7034 69.0254 43.7428 69.0854 43.8073C69.1453 43.8718 69.1787 43.9566 69.1787 44.0447C69.1787 44.1328 69.1453 44.2176 69.0854 44.2821C69.0254 44.3466 68.9432 44.386 68.8554 44.3925L69.69 45.2734H69.2096C69.2096 45.2734 71.0885 48.1241 71.7376 51.1157C72.3867 54.1074 72.5481 60.4115 72.5481 60.4115H73.6368L73.2659 60.992V63.2399L74.5642 64.7478H74.0319V71.4711C74.0797 71.4676 74.1277 71.474 74.1729 71.4899C74.2181 71.5058 74.2596 71.5308 74.2947 71.5634C74.3298 71.5961 74.3578 71.6356 74.3769 71.6795C74.3961 71.7235 74.406 71.7709 74.406 71.8188C74.406 71.8668 74.3961 71.9142 74.3769 71.9581C74.3578 72.0021 74.3298 72.0416 74.2947 72.0742C74.2596 72.1068 74.2181 72.1319 74.1729 72.1478C74.1277 72.1637 74.0797 72.1701 74.0319 72.1666C74.0797 72.1631 74.1277 72.1695 74.1729 72.1854C74.2181 72.2013 74.2596 72.2263 74.2947 72.259C74.3298 72.2916 74.3578 72.3311 74.3769 72.3751C74.3961 72.419 74.406 72.4664 74.406 72.5143C74.406 72.5623 74.3961 72.6097 74.3769 72.6536C74.3578 72.6976 74.3298 72.7371 74.2947 72.7697C74.2596 72.8024 74.2181 72.8274 74.1729 72.8433C74.1277 72.8592 74.0797 72.8656 74.0319 72.8621C74.0797 72.8586 74.1277 72.865 74.1729 72.8809C74.2181 72.8968 74.2596 72.9218 74.2947 72.9545C74.3298 72.9871 74.3578 73.0266 74.3769 73.0706C74.3961 73.1145 74.406 73.1619 74.406 73.2099C74.406 73.2578 74.3961 73.3052 74.3769 73.3491C74.3578 73.3931 74.3298 73.4326 74.2947 73.4652C74.2596 73.4979 74.2181 73.5229 74.1729 73.5388C74.1277 73.5547 74.0797 73.5611 74.0319 73.5576H44.4197" stroke="white" stroke-width="0.272849" stroke-linecap="round" stroke-linejoin="round"/>
<path d="M37.8467 43.6973H39.2136" stroke="white" stroke-width="0.229762" stroke-linecap="round" stroke-linejoin="round"/>
<path d="M39.2133 43.002H38.3564" stroke="white" stroke-width="0.229762" stroke-linecap="round" stroke-linejoin="round"/>
<path d="M37.1734 44.3925H39.2136" stroke="white" stroke-width="0.229762" stroke-linecap="round" stroke-linejoin="round"/>
<path d="M38.5421 43.6973H37.8447" stroke="white" stroke-width="0.229762" stroke-linecap="round" stroke-linejoin="round"/>
<path d="M32.0039 72.168H47.7188" stroke="white" stroke-width="0.229762" stroke-linecap="round" stroke-linejoin="round"/>
<path d="M49.0597 71.4688H32.0039" stroke="white" stroke-width="0.229762" stroke-linecap="round" stroke-linejoin="round"/>
<path d="M32.0039 72.8613H46.6004" stroke="white" stroke-width="0.229762" stroke-linecap="round" stroke-linejoin="round"/>
<path d="M32.0039 73.5566H45.4041" stroke="white" stroke-width="0.229762" stroke-linecap="round" stroke-linejoin="round"/>
<path d="M36.8246 45.2734H39.2228" stroke="white" stroke-width="0.229762" stroke-linecap="round" stroke-linejoin="round"/>
<path d="M37.8039 45.2734C37.8039 45.2734 35.9251 48.1241 35.2686 51.1157C34.612 54.1073 34.4581 60.4115 34.4581 60.4115" stroke="white" stroke-width="0.229762" stroke-linecap="round" stroke-linejoin="round"/>
<path d="M38.7815 45.2734C38.7815 45.2734 36.9045 48.1241 36.2554 51.1157C35.6062 54.1073 35.443 60.4115 35.443 60.4115" stroke="white" stroke-width="0.229762" stroke-linecap="round" stroke-linejoin="round"/>
<path d="M39.2135 48.541C39.2135 48.541 36.5205 52.0649 36.5205 58.395H38.1007V57.6995H39.2135" stroke="white" stroke-width="0.229762" stroke-linecap="round" stroke-linejoin="round"/>
<path d="M38.1006 58.3945V60.4106" stroke="white" stroke-width="0.229762" stroke-linecap="round" stroke-linejoin="round"/>
<path d="M39.2133 52.5059C38.6068 53.0159 37.1973 54.7315 37.1973 58.3945" stroke="white" stroke-width="0.229762" stroke-linecap="round" stroke-linejoin="round"/>
<path d="M32.7684 60.992H39.2228" stroke="white" stroke-width="0.229762" stroke-linecap="round" stroke-linejoin="round"/>
<path d="M32.7686 63.2402H45.6587" stroke="white" stroke-width="0.229762" stroke-linecap="round" stroke-linejoin="round"/>
<path d="M39.2227 61.7561H32.3974" stroke="white" stroke-width="0.229762" stroke-linecap="round" stroke-linejoin="round"/>
<path d="M39.2228 62.5234H32.3975" stroke="white" stroke-width="0.229762" stroke-linecap="round" stroke-linejoin="round"/>
<path d="M35.3871 63.2402L34.0869 64.7481H39.2133" stroke="white" stroke-width="0.229762" stroke-linecap="round" stroke-linejoin="round"/>
<path d="M40.5325 63.2402L39.2305 64.7481H44.3569" stroke="white" stroke-width="0.229762" stroke-linecap="round" stroke-linejoin="round"/>
<path d="M34.1262 63.2402L32.8242 64.7481H37.9525" stroke="white" stroke-width="0.229762" stroke-linecap="round" stroke-linejoin="round"/>
<path d="M32.0024 64.7479H36.6911" stroke="white" stroke-width="0.229762" stroke-linecap="round" stroke-linejoin="round"/>
<path d="M34.8325 64.7479V71.4711" stroke="white" stroke-width="0.229762" stroke-linecap="round" stroke-linejoin="round"/>
<path d="M40.5821 43.6973H39.2134" stroke="white" stroke-width="0.229762" stroke-linecap="round" stroke-linejoin="round"/>
<path d="M39.2134 43.002H40.0721" stroke="white" stroke-width="0.229762" stroke-linecap="round" stroke-linejoin="round"/>
<path d="M41.2537 44.3925H39.2135" stroke="white" stroke-width="0.229762" stroke-linecap="round" stroke-linejoin="round"/>
<path d="M39.8867 43.6973H40.5822" stroke="white" stroke-width="0.229762" stroke-linecap="round" stroke-linejoin="round"/>
<path d="M41.6023 45.2734H39.2042" stroke="white" stroke-width="0.229762" stroke-linecap="round" stroke-linejoin="round"/>
<path d="M44.9407 60.4102H39.2134" stroke="white" stroke-width="0.229762" stroke-linecap="round" stroke-linejoin="round"/>
<path d="M40.6229 45.2734C40.6229 45.2734 42.5017 48.1241 43.1508 51.1157C43.8 54.1073 43.9632 60.4115 43.9632 60.4115" stroke="white" stroke-width="0.229762" stroke-linecap="round" stroke-linejoin="round"/>
<path d="M39.6455 45.2734C39.6455 45.2734 41.5243 48.1241 42.1735 51.1157C42.8226 54.1073 42.984 60.4115 42.984 60.4115" stroke="white" stroke-width="0.229762" stroke-linecap="round" stroke-linejoin="round"/>
<path d="M39.2134 48.541C39.2134 48.541 41.9064 52.0649 41.9064 58.395H40.3262V57.6995H39.2134" stroke="white" stroke-width="0.229762" stroke-linecap="round" stroke-linejoin="round"/>
<path d="M40.3262 58.3945V60.4106" stroke="white" stroke-width="0.229762" stroke-linecap="round" stroke-linejoin="round"/>
<path d="M39.2134 52.5059C39.8162 53.0159 41.2313 54.7315 41.2313 58.3945" stroke="white" stroke-width="0.229762" stroke-linecap="round" stroke-linejoin="round"/>
<path d="M45.6586 60.992H39.2042" stroke="white" stroke-width="0.229762" stroke-linecap="round" stroke-linejoin="round"/>
<path d="M39.2042 61.7561H46.0295" stroke="white" stroke-width="0.229762" stroke-linecap="round" stroke-linejoin="round"/>
<path d="M39.2041 62.5234H46.0294" stroke="white" stroke-width="0.229762" stroke-linecap="round" stroke-linejoin="round"/>
<path d="M46.4708 64.7479V71.4711" stroke="white" stroke-width="0.229762" stroke-linecap="round" stroke-linejoin="round"/>
<path d="M41.5095 64.7479V71.4711" stroke="white" stroke-width="0.229762" stroke-linecap="round" stroke-linejoin="round"/>
<path d="M39.2303 64.7479V71.4711" stroke="white" stroke-width="0.229762" stroke-linecap="round" stroke-linejoin="round"/>
<path d="M42.687 70.8613H45.291V69.7485H42.687V70.8613Z" stroke="white" stroke-width="0.229762" stroke-linecap="round" stroke-linejoin="round"/>
<path d="M35.728 70.8613H38.332V69.7485H35.728V70.8613Z" stroke="white" stroke-width="0.229762" stroke-linecap="round" stroke-linejoin="round"/>
<path d="M33.4863 60.4102H39.2136" stroke="white" stroke-width="0.229762" stroke-linecap="round" stroke-linejoin="round"/>
<path d="M46.9199 63.2419H45.655V60.994L46.0259 60.4135H44.9409C44.9409 60.4135 44.7777 54.1075 44.1285 51.1177C43.4794 48.128 41.6024 45.2754 41.6024 45.2754H42.0884L41.2538 44.3944C41.3016 44.3979 41.3496 44.3915 41.3948 44.3756C41.44 44.3598 41.4815 44.3347 41.5166 44.3021C41.5517 44.2694 41.5797 44.2299 41.5988 44.186C41.618 44.142 41.6278 44.0946 41.6278 44.0467C41.6278 43.9988 41.618 43.9513 41.5988 43.9074C41.5797 43.8635 41.5517 43.8239 41.5166 43.7913C41.4815 43.7587 41.44 43.7336 41.3948 43.7177C41.3496 43.7018 41.3016 43.6954 41.2538 43.6989H40.5824C40.6702 43.6925 40.7524 43.6531 40.8123 43.5886C40.8723 43.5241 40.9056 43.4393 40.9056 43.3512C40.9056 43.2631 40.8723 43.1783 40.8123 43.1138C40.7524 43.0493 40.6702 43.0098 40.5824 43.0034H40.0723C40.0723 43.0034 39.2229 42.0056 39.2321 40.1973C39.2618 42.052 38.3567 43.0034 38.3567 43.0034H37.8467C37.7588 43.0098 37.6767 43.0493 37.6167 43.1138C37.5567 43.1783 37.5234 43.2631 37.5234 43.3512C37.5234 43.4393 37.5567 43.5241 37.6167 43.5886C37.6767 43.6531 37.7588 43.6925 37.8467 43.6989H37.1734C37.0856 43.7054 37.0034 43.7448 36.9434 43.8093C36.8835 43.8738 36.8501 43.9586 36.8501 44.0467C36.8501 44.1348 36.8835 44.2196 36.9434 44.2841C37.0034 44.3486 37.0856 44.388 37.1734 44.3944L36.3388 45.2754H36.8266C36.8266 45.2754 34.9478 48.1261 34.2986 51.1177C33.6495 54.1094 33.4863 60.4135 33.4863 60.4135H32.3976L32.7685 60.994V63.2419L31.4702 64.7498H32.0044V71.4731C31.9566 71.4696 31.9086 71.476 31.8633 71.4919C31.8181 71.5077 31.7767 71.5328 31.7416 71.5654C31.7064 71.5981 31.6784 71.6376 31.6593 71.6815C31.6402 71.7255 31.6303 71.7729 31.6303 71.8208C31.6303 71.8687 31.6402 71.9162 31.6593 71.9601C31.6784 72.004 31.7064 72.0436 31.7416 72.0762C31.7767 72.1088 31.8181 72.1339 31.8633 72.1498C31.9086 72.1657 31.9566 72.1721 32.0044 72.1686C31.9566 72.1651 31.9086 72.1715 31.8633 72.1874C31.8181 72.2033 31.7767 72.2283 31.7416 72.2609C31.7064 72.2936 31.6784 72.3331 31.6593 72.377C31.6402 72.421 31.6303 72.4684 31.6303 72.5163C31.6303 72.5643 31.6402 72.6117 31.6593 72.6556C31.6784 72.6996 31.7064 72.7391 31.7416 72.7717C31.7767 72.8043 31.8181 72.8294 31.8633 72.8453C31.9086 72.8612 31.9566 72.8676 32.0044 72.8641C31.9566 72.8606 31.9086 72.867 31.8633 72.8829C31.8181 72.8988 31.7767 72.9238 31.7416 72.9565C31.7064 72.9891 31.6784 73.0286 31.6593 73.0725C31.6402 73.1165 31.6303 73.1639 31.6303 73.2118C31.6303 73.2598 31.6402 73.3072 31.6593 73.3511C31.6784 73.3951 31.7064 73.4346 31.7416 73.4672C31.7767 73.4999 31.8181 73.5249 31.8633 73.5408C31.9086 73.5567 31.9566 73.5631 32.0044 73.5596H46.9199" stroke="white" stroke-width="0.272849" stroke-linecap="round" stroke-linejoin="round"/>
</g>
</g>
<defs>
<filter id="filter0_d_2902_10074" x="0.0833366" y="0.0833366" width="105.833" height="105.833" filterUnits="userSpaceOnUse" color-interpolation-filters="sRGB">
<feFlood flood-opacity="0" result="BackgroundImageFix"/>
<feColorMatrix in="SourceAlpha" type="matrix" values="0 0 0 0 0 0 0 0 0 0 0 0 0 0 0 0 0 0 127 0" result="hardAlpha"/>
<feMorphology radius="2.1828" operator="erode" in="SourceAlpha" result="effect1_dropShadow_2902_10074"/>
<feOffset/>
<feGaussianBlur stdDeviation="9.54973"/>
<feComposite in2="hardAlpha" operator="out"/>
<feColorMatrix type="matrix" values="0 0 0 0 0 0 0 0 0 0 0 0 0 0 0 0 0 0 0.13 0"/>
<feBlend mode="normal" in2="BackgroundImageFix" result="effect1_dropShadow_2902_10074"/>
<feBlend mode="normal" in="SourceGraphic" in2="effect1_dropShadow_2902_10074" result="shape"/>
</filter>
<clipPath id="clip0_2902_10074">
<rect width="43.6559" height="33.9187" fill="white" transform="translate(31.188 39.918)"/>
</clipPath>
</defs>
</svg>
