<svg width="106" height="106" viewBox="0 0 106 106" fill="none" xmlns="http://www.w3.org/2000/svg">
<g filter="url(#filter0_d_2902_18308)">
<rect x="17" y="17" width="72" height="72" rx="24" fill="#21191B"/>
<g clip-path="url(#clip0_2902_18308)">
<path d="M53.0167 56.3022H62.5623L64.4748 58.0281H53.0167" stroke="white" stroke-width="0.186584" stroke-linecap="round" stroke-linejoin="round"/>
<path d="M62.5625 54.4606H61.0232V56.3041H62.5625V54.4606Z" stroke="white" stroke-width="0.186584" stroke-linecap="round" stroke-linejoin="round"/>
<path d="M61.9914 52.4642C62.1201 52.5112 62.2282 52.602 62.2967 52.7207C62.3653 52.8393 62.3899 52.9783 62.3664 53.1133C62.3428 53.2482 62.2725 53.3706 62.1678 53.459C62.0631 53.5474 61.9307 53.5962 61.7936 53.5968C61.681 53.5974 61.5708 53.565 61.4764 53.5035" stroke="white" stroke-width="0.186584" stroke-linecap="round" stroke-linejoin="round"/>
<path d="M59.9278 52.5481H53.4459" stroke="white" stroke-width="0.186584" stroke-linecap="round" stroke-linejoin="round"/>
<path d="M53.0167 52.0798C53.0167 52.4063 54.5634 53.106 54.5634 53.9811H55.0523V56.3022" stroke="white" stroke-width="0.186584" stroke-linecap="round" stroke-linejoin="round"/>
<path d="M54.5168 54.4606V56.3022" stroke="white" stroke-width="0.186584" stroke-linecap="round" stroke-linejoin="round"/>
<path d="M53.5839 53.7366C53.5839 53.8474 53.5511 53.9556 53.4896 54.0476C53.4281 54.1397 53.3407 54.2114 53.2384 54.2538C53.1361 54.2962 53.0235 54.3072 52.915 54.2856C52.8064 54.264 52.7066 54.2107 52.6284 54.1325C52.5501 54.0542 52.4968 53.9544 52.4752 53.8459C52.4536 53.7373 52.4647 53.6247 52.507 53.5224C52.5494 53.4202 52.6211 53.3327 52.7132 53.2712C52.8052 53.2097 52.9135 53.1769 53.0242 53.1769C53.1726 53.1769 53.315 53.2359 53.42 53.3408C53.5249 53.4458 53.5839 53.5882 53.5839 53.7366V53.7366Z" stroke="white" stroke-width="0.186584" stroke-linecap="round" stroke-linejoin="round"/>
<path d="M55.0523 55.6025C55.0523 55.4704 55.1048 55.3437 55.1982 55.2503C55.2916 55.1568 55.4183 55.1044 55.5505 55.1044C55.6826 55.1044 55.8093 55.1568 55.9027 55.2503C55.9962 55.3437 56.0486 55.4704 56.0486 55.6025" stroke="white" stroke-width="0.186584" stroke-linecap="round" stroke-linejoin="round"/>
<path d="M56.0489 55.6025C56.0566 55.4759 56.1124 55.3571 56.2048 55.2701C56.2972 55.1832 56.4193 55.1348 56.5461 55.1348C56.673 55.1348 56.795 55.1832 56.8874 55.2701C56.9798 55.3571 57.0356 55.4759 57.0434 55.6025" stroke="white" stroke-width="0.186584" stroke-linecap="round" stroke-linejoin="round"/>
<path d="M57.0434 55.6025C57.0512 55.4759 57.1069 55.3571 57.1993 55.2701C57.2917 55.1832 57.4138 55.1348 57.5406 55.1348C57.6675 55.1348 57.7896 55.1832 57.882 55.2701C57.9744 55.3571 58.0301 55.4759 58.0379 55.6025" stroke="white" stroke-width="0.186584" stroke-linecap="round" stroke-linejoin="round"/>
<path d="M58.0379 55.6025C58.0379 55.4704 58.0904 55.3437 58.1838 55.2503C58.2772 55.1568 58.404 55.1044 58.5361 55.1044C58.6682 55.1044 58.7949 55.1568 58.8883 55.2503C58.9818 55.3437 59.0343 55.4704 59.0343 55.6025" stroke="white" stroke-width="0.186584" stroke-linecap="round" stroke-linejoin="round"/>
<path d="M59.0341 55.6025C59.0419 55.4759 59.0977 55.3571 59.1901 55.2701C59.2825 55.1832 59.4045 55.1348 59.5314 55.1348C59.6582 55.1348 59.7803 55.1832 59.8727 55.2701C59.9651 55.3571 60.0209 55.4759 60.0286 55.6025" stroke="white" stroke-width="0.186584" stroke-linecap="round" stroke-linejoin="round"/>
<path d="M60.0287 55.6025C60.0364 55.4759 60.0922 55.3571 60.1846 55.2701C60.277 55.1832 60.3991 55.1348 60.5259 55.1348C60.6528 55.1348 60.7748 55.1832 60.8672 55.2701C60.9596 55.3571 61.0154 55.4759 61.0232 55.6025" stroke="white" stroke-width="0.186584" stroke-linecap="round" stroke-linejoin="round"/>
<path d="M59.7878 48.4657H53.0167" stroke="white" stroke-width="0.186584" stroke-linecap="round" stroke-linejoin="round"/>
<path d="M59.0341 49.3053V50.9379" stroke="white" stroke-width="0.186584" stroke-linecap="round" stroke-linejoin="round"/>
<path d="M58.2822 49.3053V50.9379" stroke="white" stroke-width="0.186584" stroke-linecap="round" stroke-linejoin="round"/>
<path d="M57.5285 49.3053V50.9379" stroke="white" stroke-width="0.186584" stroke-linecap="round" stroke-linejoin="round"/>
<path d="M56.7765 49.3053V50.9379" stroke="white" stroke-width="0.186584" stroke-linecap="round" stroke-linejoin="round"/>
<path d="M56.0245 49.3053V50.9379" stroke="white" stroke-width="0.186584" stroke-linecap="round" stroke-linejoin="round"/>
<path d="M55.2726 49.3053V50.9379" stroke="white" stroke-width="0.186584" stroke-linecap="round" stroke-linejoin="round"/>
<path d="M54.5206 49.3053V50.9379" stroke="white" stroke-width="0.186584" stroke-linecap="round" stroke-linejoin="round"/>
<path d="M53.7686 49.3053V50.9379" stroke="white" stroke-width="0.186584" stroke-linecap="round" stroke-linejoin="round"/>
<path d="M67.8279 55.0203V55.8357" stroke="white" stroke-width="0.186584" stroke-linecap="round" stroke-linejoin="round"/>
<path d="M67.076 55.0203V55.8357" stroke="white" stroke-width="0.186584" stroke-linecap="round" stroke-linejoin="round"/>
<path d="M66.324 55.0203V55.8357" stroke="white" stroke-width="0.186584" stroke-linecap="round" stroke-linejoin="round"/>
<path d="M65.572 55.0203V55.8357" stroke="white" stroke-width="0.186584" stroke-linecap="round" stroke-linejoin="round"/>
<path d="M64.82 55.0203V55.8357" stroke="white" stroke-width="0.186584" stroke-linecap="round" stroke-linejoin="round"/>
<path d="M64.0681 55.0203V55.8357" stroke="white" stroke-width="0.186584" stroke-linecap="round" stroke-linejoin="round"/>
<path d="M63.3144 55.0203V55.8357" stroke="white" stroke-width="0.186584" stroke-linecap="round" stroke-linejoin="round"/>
<path d="M67.0349 52.2216V52.6414" stroke="white" stroke-width="0.186584" stroke-linecap="round" stroke-linejoin="round"/>
<path d="M66.2829 52.2216V52.6414" stroke="white" stroke-width="0.186584" stroke-linecap="round" stroke-linejoin="round"/>
<path d="M65.5309 52.2216V52.6414" stroke="white" stroke-width="0.186584" stroke-linecap="round" stroke-linejoin="round"/>
<path d="M64.7789 52.2216V52.6414" stroke="white" stroke-width="0.186584" stroke-linecap="round" stroke-linejoin="round"/>
<path d="M64.0273 52.2216V52.6414" stroke="white" stroke-width="0.186584" stroke-linecap="round" stroke-linejoin="round"/>
<path d="M63.2753 52.2216V52.6414" stroke="white" stroke-width="0.186584" stroke-linecap="round" stroke-linejoin="round"/>
<path d="M53.0167 49.3053V50.9379" stroke="white" stroke-width="0.186584" stroke-linecap="round" stroke-linejoin="round"/>
<path d="M55.7522 53.9811H60.7489" stroke="white" stroke-width="0.186584" stroke-linecap="round" stroke-linejoin="round"/>
<path d="M60.5267 47.1596H53.0167" stroke="white" stroke-width="0.186584" stroke-linecap="round" stroke-linejoin="round"/>
<path d="M53.0167 46.5774H58.6478" stroke="white" stroke-width="0.186584" stroke-linecap="round" stroke-linejoin="round"/>
<path d="M59.773 47.1596L59.0341 48.4657" stroke="white" stroke-width="0.186584" stroke-linecap="round" stroke-linejoin="round"/>
<path d="M59.0175 47.1596L58.2805 48.4657" stroke="white" stroke-width="0.186584" stroke-linecap="round" stroke-linejoin="round"/>
<path d="M58.2636 47.1596L57.5247 48.4657" stroke="white" stroke-width="0.186584" stroke-linecap="round" stroke-linejoin="round"/>
<path d="M57.5096 47.1596L56.7707 48.4657" stroke="white" stroke-width="0.186584" stroke-linecap="round" stroke-linejoin="round"/>
<path d="M56.7559 47.1596L56.017 48.4657" stroke="white" stroke-width="0.186584" stroke-linecap="round" stroke-linejoin="round"/>
<path d="M56.0022 47.1596L55.2633 48.4657" stroke="white" stroke-width="0.186584" stroke-linecap="round" stroke-linejoin="round"/>
<path d="M55.2485 47.1596L54.5096 48.4657" stroke="white" stroke-width="0.186584" stroke-linecap="round" stroke-linejoin="round"/>
<path d="M54.4926 47.1596L53.7556 48.4657" stroke="white" stroke-width="0.186584" stroke-linecap="round" stroke-linejoin="round"/>
<path d="M53.7391 47.1596L53.0002 48.4657" stroke="white" stroke-width="0.186584" stroke-linecap="round" stroke-linejoin="round"/>
<path d="M58.3906 45.5736H53.0002" stroke="white" stroke-width="0.186584" stroke-linecap="round" stroke-linejoin="round"/>
<path d="M53.0002 39.9071C53.0002 40.4668 54.5713 40.8848 54.3343 42.8215H53.017" stroke="white" stroke-width="0.186584" stroke-linecap="round" stroke-linejoin="round"/>
<path d="M54.0355 42.8214L54.334 43.5211L54.0355 44.6406L54.5169 45.5735" stroke="white" stroke-width="0.186584" stroke-linecap="round" stroke-linejoin="round"/>
<path d="M54.0354 44.6406H53.0167" stroke="white" stroke-width="0.186584" stroke-linecap="round" stroke-linejoin="round"/>
<path d="M54.3339 43.5212H53.0167" stroke="white" stroke-width="0.186584" stroke-linecap="round" stroke-linejoin="round"/>
<path d="M53.0002 38.2278H54.7037" stroke="white" stroke-width="0.186584" stroke-linecap="round" stroke-linejoin="round"/>
<path d="M58.4352 43.5212H54.8789" stroke="white" stroke-width="0.186584" stroke-linecap="round" stroke-linejoin="round"/>
<path d="M53.0167 39.4163H57.1402" stroke="white" stroke-width="0.186584" stroke-linecap="round" stroke-linejoin="round"/>
<path d="M53.0167 38.8099H56.3864" stroke="white" stroke-width="0.186584" stroke-linecap="round" stroke-linejoin="round"/>
<path d="M53.0002 36.9683H54.2746" stroke="white" stroke-width="0.186584" stroke-linecap="round" stroke-linejoin="round"/>
<path d="M54.1232 37.4815V37.8304" stroke="white" stroke-width="0.186584" stroke-linecap="round" stroke-linejoin="round"/>
<path d="M53.5261 37.4815V37.8304" stroke="white" stroke-width="0.186584" stroke-linecap="round" stroke-linejoin="round"/>
<path d="M53.0002 32.3728C53.3043 32.3728 53.5264 33.4699 53.5264 35.5671" stroke="white" stroke-width="0.186584" stroke-linecap="round" stroke-linejoin="round"/>
<path d="M53.3842 33.2347C53.5372 32.5817 54.0839 32.4194 54.3582 32.6059C54.6325 32.7925 54.5635 33.1899 54.5168 33.3765C54.4702 33.5631 54.0354 33.5389 54.0354 33.9699C54.0426 34.5081 53.9799 35.045 53.8488 35.567" stroke="white" stroke-width="0.186584" stroke-linecap="round" stroke-linejoin="round"/>
<path d="M62.3761 58.0281V59.1476H62.0514V59.5917H61.8014V60.0582H61.6465V67.988H61.8816V69.0142H61.2099" stroke="white" stroke-width="0.186584" stroke-linecap="round" stroke-linejoin="round"/>
<path d="M63.2771 58.0281V59.1476H62.9505V59.5917H62.7024V60.0582H62.5456V67.988H62.7826V69.0142H62.1109" stroke="white" stroke-width="0.186584" stroke-linecap="round" stroke-linejoin="round"/>
<path d="M60.0434 58.0281V59.1476H60.3699V59.5917H60.6181V60.0582H60.7748V67.988H60.5378V69.0142H61.2095" stroke="white" stroke-width="0.186584" stroke-linecap="round" stroke-linejoin="round"/>
<path d="M59.0341 58.0281V59.1476H58.7076V59.5917H58.4595V60.0582H58.3027V67.988H58.5397V69.0142H57.868" stroke="white" stroke-width="0.186584" stroke-linecap="round" stroke-linejoin="round"/>
<path d="M56.7018 58.0281V59.1476H57.0265V59.5917H57.2765V60.0582H57.4314V67.988H57.1963V69.0142H57.868" stroke="white" stroke-width="0.186584" stroke-linecap="round" stroke-linejoin="round"/>
<path d="M55.6905 58.0281V59.1476H55.364V59.5917H55.1158V60.0582H54.9591V67.988H55.1961V69.0142H54.5244" stroke="white" stroke-width="0.186584" stroke-linecap="round" stroke-linejoin="round"/>
<path d="M53.3582 58.0281V59.1476H53.6847V59.5917H53.9329V60.0582H54.0896V67.988H53.8527V69.0142H54.5244" stroke="white" stroke-width="0.186584" stroke-linecap="round" stroke-linejoin="round"/>
<path d="M53.3581 59.1475H53.0167" stroke="white" stroke-width="0.186584" stroke-linecap="round" stroke-linejoin="round"/>
<path d="M55.6905 59.1475H56.7018" stroke="white" stroke-width="0.186584" stroke-linecap="round" stroke-linejoin="round"/>
<path d="M59.0341 59.1475H60.0436" stroke="white" stroke-width="0.186584" stroke-linecap="round" stroke-linejoin="round"/>
<path d="M53.0167 69.0141H63.4486" stroke="white" stroke-width="0.186584" stroke-linecap="round" stroke-linejoin="round"/>
<path d="M64.1017 68.2679H63.4487V70.3446H64.1017V68.2679Z" stroke="white" stroke-width="0.186584" stroke-linecap="round" stroke-linejoin="round"/>
<path d="M67.0182 69.9004H66.3651V71.9771H67.0182V69.9004Z" stroke="white" stroke-width="0.186584" stroke-linecap="round" stroke-linejoin="round"/>
<path d="M68.9996 73.0127V70.9378H69.6526" stroke="white" stroke-width="0.186584" stroke-linecap="round" stroke-linejoin="round"/>
<path d="M68.9995 71.9753H53.0167" stroke="white" stroke-width="0.186584" stroke-linecap="round" stroke-linejoin="round"/>
<path d="M66.3649 70.3428H53.0167" stroke="white" stroke-width="0.186584" stroke-linecap="round" stroke-linejoin="round"/>
<path d="M64.1017 68.2679C64.4282 69.059 65.0346 69.8296 66.3649 69.8987" stroke="white" stroke-width="0.186584" stroke-linecap="round" stroke-linejoin="round"/>
<path d="M67.0181 69.8986C67.2038 70.2525 67.4928 70.5415 67.8468 70.7271C68.2008 70.9128 68.6028 70.9863 68.9996 70.9379" stroke="white" stroke-width="0.186584" stroke-linecap="round" stroke-linejoin="round"/>
<path d="M68.1133 54.4605H62.5624L62.1109 53.5034" stroke="white" stroke-width="0.186584" stroke-linecap="round" stroke-linejoin="round"/>
<path d="M69.6526 56.3022H63.5662" stroke="white" stroke-width="0.186584" stroke-linecap="round" stroke-linejoin="round"/>
<path d="M68.2065 56.3022V70.8763" stroke="white" stroke-width="0.186584" stroke-linecap="round" stroke-linejoin="round"/>
<path d="M67.5534 51.7309H64.7789" stroke="white" stroke-width="0.186584" stroke-linecap="round" stroke-linejoin="round"/>
<path d="M64.7789 51.1245H67.4844" stroke="white" stroke-width="0.186584" stroke-linecap="round" stroke-linejoin="round"/>
<path d="M67.9509 53.3168H64.7789" stroke="white" stroke-width="0.186584" stroke-linecap="round" stroke-linejoin="round"/>
<path d="M64.7789 49.072C64.7789 49.072 65.7809 49.4676 65.5253 50.3781H64.7789" stroke="white" stroke-width="0.186584" stroke-linecap="round" stroke-linejoin="round"/>
<path d="M65.5254 50.3781L66.0385 51.1245" stroke="white" stroke-width="0.186584" stroke-linecap="round" stroke-linejoin="round"/>
<path d="M62.0026 51.7309H64.779" stroke="white" stroke-width="0.186584" stroke-linecap="round" stroke-linejoin="round"/>
<path d="M64.779 51.1245H62.0735" stroke="white" stroke-width="0.186584" stroke-linecap="round" stroke-linejoin="round"/>
<path d="M62.3757 53.3168H64.7789" stroke="white" stroke-width="0.186584" stroke-linecap="round" stroke-linejoin="round"/>
<path d="M64.7792 49.072C64.7792 49.072 63.7754 49.4676 64.0329 50.3781H64.7792" stroke="white" stroke-width="0.186584" stroke-linecap="round" stroke-linejoin="round"/>
<path d="M64.0327 50.3781L63.5196 51.1245" stroke="white" stroke-width="0.186584" stroke-linecap="round" stroke-linejoin="round"/>
<path d="M66.2678 50.3781H68.0908" stroke="white" stroke-width="0.186584" stroke-linecap="round" stroke-linejoin="round"/>
<path d="M61.4655 50.4248H63.2884" stroke="white" stroke-width="0.186584" stroke-linecap="round" stroke-linejoin="round"/>
<path d="M65.1746 61.4799H65.9527C66.6524 61.4799 66.2326 62.9017 67.1412 62.9017H65.1821" stroke="white" stroke-width="0.186584" stroke-linecap="round" stroke-linejoin="round"/>
<path d="M66.3185 62.9017V64.8609" stroke="white" stroke-width="0.186584" stroke-linecap="round" stroke-linejoin="round"/>
<path d="M65.1746 64.8608H66.7848V66.2844H65.1746" stroke="white" stroke-width="0.186584" stroke-linecap="round" stroke-linejoin="round"/>
<path d="M66.3183 66.2845H65.8108V67.0085H66.3183V66.2845Z" stroke="white" stroke-width="0.186584" stroke-linecap="round" stroke-linejoin="round"/>
<path d="M65.9528 61.4799C67.3055 59.6364 65.1822 59.823 65.1822 58.6811" stroke="white" stroke-width="0.186584" stroke-linecap="round" stroke-linejoin="round"/>
<path d="M65.1745 61.4799H64.4058C63.7061 61.4799 64.1259 62.9017 63.2154 62.9017H65.1745" stroke="white" stroke-width="0.186584" stroke-linecap="round" stroke-linejoin="round"/>
<path d="M64.0328 62.9017V64.8609" stroke="white" stroke-width="0.186584" stroke-linecap="round" stroke-linejoin="round"/>
<path d="M65.1745 64.8608H63.5662V66.2844H65.1745" stroke="white" stroke-width="0.186584" stroke-linecap="round" stroke-linejoin="round"/>
<path d="M64.0309 67.0066H64.5385V66.2826H64.0309V67.0066Z" stroke="white" stroke-width="0.186584" stroke-linecap="round" stroke-linejoin="round"/>
<path d="M64.406 61.4799C63.0533 59.6364 65.1747 59.823 65.1747 58.6811" stroke="white" stroke-width="0.186584" stroke-linecap="round" stroke-linejoin="round"/>
<path d="M63.1465 65.747H67.1338" stroke="white" stroke-width="0.186584" stroke-linecap="round" stroke-linejoin="round"/>
<path d="M65.5084 62.9017H64.7714V64.8609H65.5084V62.9017Z" stroke="white" stroke-width="0.186584" stroke-linecap="round" stroke-linejoin="round"/>
<path d="M57.4313 63.8813H54.9591V65.0717H57.4313V63.8813Z" stroke="white" stroke-width="0.186584" stroke-linecap="round" stroke-linejoin="round"/>
<path d="M60.7674 63.8813H58.2952V65.0717H60.7674V63.8813Z" stroke="white" stroke-width="0.186584" stroke-linecap="round" stroke-linejoin="round"/>
<path d="M63.4486 69.7045H53.0167" stroke="white" stroke-width="0.186584" stroke-linecap="round" stroke-linejoin="round"/>
<path d="M66.3649 71.1357H53.0167" stroke="white" stroke-width="0.186584" stroke-linecap="round" stroke-linejoin="round"/>
<path d="M53.0169 56.3022H43.4693L41.5569 58.0281H53.0169" stroke="white" stroke-width="0.186584" stroke-linecap="round" stroke-linejoin="round"/>
<path d="M43.4694 56.3022H45.0087V54.4587H43.4694V56.3022Z" stroke="white" stroke-width="0.186584" stroke-linecap="round" stroke-linejoin="round"/>
<path d="M44.042 52.4642C43.9643 52.4919 43.8933 52.5357 43.8338 52.5928C43.7742 52.6499 43.7274 52.7189 43.6964 52.7954C43.6655 52.8719 43.6511 52.9541 43.6542 53.0365C43.6573 53.119 43.6779 53.1998 43.7145 53.2737C43.7512 53.3477 43.803 53.413 43.8668 53.4654C43.9305 53.5178 44.0046 53.5562 44.0842 53.5779C44.1638 53.5996 44.2471 53.6042 44.3286 53.5914C44.4101 53.5785 44.4879 53.5486 44.557 53.5035" stroke="white" stroke-width="0.186584" stroke-linecap="round" stroke-linejoin="round"/>
<path d="M46.1057 52.5481H52.5858" stroke="white" stroke-width="0.186584" stroke-linecap="round" stroke-linejoin="round"/>
<path d="M53.0168 52.0798C53.0168 52.4063 51.47 53.106 51.47 53.9811H50.9793V56.3022" stroke="white" stroke-width="0.186584" stroke-linecap="round" stroke-linejoin="round"/>
<path d="M51.5168 54.4606V56.3022" stroke="white" stroke-width="0.186584" stroke-linecap="round" stroke-linejoin="round"/>
<path d="M50.9793 55.6025C50.9715 55.4759 50.9157 55.3571 50.8233 55.2701C50.7309 55.1832 50.6089 55.1348 50.482 55.1348C50.3552 55.1348 50.2331 55.1832 50.1407 55.2701C50.0483 55.3571 49.9925 55.4759 49.9848 55.6025" stroke="white" stroke-width="0.186584" stroke-linecap="round" stroke-linejoin="round"/>
<path d="M49.9849 55.6025C49.9849 55.4704 49.9324 55.3437 49.839 55.2503C49.7456 55.1568 49.6189 55.1044 49.4867 55.1044C49.3546 55.1044 49.2279 55.1568 49.1345 55.2503C49.041 55.3437 48.9886 55.4704 48.9886 55.6025" stroke="white" stroke-width="0.186584" stroke-linecap="round" stroke-linejoin="round"/>
<path d="M48.9885 55.6025C48.9808 55.4759 48.925 55.3571 48.8326 55.2701C48.7402 55.1832 48.6181 55.1348 48.4913 55.1348C48.3644 55.1348 48.2423 55.1832 48.1499 55.2701C48.0575 55.3571 48.0018 55.4759 47.994 55.6025" stroke="white" stroke-width="0.186584" stroke-linecap="round" stroke-linejoin="round"/>
<path d="M47.994 55.6025C47.9862 55.4759 47.9305 55.3571 47.8381 55.2701C47.7457 55.1832 47.6236 55.1348 47.4968 55.1348C47.3699 55.1348 47.2478 55.1832 47.1554 55.2701C47.063 55.3571 47.0073 55.4759 46.9995 55.6025" stroke="white" stroke-width="0.186584" stroke-linecap="round" stroke-linejoin="round"/>
<path d="M46.9996 55.6025C46.9996 55.4704 46.9471 55.3437 46.8537 55.2503C46.7603 55.1568 46.6336 55.1044 46.5014 55.1044C46.3693 55.1044 46.2426 55.1568 46.1492 55.2503C46.0558 55.3437 46.0033 55.4704 46.0033 55.6025" stroke="white" stroke-width="0.186584" stroke-linecap="round" stroke-linejoin="round"/>
<path d="M46.0032 55.6025C45.9955 55.4759 45.9397 55.3571 45.8473 55.2701C45.7549 55.1832 45.6328 55.1348 45.506 55.1348C45.3791 55.1348 45.2571 55.1832 45.1647 55.2701C45.0723 55.3571 45.0165 55.4759 45.0087 55.6025" stroke="white" stroke-width="0.186584" stroke-linecap="round" stroke-linejoin="round"/>
<path d="M46.2455 48.4657H53.0166" stroke="white" stroke-width="0.186584" stroke-linecap="round" stroke-linejoin="round"/>
<path d="M46.9995 49.3053V50.9379" stroke="white" stroke-width="0.186584" stroke-linecap="round" stroke-linejoin="round"/>
<path d="M47.7515 49.3053V50.9379" stroke="white" stroke-width="0.186584" stroke-linecap="round" stroke-linejoin="round"/>
<path d="M48.5034 49.3053V50.9379" stroke="white" stroke-width="0.186584" stroke-linecap="round" stroke-linejoin="round"/>
<path d="M49.2554 49.3053V50.9379" stroke="white" stroke-width="0.186584" stroke-linecap="round" stroke-linejoin="round"/>
<path d="M50.007 49.3053V50.9379" stroke="white" stroke-width="0.186584" stroke-linecap="round" stroke-linejoin="round"/>
<path d="M50.759 49.3053V50.9379" stroke="white" stroke-width="0.186584" stroke-linecap="round" stroke-linejoin="round"/>
<path d="M51.511 49.3053V50.9379" stroke="white" stroke-width="0.186584" stroke-linecap="round" stroke-linejoin="round"/>
<path d="M52.2647 49.3053V50.9379" stroke="white" stroke-width="0.186584" stroke-linecap="round" stroke-linejoin="round"/>
<path d="M38.204 55.0203V55.8357" stroke="white" stroke-width="0.186584" stroke-linecap="round" stroke-linejoin="round"/>
<path d="M38.956 55.0203V55.8357" stroke="white" stroke-width="0.186584" stroke-linecap="round" stroke-linejoin="round"/>
<path d="M39.7079 55.0203V55.8357" stroke="white" stroke-width="0.186584" stroke-linecap="round" stroke-linejoin="round"/>
<path d="M40.4616 55.0203V55.8357" stroke="white" stroke-width="0.186584" stroke-linecap="round" stroke-linejoin="round"/>
<path d="M41.2136 55.0203V55.8357" stroke="white" stroke-width="0.186584" stroke-linecap="round" stroke-linejoin="round"/>
<path d="M41.9656 55.0203V55.8357" stroke="white" stroke-width="0.186584" stroke-linecap="round" stroke-linejoin="round"/>
<path d="M42.7175 55.0203V55.8357" stroke="white" stroke-width="0.186584" stroke-linecap="round" stroke-linejoin="round"/>
<path d="M38.9967 52.2216V52.6414" stroke="white" stroke-width="0.186584" stroke-linecap="round" stroke-linejoin="round"/>
<path d="M39.7487 52.2216V52.6414" stroke="white" stroke-width="0.186584" stroke-linecap="round" stroke-linejoin="round"/>
<path d="M40.5007 52.2216V52.6414" stroke="white" stroke-width="0.186584" stroke-linecap="round" stroke-linejoin="round"/>
<path d="M41.2544 52.2216V52.6414" stroke="white" stroke-width="0.186584" stroke-linecap="round" stroke-linejoin="round"/>
<path d="M42.0063 52.2216V52.6414" stroke="white" stroke-width="0.186584" stroke-linecap="round" stroke-linejoin="round"/>
<path d="M42.7583 52.2216V52.6414" stroke="white" stroke-width="0.186584" stroke-linecap="round" stroke-linejoin="round"/>
<path d="M53.0167 49.3053V50.9379" stroke="white" stroke-width="0.186584" stroke-linecap="round" stroke-linejoin="round"/>
<path d="M50.2795 53.9811H45.2828" stroke="white" stroke-width="0.186584" stroke-linecap="round" stroke-linejoin="round"/>
<path d="M45.5069 47.1596H53.0169" stroke="white" stroke-width="0.186584" stroke-linecap="round" stroke-linejoin="round"/>
<path d="M53.0169 46.5774H47.3839" stroke="white" stroke-width="0.186584" stroke-linecap="round" stroke-linejoin="round"/>
<path d="M46.2605 47.1596L46.9994 48.4657" stroke="white" stroke-width="0.186584" stroke-linecap="round" stroke-linejoin="round"/>
<path d="M47.0142 47.1596L47.7531 48.4657" stroke="white" stroke-width="0.186584" stroke-linecap="round" stroke-linejoin="round"/>
<path d="M47.7682 47.1596L48.5071 48.4657" stroke="white" stroke-width="0.186584" stroke-linecap="round" stroke-linejoin="round"/>
<path d="M48.5219 47.1596L49.2608 48.4657" stroke="white" stroke-width="0.186584" stroke-linecap="round" stroke-linejoin="round"/>
<path d="M49.2777 47.1596L50.0147 48.4657" stroke="white" stroke-width="0.186584" stroke-linecap="round" stroke-linejoin="round"/>
<path d="M50.0314 47.1596L50.7702 48.4657" stroke="white" stroke-width="0.186584" stroke-linecap="round" stroke-linejoin="round"/>
<path d="M50.7851 47.1596L51.5239 48.4657" stroke="white" stroke-width="0.186584" stroke-linecap="round" stroke-linejoin="round"/>
<path d="M51.5391 47.1596L52.278 48.4657" stroke="white" stroke-width="0.186584" stroke-linecap="round" stroke-linejoin="round"/>
<path d="M52.2928 47.1596L53.0316 48.4657" stroke="white" stroke-width="0.186584" stroke-linecap="round" stroke-linejoin="round"/>
<path d="M47.6432 45.5736H53.0318" stroke="white" stroke-width="0.186584" stroke-linecap="round" stroke-linejoin="round"/>
<path d="M53.0318 39.9071C53.0318 40.4668 51.4608 40.8848 51.6977 42.8215H53.0169" stroke="white" stroke-width="0.186584" stroke-linecap="round" stroke-linejoin="round"/>
<path d="M51.9982 42.8214L51.6978 43.5211L51.9982 44.6406L51.5168 45.5735" stroke="white" stroke-width="0.186584" stroke-linecap="round" stroke-linejoin="round"/>
<path d="M51.9981 44.6406H53.0169" stroke="white" stroke-width="0.186584" stroke-linecap="round" stroke-linejoin="round"/>
<path d="M51.6977 43.5212H53.0168" stroke="white" stroke-width="0.186584" stroke-linecap="round" stroke-linejoin="round"/>
<path d="M53.0318 38.2278H51.3301" stroke="white" stroke-width="0.186584" stroke-linecap="round" stroke-linejoin="round"/>
<path d="M47.5983 43.5212H51.1546" stroke="white" stroke-width="0.186584" stroke-linecap="round" stroke-linejoin="round"/>
<path d="M53.017 39.4163H48.8916" stroke="white" stroke-width="0.186584" stroke-linecap="round" stroke-linejoin="round"/>
<path d="M53.0168 38.8099H49.6453" stroke="white" stroke-width="0.186584" stroke-linecap="round" stroke-linejoin="round"/>
<path d="M53.0317 36.9683H51.7573" stroke="white" stroke-width="0.186584" stroke-linecap="round" stroke-linejoin="round"/>
<path d="M51.9084 37.4815V37.8304" stroke="white" stroke-width="0.186584" stroke-linecap="round" stroke-linejoin="round"/>
<path d="M52.5076 37.4815V37.8304" stroke="white" stroke-width="0.186584" stroke-linecap="round" stroke-linejoin="round"/>
<path d="M53.0319 32.3728C52.7296 32.3728 52.5076 33.4699 52.5076 35.5671" stroke="white" stroke-width="0.186584" stroke-linecap="round" stroke-linejoin="round"/>
<path d="M52.6474 33.2347C52.4962 32.5817 51.9589 32.4194 51.6734 32.6059C51.3879 32.7925 51.47 33.1899 51.5167 33.3765C51.5633 33.5631 51.9981 33.5389 51.9981 33.9699C51.9915 34.5081 52.0542 35.0448 52.1846 35.567" stroke="white" stroke-width="0.186584" stroke-linecap="round" stroke-linejoin="round"/>
<path d="M43.6559 58.0281V59.1476H43.9805V59.5917H44.2306V60.0582H44.3873V67.988H44.1503V69.0142H44.822" stroke="white" stroke-width="0.186584" stroke-linecap="round" stroke-linejoin="round"/>
<path d="M42.7566 58.0281V59.1476H43.0812V59.5917H43.3313V60.0582H43.4861V67.988H43.251V69.0142H43.9227" stroke="white" stroke-width="0.186584" stroke-linecap="round" stroke-linejoin="round"/>
<path d="M45.9882 58.0281V59.1476H45.6635V59.5917H45.4135V60.0582H45.2568V67.988H45.4937V69.0142H44.822" stroke="white" stroke-width="0.186584" stroke-linecap="round" stroke-linejoin="round"/>
<path d="M46.9995 58.0281V59.1476H47.3242V59.5917H47.5723V60.0582H47.7309V67.988H47.494V69.0142H48.1657" stroke="white" stroke-width="0.186584" stroke-linecap="round" stroke-linejoin="round"/>
<path d="M49.3318 58.0281V59.1476H49.0053V59.5917H48.7571V60.0582H48.6004V67.988H48.8374V69.0142H48.1656" stroke="white" stroke-width="0.186584" stroke-linecap="round" stroke-linejoin="round"/>
<path d="M50.3411 58.0281V59.1476H50.6676V59.5917H50.9157V60.0582H51.0725V67.988H50.8355V69.0142H51.5072" stroke="white" stroke-width="0.186584" stroke-linecap="round" stroke-linejoin="round"/>
<path d="M52.6734 58.0281V59.1476H52.3487V59.5917H52.0987V60.0582H51.9438V67.988H52.1789V69.0142H51.5072" stroke="white" stroke-width="0.186584" stroke-linecap="round" stroke-linejoin="round"/>
<path d="M52.6734 59.1475H53.0167" stroke="white" stroke-width="0.186584" stroke-linecap="round" stroke-linejoin="round"/>
<path d="M50.3412 59.1475H49.3318" stroke="white" stroke-width="0.186584" stroke-linecap="round" stroke-linejoin="round"/>
<path d="M46.9995 59.1475H45.9882" stroke="white" stroke-width="0.186584" stroke-linecap="round" stroke-linejoin="round"/>
<path d="M53.0167 69.0141H42.5829" stroke="white" stroke-width="0.186584" stroke-linecap="round" stroke-linejoin="round"/>
<path d="M41.9298 70.3428H42.5829V68.2661H41.9298V70.3428Z" stroke="white" stroke-width="0.186584" stroke-linecap="round" stroke-linejoin="round"/>
<path d="M39.0138 71.9753H39.6668V69.8986H39.0138V71.9753Z" stroke="white" stroke-width="0.186584" stroke-linecap="round" stroke-linejoin="round"/>
<path d="M37.0321 73.0127V70.9378H36.379" stroke="white" stroke-width="0.186584" stroke-linecap="round" stroke-linejoin="round"/>
<path d="M37.032 71.9753H53.0167" stroke="white" stroke-width="0.186584" stroke-linecap="round" stroke-linejoin="round"/>
<path d="M39.6685 70.3428H53.0168" stroke="white" stroke-width="0.186584" stroke-linecap="round" stroke-linejoin="round"/>
<path d="M41.9299 68.2679C41.6034 69.059 40.997 69.8296 39.6685 69.8987" stroke="white" stroke-width="0.186584" stroke-linecap="round" stroke-linejoin="round"/>
<path d="M39.0154 69.8986C38.8296 70.2528 38.5402 70.542 38.1859 70.7277C37.8315 70.9134 37.4291 70.9867 37.032 70.9379" stroke="white" stroke-width="0.186584" stroke-linecap="round" stroke-linejoin="round"/>
<path d="M37.9183 54.4605H43.4692L43.9226 53.5034" stroke="white" stroke-width="0.186584" stroke-linecap="round" stroke-linejoin="round"/>
<path d="M36.379 56.3022H42.4654" stroke="white" stroke-width="0.186584" stroke-linecap="round" stroke-linejoin="round"/>
<path d="M37.8251 56.3022V70.8763" stroke="white" stroke-width="0.186584" stroke-linecap="round" stroke-linejoin="round"/>
<path d="M38.4781 51.7309H41.2544" stroke="white" stroke-width="0.186584" stroke-linecap="round" stroke-linejoin="round"/>
<path d="M41.2545 51.1245H38.549" stroke="white" stroke-width="0.186584" stroke-linecap="round" stroke-linejoin="round"/>
<path d="M38.0827 53.3168H41.2546" stroke="white" stroke-width="0.186584" stroke-linecap="round" stroke-linejoin="round"/>
<path d="M41.2546 49.072C41.2546 49.072 40.2508 49.4676 40.5083 50.3781H41.2546" stroke="white" stroke-width="0.186584" stroke-linecap="round" stroke-linejoin="round"/>
<path d="M40.5081 50.3781L39.995 51.1245" stroke="white" stroke-width="0.186584" stroke-linecap="round" stroke-linejoin="round"/>
<path d="M44.0289 51.7309H41.2544" stroke="white" stroke-width="0.186584" stroke-linecap="round" stroke-linejoin="round"/>
<path d="M41.2544 51.1245H43.9598" stroke="white" stroke-width="0.186584" stroke-linecap="round" stroke-linejoin="round"/>
<path d="M43.6557 53.3168H41.2544" stroke="white" stroke-width="0.186584" stroke-linecap="round" stroke-linejoin="round"/>
<path d="M41.2544 49.072C41.2544 49.072 42.2563 49.4676 42.0007 50.3781H41.2544" stroke="white" stroke-width="0.186584" stroke-linecap="round" stroke-linejoin="round"/>
<path d="M42.0009 50.3781L42.514 51.1245" stroke="white" stroke-width="0.186584" stroke-linecap="round" stroke-linejoin="round"/>
<path d="M39.7637 50.3781H37.9426" stroke="white" stroke-width="0.186584" stroke-linecap="round" stroke-linejoin="round"/>
<path d="M44.5663 50.4248H42.7453" stroke="white" stroke-width="0.186584" stroke-linecap="round" stroke-linejoin="round"/>
<path d="M40.8572 61.4799H40.0885C39.3888 61.4799 39.8086 62.9017 38.8981 62.9017H40.8572" stroke="white" stroke-width="0.186584" stroke-linecap="round" stroke-linejoin="round"/>
<path d="M39.7151 62.9017V64.8609" stroke="white" stroke-width="0.186584" stroke-linecap="round" stroke-linejoin="round"/>
<path d="M40.8572 64.8608H39.2489V66.2844H40.8572" stroke="white" stroke-width="0.186584" stroke-linecap="round" stroke-linejoin="round"/>
<path d="M39.7133 67.0066H40.2208V66.2826H39.7133V67.0066Z" stroke="white" stroke-width="0.186584" stroke-linecap="round" stroke-linejoin="round"/>
<path d="M40.0884 61.4799C38.7356 59.6364 40.8571 59.823 40.8571 58.6811" stroke="white" stroke-width="0.186584" stroke-linecap="round" stroke-linejoin="round"/>
<path d="M40.857 61.4799H41.6276C42.3272 61.4799 41.9074 62.9017 42.8161 62.9017H40.857" stroke="white" stroke-width="0.186584" stroke-linecap="round" stroke-linejoin="round"/>
<path d="M42.0009 62.9017V64.8609" stroke="white" stroke-width="0.186584" stroke-linecap="round" stroke-linejoin="round"/>
<path d="M40.857 64.8608H42.4672V66.2844H40.857" stroke="white" stroke-width="0.186584" stroke-linecap="round" stroke-linejoin="round"/>
<path d="M42.001 66.2845H41.4935V67.0085H42.001V66.2845Z" stroke="white" stroke-width="0.186584" stroke-linecap="round" stroke-linejoin="round"/>
<path d="M41.6276 61.4799C42.9803 59.6364 40.857 59.823 40.857 58.6811" stroke="white" stroke-width="0.186584" stroke-linecap="round" stroke-linejoin="round"/>
<path d="M42.8872 65.747H38.8981" stroke="white" stroke-width="0.186584" stroke-linecap="round" stroke-linejoin="round"/>
<path d="M40.5232 64.8608H41.2602V62.9017H40.5232V64.8608Z" stroke="white" stroke-width="0.186584" stroke-linecap="round" stroke-linejoin="round"/>
<path d="M48.6002 65.0717H51.0725V63.8813H48.6002V65.0717Z" stroke="white" stroke-width="0.186584" stroke-linecap="round" stroke-linejoin="round"/>
<path d="M45.2659 65.0717H47.7381V63.8813H45.2659V65.0717Z" stroke="white" stroke-width="0.186584" stroke-linecap="round" stroke-linejoin="round"/>
<path d="M42.5829 69.7045H53.0167" stroke="white" stroke-width="0.186584" stroke-linecap="round" stroke-linejoin="round"/>
<path d="M39.6685 71.1357H53.0168" stroke="white" stroke-width="0.186584" stroke-linecap="round" stroke-linejoin="round"/>
<path d="M68.1133 54.4606H69.3112L67.9584 53.3168L67.5535 52.4305V51.7309H68.5797L67.4845 51.1245C68.7663 48.6765 65.1522 48.5832 64.779 46.4375C64.4059 48.5832 60.7899 48.6765 62.0736 51.1245L60.9764 51.7309H62.0026V52.4305L61.9915 52.4641C61.9034 52.4329 61.8091 52.4231 61.7164 52.4358C61.6238 52.4484 61.5355 52.483 61.459 52.5367C61.3825 52.5904 61.3199 52.6616 61.2765 52.7444C61.2332 52.8272 61.2102 52.9192 61.2097 53.0127C61.2098 53.1102 61.2342 53.2062 61.2808 53.2919C61.3274 53.3776 61.3947 53.4503 61.4765 53.5034V53.5034L61.0231 54.4606L59.9278 52.5462H60.2544L59.7954 51.1245V48.4656L60.5417 47.1595H61.038L60.6648 46.5755H58.6479V45.5736H58.3885L59.0173 43.5212H58.4352C59.4838 40.769 54.7035 38.2278 54.7035 38.2278V36.9664H54.2743V35.5671H53.528L53.0186 35.1006L52.5092 35.5671H51.7629V36.9664H51.3319V38.2278C51.3319 38.2278 46.5479 40.769 47.5965 43.5212H47.0143L47.6431 45.5736H47.3838V46.5755H45.3817L45.0086 47.1595H45.5067L46.2437 48.4656V51.1245L45.7773 52.5462H46.1038L45.0086 54.4606L44.5552 53.5034C44.6603 53.4347 44.7405 53.3339 44.7838 53.216C44.8271 53.0981 44.8313 52.9694 44.7957 52.849C44.7601 52.7285 44.6866 52.6228 44.5861 52.5474C44.4856 52.472 44.3636 52.431 44.238 52.4305C44.1743 52.4311 44.1112 52.4424 44.0514 52.4641L44.029 52.4305V51.7309H45.0552L43.9581 51.1245C45.2418 48.6765 41.6258 48.5832 41.2526 46.4375C40.8794 48.5832 37.2653 48.6765 38.5471 51.1245L37.4519 51.7309H38.4781V52.4305L38.0807 53.3168L36.7279 54.4606H37.9183L36.379 56.3022V73.0127H69.6526V56.3022L68.1133 54.4606Z" stroke="white" stroke-width="0.284813" stroke-linecap="round" stroke-linejoin="round"/>
</g>
</g>
<defs>
<filter id="filter0_d_2902_18308" x="0.0833366" y="0.0833366" width="105.833" height="105.833" filterUnits="userSpaceOnUse" color-interpolation-filters="sRGB">
<feFlood flood-opacity="0" result="BackgroundImageFix"/>
<feColorMatrix in="SourceAlpha" type="matrix" values="0 0 0 0 0 0 0 0 0 0 0 0 0 0 0 0 0 0 127 0" result="hardAlpha"/>
<feMorphology radius="2.1828" operator="erode" in="SourceAlpha" result="effect1_dropShadow_2902_18308"/>
<feOffset/>
<feGaussianBlur stdDeviation="9.54973"/>
<feComposite in2="hardAlpha" operator="out"/>
<feColorMatrix type="matrix" values="0 0 0 0 0 0 0 0 0 0 0 0 0 0 0 0 0 0 0.13 0"/>
<feBlend mode="normal" in2="BackgroundImageFix" result="effect1_dropShadow_2902_18308"/>
<feBlend mode="normal" in="SourceGraphic" in2="effect1_dropShadow_2902_18308" result="shape"/>
</filter>
<clipPath id="clip0_2902_18308">
<rect width="33.8333" height="41.0131" fill="white" transform="translate(36.0994 32.2796)"/>
</clipPath>
</defs>
</svg>
