<svg width="106" height="106" viewBox="0 0 106 106" fill="none" xmlns="http://www.w3.org/2000/svg">
<g filter="url(#filter0_d_2902_9859)">
<rect x="17" y="17" width="72" height="72" rx="24" fill="#21191B"/>
<g clip-path="url(#clip0_2902_9859)">
<path d="M37.0638 59.4218H52.6279" stroke="white" stroke-width="0.137785" stroke-linecap="round" stroke-linejoin="round"/>
<path d="M52.6282 61.1582H34.1816" stroke="white" stroke-width="0.137785" stroke-linecap="round" stroke-linejoin="round"/>
<path d="M34.1816 61.6602H52.6282" stroke="white" stroke-width="0.137785" stroke-linecap="round" stroke-linejoin="round"/>
<path d="M34.1813 63.4354H52.6279" stroke="white" stroke-width="0.137785" stroke-linecap="round" stroke-linejoin="round"/>
<path d="M52.6282 62.9336H34.1816" stroke="white" stroke-width="0.137785" stroke-linecap="round" stroke-linejoin="round"/>
<path d="M37.0044 72.1562H34.1812V72.8893H37.0044V72.1562Z" stroke="white" stroke-width="0.137785" stroke-linecap="round" stroke-linejoin="round"/>
<path d="M37.0762 72.8906H52.6279" stroke="white" stroke-width="0.137785" stroke-linecap="round" stroke-linejoin="round"/>
<path d="M34.1813 59.4218L35.3346 61.1579" stroke="white" stroke-width="0.137785" stroke-linecap="round" stroke-linejoin="round"/>
<path d="M35.3346 59.4218L34.1813 61.1579" stroke="white" stroke-width="0.137785" stroke-linecap="round" stroke-linejoin="round"/>
<path d="M35.3345 59.4218L36.4877 61.1579" stroke="white" stroke-width="0.137785" stroke-linecap="round" stroke-linejoin="round"/>
<path d="M36.4877 59.4218L35.3345 61.1579" stroke="white" stroke-width="0.137785" stroke-linecap="round" stroke-linejoin="round"/>
<path d="M36.4879 59.4218L37.6398 61.1579" stroke="white" stroke-width="0.137785" stroke-linecap="round" stroke-linejoin="round"/>
<path d="M37.6398 59.4218L36.4879 61.1579" stroke="white" stroke-width="0.137785" stroke-linecap="round" stroke-linejoin="round"/>
<path d="M38.793 61.1579L37.6397 59.4218" stroke="white" stroke-width="0.137785" stroke-linecap="round" stroke-linejoin="round"/>
<path d="M38.793 59.4218L37.6397 61.1579" stroke="white" stroke-width="0.137785" stroke-linecap="round" stroke-linejoin="round"/>
<path d="M38.7928 59.4218L39.9461 61.1579" stroke="white" stroke-width="0.137785" stroke-linecap="round" stroke-linejoin="round"/>
<path d="M39.9461 59.4218L38.7928 61.1579" stroke="white" stroke-width="0.137785" stroke-linecap="round" stroke-linejoin="round"/>
<path d="M39.9463 59.4218L41.0995 61.1579" stroke="white" stroke-width="0.137785" stroke-linecap="round" stroke-linejoin="round"/>
<path d="M41.0995 59.4218L39.9463 61.1579" stroke="white" stroke-width="0.137785" stroke-linecap="round" stroke-linejoin="round"/>
<path d="M41.0994 59.4218L42.2513 61.1579" stroke="white" stroke-width="0.137785" stroke-linecap="round" stroke-linejoin="round"/>
<path d="M42.2513 59.4218L41.0994 61.1579" stroke="white" stroke-width="0.137785" stroke-linecap="round" stroke-linejoin="round"/>
<path d="M42.2512 59.4218L43.4045 61.1579" stroke="white" stroke-width="0.137785" stroke-linecap="round" stroke-linejoin="round"/>
<path d="M43.4045 59.4218L42.2512 61.1579" stroke="white" stroke-width="0.137785" stroke-linecap="round" stroke-linejoin="round"/>
<path d="M43.4047 59.4218L44.558 61.1579" stroke="white" stroke-width="0.137785" stroke-linecap="round" stroke-linejoin="round"/>
<path d="M44.558 59.4218L43.4047 61.1579" stroke="white" stroke-width="0.137785" stroke-linecap="round" stroke-linejoin="round"/>
<path d="M44.5579 59.4218L45.7111 61.1579" stroke="white" stroke-width="0.137785" stroke-linecap="round" stroke-linejoin="round"/>
<path d="M45.7111 59.4218L44.5579 61.1579" stroke="white" stroke-width="0.137785" stroke-linecap="round" stroke-linejoin="round"/>
<path d="M45.711 59.4218L46.8629 61.1579" stroke="white" stroke-width="0.137785" stroke-linecap="round" stroke-linejoin="round"/>
<path d="M46.8629 59.4218L45.711 61.1579" stroke="white" stroke-width="0.137785" stroke-linecap="round" stroke-linejoin="round"/>
<path d="M46.8631 59.4218L48.0164 61.1579" stroke="white" stroke-width="0.137785" stroke-linecap="round" stroke-linejoin="round"/>
<path d="M48.0164 59.4218L46.8631 61.1579" stroke="white" stroke-width="0.137785" stroke-linecap="round" stroke-linejoin="round"/>
<path d="M48.0162 59.4218L49.1695 61.1579" stroke="white" stroke-width="0.137785" stroke-linecap="round" stroke-linejoin="round"/>
<path d="M49.1695 59.4218L48.0162 61.1579" stroke="white" stroke-width="0.137785" stroke-linecap="round" stroke-linejoin="round"/>
<path d="M49.1694 59.4218L50.3226 61.1579" stroke="white" stroke-width="0.137785" stroke-linecap="round" stroke-linejoin="round"/>
<path d="M50.3226 59.4218L49.1694 61.1579" stroke="white" stroke-width="0.137785" stroke-linecap="round" stroke-linejoin="round"/>
<path d="M50.3229 59.4218L51.4761 61.1579" stroke="white" stroke-width="0.137785" stroke-linecap="round" stroke-linejoin="round"/>
<path d="M51.4761 59.4218L50.3229 61.1579" stroke="white" stroke-width="0.137785" stroke-linecap="round" stroke-linejoin="round"/>
<path d="M51.476 59.4218L52.6279 61.1579" stroke="white" stroke-width="0.137785" stroke-linecap="round" stroke-linejoin="round"/>
<path d="M52.6279 59.4218L51.476 61.1579" stroke="white" stroke-width="0.137785" stroke-linecap="round" stroke-linejoin="round"/>
<path d="M52.6284 64.6445H49.6191V72.8896" stroke="white" stroke-width="0.137785" stroke-linecap="round" stroke-linejoin="round"/>
<path d="M52.6279 65.1855C52.6279 65.3908 49.8474 65.7257 50.5735 67.4493C50.1863 67.7966 50.2097 68.1383 50.2097 68.5034V72.8905" stroke="white" stroke-width="0.137785" stroke-linecap="round" stroke-linejoin="round"/>
<path d="M52.6279 64.6445H55.6385V72.8896" stroke="white" stroke-width="0.137785" stroke-linecap="round" stroke-linejoin="round"/>
<path d="M52.6279 65.1855C52.6279 65.3908 55.4084 65.7257 54.6837 67.4493C55.0709 67.7966 55.0461 68.1383 55.0461 68.5034V72.8905" stroke="white" stroke-width="0.137785" stroke-linecap="round" stroke-linejoin="round"/>
<path d="M46.0166 64.6445H43.3105V72.8896" stroke="white" stroke-width="0.137785" stroke-linecap="round" stroke-linejoin="round"/>
<path d="M46.0156 65.1855C46.0156 65.3908 43.5864 65.7257 44.2244 67.4493C43.8868 67.7966 43.9075 68.1383 43.9075 68.5034V72.8905" stroke="white" stroke-width="0.137785" stroke-linecap="round" stroke-linejoin="round"/>
<path d="M46.0166 64.6445H48.7199V72.8896" stroke="white" stroke-width="0.137785" stroke-linecap="round" stroke-linejoin="round"/>
<path d="M46.0156 65.1855C46.0156 65.3908 48.4461 65.7257 47.8068 67.4493C48.1444 67.7966 48.1237 68.1383 48.1237 68.5034V72.8905" stroke="white" stroke-width="0.137785" stroke-linecap="round" stroke-linejoin="round"/>
<path d="M39.7092 64.6445H37.0059V72.8896" stroke="white" stroke-width="0.137785" stroke-linecap="round" stroke-linejoin="round"/>
<path d="M39.7094 65.1855C39.7094 65.3908 37.2803 65.7257 37.9182 67.4493C37.5807 67.7966 37.6013 68.1383 37.6013 68.5034V72.8905" stroke="white" stroke-width="0.137785" stroke-linecap="round" stroke-linejoin="round"/>
<path d="M39.709 64.6445H42.4137V72.8896" stroke="white" stroke-width="0.137785" stroke-linecap="round" stroke-linejoin="round"/>
<path d="M39.709 65.1855C39.709 65.3908 42.1395 65.7257 41.5002 67.4493C41.8378 67.7966 41.8171 68.1383 41.8171 68.5034V72.8905" stroke="white" stroke-width="0.137785" stroke-linecap="round" stroke-linejoin="round"/>
<path d="M52.6281 64.0273H35.0303" stroke="white" stroke-width="0.137785" stroke-linecap="round" stroke-linejoin="round"/>
<path d="M38.2168 57.6484V59.4231" stroke="white" stroke-width="0.137785" stroke-linecap="round" stroke-linejoin="round"/>
<path d="M39.3701 57.6484V59.4231" stroke="white" stroke-width="0.137785" stroke-linecap="round" stroke-linejoin="round"/>
<path d="M40.5225 57.6484V59.4231" stroke="white" stroke-width="0.137785" stroke-linecap="round" stroke-linejoin="round"/>
<path d="M41.6753 57.6484V59.4231" stroke="white" stroke-width="0.137785" stroke-linecap="round" stroke-linejoin="round"/>
<path d="M42.8291 57.6484V59.4231" stroke="white" stroke-width="0.137785" stroke-linecap="round" stroke-linejoin="round"/>
<path d="M43.9819 57.6484V59.4231" stroke="white" stroke-width="0.137785" stroke-linecap="round" stroke-linejoin="round"/>
<path d="M45.1338 57.6484V59.4231" stroke="white" stroke-width="0.137785" stroke-linecap="round" stroke-linejoin="round"/>
<path d="M46.2871 57.6484V59.4231" stroke="white" stroke-width="0.137785" stroke-linecap="round" stroke-linejoin="round"/>
<path d="M47.4404 57.6484V59.4231" stroke="white" stroke-width="0.137785" stroke-linecap="round" stroke-linejoin="round"/>
<path d="M48.5938 57.6484V59.4231" stroke="white" stroke-width="0.137785" stroke-linecap="round" stroke-linejoin="round"/>
<path d="M49.7456 57.6484V59.4231" stroke="white" stroke-width="0.137785" stroke-linecap="round" stroke-linejoin="round"/>
<path d="M50.8984 57.6484V59.4231" stroke="white" stroke-width="0.137785" stroke-linecap="round" stroke-linejoin="round"/>
<path d="M52.0518 57.6484V59.4231" stroke="white" stroke-width="0.137785" stroke-linecap="round" stroke-linejoin="round"/>
<path d="M45.1337 56.199H52.6278" stroke="white" stroke-width="0.137785" stroke-linecap="round" stroke-linejoin="round"/>
<path d="M45.8945 55.6016H52.6281" stroke="white" stroke-width="0.137785" stroke-linecap="round" stroke-linejoin="round"/>
<path d="M46.1396 55.0039H52.6279" stroke="white" stroke-width="0.137785" stroke-linecap="round" stroke-linejoin="round"/>
<path d="M52.6281 55.6016H45.8945" stroke="white" stroke-width="0.137785" stroke-linecap="round" stroke-linejoin="round"/>
<path d="M45.711 57.0878H52.6278" stroke="white" stroke-width="0.137785" stroke-linecap="round" stroke-linejoin="round"/>
<path d="M46.4224 50.6113C46.4224 50.9709 46.6979 50.9709 46.6979 51.4215V55.0039" stroke="white" stroke-width="0.137785" stroke-linecap="round" stroke-linejoin="round"/>
<path d="M48.9035 50.6113C48.9035 50.9709 48.6279 50.9709 48.6279 51.4215V55.0039" stroke="white" stroke-width="0.137785" stroke-linecap="round" stroke-linejoin="round"/>
<path d="M48.9033 50.6113C48.9033 50.9709 49.1872 50.9709 49.1872 51.4215V55.0039" stroke="white" stroke-width="0.137785" stroke-linecap="round" stroke-linejoin="round"/>
<path d="M48.6212 52.0762H46.7046V55.0027H48.6212V52.0762Z" stroke="white" stroke-width="0.137785" stroke-linecap="round" stroke-linejoin="round"/>
<path d="M47.6625 52.5C47.6625 52.6929 47.1113 52.8348 47.2629 53.3364C47.07 53.5389 47.1044 53.8517 47.1044 54.1079V55.0022" stroke="white" stroke-width="0.137785" stroke-linecap="round" stroke-linejoin="round"/>
<path d="M47.6621 52.5C47.6621 52.6929 48.2215 52.8348 48.0631 53.3364C48.256 53.5389 48.2215 53.8517 48.2215 54.1079V55.0022" stroke="white" stroke-width="0.137785" stroke-linecap="round" stroke-linejoin="round"/>
<path d="M51.3865 50.6113C51.3865 50.9709 51.104 50.9709 51.104 51.4215V55.0039" stroke="white" stroke-width="0.137785" stroke-linecap="round" stroke-linejoin="round"/>
<path d="M51.3867 50.6113C51.3867 50.9709 51.6706 50.9709 51.6706 51.4215V55.0039" stroke="white" stroke-width="0.137785" stroke-linecap="round" stroke-linejoin="round"/>
<path d="M51.1041 52.0762H49.1875V55.0027H51.1041V52.0762Z" stroke="white" stroke-width="0.137785" stroke-linecap="round" stroke-linejoin="round"/>
<path d="M50.1449 52.5C50.1449 52.6929 49.5938 52.8348 49.744 53.3364C49.5524 53.5389 49.5869 53.8517 49.5869 54.1079V55.0022" stroke="white" stroke-width="0.137785" stroke-linecap="round" stroke-linejoin="round"/>
<path d="M50.145 52.5C50.145 52.6929 50.7044 52.8348 50.546 53.3364C50.7389 53.5389 50.7044 53.8517 50.7044 54.1079V55.0022" stroke="white" stroke-width="0.137785" stroke-linecap="round" stroke-linejoin="round"/>
<path d="M53.8694 50.6113C53.8694 50.9709 53.5869 50.9709 53.5869 51.4215V55.0039" stroke="white" stroke-width="0.137785" stroke-linecap="round" stroke-linejoin="round"/>
<path d="M53.8691 50.6113C53.8691 50.9709 54.153 50.9709 54.153 51.4215V55.0039" stroke="white" stroke-width="0.137785" stroke-linecap="round" stroke-linejoin="round"/>
<path d="M53.5865 52.0762H51.6699V55.0027H53.5865V52.0762Z" stroke="white" stroke-width="0.137785" stroke-linecap="round" stroke-linejoin="round"/>
<path d="M52.6278 52.5C52.6278 52.6929 52.0767 52.8348 52.2269 53.3364C52.0353 53.5389 52.0698 53.8517 52.0698 54.1079V55.0022" stroke="white" stroke-width="0.137785" stroke-linecap="round" stroke-linejoin="round"/>
<path d="M52.6279 52.5C52.6279 52.6929 53.1873 52.8348 53.0289 53.3364C53.2204 53.5389 53.1873 53.8517 53.1873 54.1079V55.0022" stroke="white" stroke-width="0.137785" stroke-linecap="round" stroke-linejoin="round"/>
<path d="M48.8128 50.9102H46.5132" stroke="white" stroke-width="0.137785" stroke-linecap="round" stroke-linejoin="round"/>
<path d="M48.9961 50.9102H51.2957" stroke="white" stroke-width="0.137785" stroke-linecap="round" stroke-linejoin="round"/>
<path d="M51.4785 50.9102H53.7781" stroke="white" stroke-width="0.137785" stroke-linecap="round" stroke-linejoin="round"/>
<path d="M46.8521 50.1484H52.628" stroke="white" stroke-width="0.137785" stroke-linecap="round" stroke-linejoin="round"/>
<path d="M46.7045 49.453H52.6278" stroke="white" stroke-width="0.137785" stroke-linecap="round" stroke-linejoin="round"/>
<path d="M46.7046 49.4521H48.6212V46.0488H46.7046" stroke="white" stroke-width="0.137785" stroke-linecap="round" stroke-linejoin="round"/>
<path d="M48.0618 46.0488H47.2627V49.4507H48.0618V46.0488Z" stroke="white" stroke-width="0.137785" stroke-linecap="round" stroke-linejoin="round"/>
<path d="M46.703 46.0493H48.9957V44.3477H46.3296" stroke="white" stroke-width="0.137785" stroke-linecap="round" stroke-linejoin="round"/>
<path d="M48.2189 44.3477H47.1069V46.0493H48.2189V44.3477Z" stroke="white" stroke-width="0.137785" stroke-linecap="round" stroke-linejoin="round"/>
<path d="M47.0132 43.3496H47.6621" stroke="white" stroke-width="0.137785" stroke-linecap="round" stroke-linejoin="round"/>
<path d="M48.3125 43.3496H47.6621" stroke="white" stroke-width="0.137785" stroke-linecap="round" stroke-linejoin="round"/>
<path d="M52.6279 40.4531C51.9293 40.4531 51.6138 41.0897 51.6138 41.0897V43.348" stroke="white" stroke-width="0.137785" stroke-linecap="round" stroke-linejoin="round"/>
<path d="M53.3277 39.2967C53.3277 39.626 53.0136 39.8947 52.6278 39.8947C52.242 39.8947 51.9292 39.626 51.9292 39.2967C51.9292 38.9674 52.6278 38.2344 52.6278 38.2344C52.6278 38.2344 53.3277 38.966 53.3277 39.2967Z" stroke="white" stroke-width="0.137785" stroke-linecap="round" stroke-linejoin="round"/>
<path d="M52.1911 39.7617L51.6138 41.09" stroke="white" stroke-width="0.137785" stroke-linecap="round" stroke-linejoin="round"/>
<path d="M52.6279 40.4531C53.3279 40.4531 53.6434 41.0897 53.6434 41.0897V43.348" stroke="white" stroke-width="0.137785" stroke-linecap="round" stroke-linejoin="round"/>
<path d="M53.0645 39.7617L53.6432 41.09" stroke="white" stroke-width="0.137785" stroke-linecap="round" stroke-linejoin="round"/>
<path d="M50.5981 40.4531C49.8995 40.4531 49.584 41.0897 49.584 41.0897" stroke="white" stroke-width="0.137785" stroke-linecap="round" stroke-linejoin="round"/>
<path d="M51.0352 38.7617C51.173 38.9574 51.2983 39.164 51.2983 39.3018C51.2983 39.6311 50.9856 39.8998 50.5984 39.8998C50.4422 39.8993 50.2898 39.8513 50.1616 39.762" stroke="white" stroke-width="0.137785" stroke-linecap="round" stroke-linejoin="round"/>
<path d="M50.5986 40.4531C51.2986 40.4531 51.6141 41.0897 51.6141 41.0897V43.348" stroke="white" stroke-width="0.137785" stroke-linecap="round" stroke-linejoin="round"/>
<path d="M51.0366 39.7617L51.6139 41.09" stroke="white" stroke-width="0.137785" stroke-linecap="round" stroke-linejoin="round"/>
<path d="M51.0361 37.4258H52.6275" stroke="white" stroke-width="0.137785" stroke-linecap="round" stroke-linejoin="round"/>
<path d="M52.6279 45.1992C52.4162 45.2007 52.2092 45.2613 52.0301 45.374C51.8509 45.4866 51.7068 45.6471 51.6138 45.8372V48.4812H52.6279" stroke="white" stroke-width="0.137785" stroke-linecap="round" stroke-linejoin="round"/>
<path d="M52.6279 45.1992C52.8397 45.2008 53.0469 45.2613 53.2263 45.374C53.4056 45.4867 53.55 45.647 53.6434 45.8372V48.4812H52.6279" stroke="white" stroke-width="0.137785" stroke-linecap="round" stroke-linejoin="round"/>
<path d="M50.5981 45.1992C50.3864 45.2007 50.1794 45.2613 50.0003 45.374C49.8212 45.4866 49.677 45.6471 49.584 45.8372V48.4812H50.5981" stroke="white" stroke-width="0.137785" stroke-linecap="round" stroke-linejoin="round"/>
<path d="M50.5986 45.1992C50.8105 45.2007 51.0177 45.2611 51.1971 45.3738C51.3765 45.4865 51.5209 45.6469 51.6141 45.8372V48.4812H50.5986" stroke="white" stroke-width="0.137785" stroke-linecap="round" stroke-linejoin="round"/>
<path d="M46.5625 42.6016H48.7615" stroke="white" stroke-width="0.137785" stroke-linecap="round" stroke-linejoin="round"/>
<path d="M49.584 43.3496H52.6276" stroke="white" stroke-width="0.137785" stroke-linecap="round" stroke-linejoin="round"/>
<path d="M68.1919 59.4218H52.6277" stroke="white" stroke-width="0.137785" stroke-linecap="round" stroke-linejoin="round"/>
<path d="M52.6279 61.1582H71.0745" stroke="white" stroke-width="0.137785" stroke-linecap="round" stroke-linejoin="round"/>
<path d="M71.0745 61.6602H52.6279" stroke="white" stroke-width="0.137785" stroke-linecap="round" stroke-linejoin="round"/>
<path d="M71.0744 63.4354H52.6277" stroke="white" stroke-width="0.137785" stroke-linecap="round" stroke-linejoin="round"/>
<path d="M52.6279 62.9336H71.0745" stroke="white" stroke-width="0.137785" stroke-linecap="round" stroke-linejoin="round"/>
<path d="M68.251 72.8906H71.0742V72.1576H68.251V72.8906Z" stroke="white" stroke-width="0.137785" stroke-linecap="round" stroke-linejoin="round"/>
<path d="M68.1811 72.8906H52.6279" stroke="white" stroke-width="0.137785" stroke-linecap="round" stroke-linejoin="round"/>
<path d="M71.0747 59.4218L69.9228 61.1579" stroke="white" stroke-width="0.137785" stroke-linecap="round" stroke-linejoin="round"/>
<path d="M69.9228 59.4218L71.0747 61.1579" stroke="white" stroke-width="0.137785" stroke-linecap="round" stroke-linejoin="round"/>
<path d="M69.9225 59.4218L68.7693 61.1579" stroke="white" stroke-width="0.137785" stroke-linecap="round" stroke-linejoin="round"/>
<path d="M68.7693 59.4218L69.9225 61.1579" stroke="white" stroke-width="0.137785" stroke-linecap="round" stroke-linejoin="round"/>
<path d="M68.7694 59.4218L67.6161 61.1579" stroke="white" stroke-width="0.137785" stroke-linecap="round" stroke-linejoin="round"/>
<path d="M67.6161 59.4218L68.7694 61.1579" stroke="white" stroke-width="0.137785" stroke-linecap="round" stroke-linejoin="round"/>
<path d="M66.463 61.1579L67.6163 59.4218" stroke="white" stroke-width="0.137785" stroke-linecap="round" stroke-linejoin="round"/>
<path d="M66.463 59.4218L67.6163 61.1579" stroke="white" stroke-width="0.137785" stroke-linecap="round" stroke-linejoin="round"/>
<path d="M66.4628 59.4218L65.3109 61.1579" stroke="white" stroke-width="0.137785" stroke-linecap="round" stroke-linejoin="round"/>
<path d="M65.3109 59.4218L66.4628 61.1579" stroke="white" stroke-width="0.137785" stroke-linecap="round" stroke-linejoin="round"/>
<path d="M65.311 59.4218L64.1578 61.1579" stroke="white" stroke-width="0.137785" stroke-linecap="round" stroke-linejoin="round"/>
<path d="M64.1578 59.4218L65.311 61.1579" stroke="white" stroke-width="0.137785" stroke-linecap="round" stroke-linejoin="round"/>
<path d="M64.1579 59.4218L63.0046 61.1579" stroke="white" stroke-width="0.137785" stroke-linecap="round" stroke-linejoin="round"/>
<path d="M63.0046 59.4218L64.1579 61.1579" stroke="white" stroke-width="0.137785" stroke-linecap="round" stroke-linejoin="round"/>
<path d="M63.0044 59.4218L61.8511 61.1579" stroke="white" stroke-width="0.137785" stroke-linecap="round" stroke-linejoin="round"/>
<path d="M61.8511 59.4218L63.0044 61.1579" stroke="white" stroke-width="0.137785" stroke-linecap="round" stroke-linejoin="round"/>
<path d="M61.8513 59.4218L60.6994 61.1579" stroke="white" stroke-width="0.137785" stroke-linecap="round" stroke-linejoin="round"/>
<path d="M60.6994 59.4218L61.8513 61.1579" stroke="white" stroke-width="0.137785" stroke-linecap="round" stroke-linejoin="round"/>
<path d="M60.6992 59.4218L59.5459 61.1579" stroke="white" stroke-width="0.137785" stroke-linecap="round" stroke-linejoin="round"/>
<path d="M59.5459 59.4218L60.6992 61.1579" stroke="white" stroke-width="0.137785" stroke-linecap="round" stroke-linejoin="round"/>
<path d="M59.546 59.4218L58.3928 61.1579" stroke="white" stroke-width="0.137785" stroke-linecap="round" stroke-linejoin="round"/>
<path d="M58.3928 59.4218L59.546 61.1579" stroke="white" stroke-width="0.137785" stroke-linecap="round" stroke-linejoin="round"/>
<path d="M58.3929 59.4218L57.2396 61.1579" stroke="white" stroke-width="0.137785" stroke-linecap="round" stroke-linejoin="round"/>
<path d="M57.2396 59.4218L58.3929 61.1579" stroke="white" stroke-width="0.137785" stroke-linecap="round" stroke-linejoin="round"/>
<path d="M57.2398 59.4218L56.0879 61.1579" stroke="white" stroke-width="0.137785" stroke-linecap="round" stroke-linejoin="round"/>
<path d="M56.0879 59.4218L57.2398 61.1579" stroke="white" stroke-width="0.137785" stroke-linecap="round" stroke-linejoin="round"/>
<path d="M56.0876 59.4218L54.9344 61.1579" stroke="white" stroke-width="0.137785" stroke-linecap="round" stroke-linejoin="round"/>
<path d="M54.9344 59.4218L56.0876 61.1579" stroke="white" stroke-width="0.137785" stroke-linecap="round" stroke-linejoin="round"/>
<path d="M54.9345 59.4218L53.7812 61.1579" stroke="white" stroke-width="0.137785" stroke-linecap="round" stroke-linejoin="round"/>
<path d="M53.7812 59.4218L54.9345 61.1579" stroke="white" stroke-width="0.137785" stroke-linecap="round" stroke-linejoin="round"/>
<path d="M53.781 59.4218L52.6277 61.1579" stroke="white" stroke-width="0.137785" stroke-linecap="round" stroke-linejoin="round"/>
<path d="M52.6277 59.4218L53.781 61.1579" stroke="white" stroke-width="0.137785" stroke-linecap="round" stroke-linejoin="round"/>
<path d="M59.2402 64.6445H61.9449V72.8896" stroke="white" stroke-width="0.137785" stroke-linecap="round" stroke-linejoin="round"/>
<path d="M59.2402 65.1855C59.2402 65.3908 61.6694 65.7257 61.0314 67.4493C61.3704 67.7966 61.3483 68.1383 61.3483 68.5034V72.8905" stroke="white" stroke-width="0.137785" stroke-linecap="round" stroke-linejoin="round"/>
<path d="M59.2404 64.6445H56.5356V72.8896" stroke="white" stroke-width="0.137785" stroke-linecap="round" stroke-linejoin="round"/>
<path d="M59.2402 65.1855C59.2402 65.3908 56.8111 65.7257 57.449 67.4493C57.1101 67.7966 57.1321 68.1383 57.1321 68.5034V72.8905" stroke="white" stroke-width="0.137785" stroke-linecap="round" stroke-linejoin="round"/>
<path d="M65.5469 64.6445H68.2516V72.8896" stroke="white" stroke-width="0.137785" stroke-linecap="round" stroke-linejoin="round"/>
<path d="M65.5439 65.1855C65.5439 65.3908 67.9731 65.7257 67.3351 67.4493C67.6741 67.7966 67.6521 68.1383 67.6521 68.5034V72.8905" stroke="white" stroke-width="0.137785" stroke-linecap="round" stroke-linejoin="round"/>
<path d="M65.5465 64.6445H62.8418V72.8896" stroke="white" stroke-width="0.137785" stroke-linecap="round" stroke-linejoin="round"/>
<path d="M65.5439 65.1855C65.5439 65.3908 63.1148 65.7257 63.7527 67.4493C63.4151 67.7966 63.4358 68.1383 63.4358 68.5034V72.8905" stroke="white" stroke-width="0.137785" stroke-linecap="round" stroke-linejoin="round"/>
<path d="M52.6279 64.0273H70.2258" stroke="white" stroke-width="0.137785" stroke-linecap="round" stroke-linejoin="round"/>
<path d="M67.04 57.6484V59.4231" stroke="white" stroke-width="0.137785" stroke-linecap="round" stroke-linejoin="round"/>
<path d="M65.8867 57.6484V59.4231" stroke="white" stroke-width="0.137785" stroke-linecap="round" stroke-linejoin="round"/>
<path d="M64.7334 57.6484V59.4231" stroke="white" stroke-width="0.137785" stroke-linecap="round" stroke-linejoin="round"/>
<path d="M63.5806 57.6484V59.4231" stroke="white" stroke-width="0.137785" stroke-linecap="round" stroke-linejoin="round"/>
<path d="M62.4287 57.6484V59.4231" stroke="white" stroke-width="0.137785" stroke-linecap="round" stroke-linejoin="round"/>
<path d="M61.2754 57.6484V59.4231" stroke="white" stroke-width="0.137785" stroke-linecap="round" stroke-linejoin="round"/>
<path d="M60.1221 57.6484V59.4231" stroke="white" stroke-width="0.137785" stroke-linecap="round" stroke-linejoin="round"/>
<path d="M58.9688 57.6484V59.4231" stroke="white" stroke-width="0.137785" stroke-linecap="round" stroke-linejoin="round"/>
<path d="M57.8169 57.6484V59.4231" stroke="white" stroke-width="0.137785" stroke-linecap="round" stroke-linejoin="round"/>
<path d="M56.6641 57.6484V59.4231" stroke="white" stroke-width="0.137785" stroke-linecap="round" stroke-linejoin="round"/>
<path d="M55.5103 57.6484V59.4231" stroke="white" stroke-width="0.137785" stroke-linecap="round" stroke-linejoin="round"/>
<path d="M54.3574 57.6484V59.4231" stroke="white" stroke-width="0.137785" stroke-linecap="round" stroke-linejoin="round"/>
<path d="M53.2051 57.6484V59.4231" stroke="white" stroke-width="0.137785" stroke-linecap="round" stroke-linejoin="round"/>
<path d="M60.1219 56.199H52.6277" stroke="white" stroke-width="0.137785" stroke-linecap="round" stroke-linejoin="round"/>
<path d="M59.3628 55.6016H52.6279" stroke="white" stroke-width="0.137785" stroke-linecap="round" stroke-linejoin="round"/>
<path d="M59.1176 55.0039H52.6279" stroke="white" stroke-width="0.137785" stroke-linecap="round" stroke-linejoin="round"/>
<path d="M52.6279 55.6016H59.3628" stroke="white" stroke-width="0.137785" stroke-linecap="round" stroke-linejoin="round"/>
<path d="M59.5459 57.0878H52.6277" stroke="white" stroke-width="0.137785" stroke-linecap="round" stroke-linejoin="round"/>
<path d="M58.8352 50.6113C58.8352 50.9709 58.5527 50.9709 58.5527 51.4215V55.0039" stroke="white" stroke-width="0.137785" stroke-linecap="round" stroke-linejoin="round"/>
<path d="M56.3525 50.6113C56.3525 50.9709 56.635 50.9709 56.635 51.4215V55.0039" stroke="white" stroke-width="0.137785" stroke-linecap="round" stroke-linejoin="round"/>
<path d="M56.3522 50.6113C56.3522 50.9709 56.0767 50.9709 56.0767 51.4215V55.0039" stroke="white" stroke-width="0.137785" stroke-linecap="round" stroke-linejoin="round"/>
<path d="M56.6361 55.0039H58.5527V52.0774H56.6361V55.0039Z" stroke="white" stroke-width="0.137785" stroke-linecap="round" stroke-linejoin="round"/>
<path d="M57.5938 52.5C57.5938 52.6929 58.1532 52.8348 57.9947 53.3364C58.1862 53.5389 58.1532 53.8517 58.1532 54.1079V55.0022" stroke="white" stroke-width="0.137785" stroke-linecap="round" stroke-linejoin="round"/>
<path d="M57.5938 52.5C57.5938 52.6929 57.0344 52.8348 57.1929 53.3364C57.0013 53.5389 57.0344 53.8517 57.0344 54.1079V55.0022" stroke="white" stroke-width="0.137785" stroke-linecap="round" stroke-linejoin="round"/>
<path d="M54.1518 55.0039H56.0684V52.0774H54.1518V55.0039Z" stroke="white" stroke-width="0.137785" stroke-linecap="round" stroke-linejoin="round"/>
<path d="M55.1108 52.5C55.1108 52.6929 55.6702 52.8348 55.5118 53.3364C55.7033 53.5389 55.6702 53.8517 55.6702 54.1079V55.0022" stroke="white" stroke-width="0.137785" stroke-linecap="round" stroke-linejoin="round"/>
<path d="M55.1107 52.5C55.1107 52.6929 54.5527 52.8348 54.7098 53.3364C54.5183 53.5389 54.5527 53.8517 54.5527 54.1079V55.0022" stroke="white" stroke-width="0.137785" stroke-linecap="round" stroke-linejoin="round"/>
<path d="M56.4443 50.9102H58.7426" stroke="white" stroke-width="0.137785" stroke-linecap="round" stroke-linejoin="round"/>
<path d="M56.2615 50.9102H53.9619" stroke="white" stroke-width="0.137785" stroke-linecap="round" stroke-linejoin="round"/>
<path d="M58.4039 50.1484H52.6279" stroke="white" stroke-width="0.137785" stroke-linecap="round" stroke-linejoin="round"/>
<path d="M58.5525 49.453H52.6277" stroke="white" stroke-width="0.137785" stroke-linecap="round" stroke-linejoin="round"/>
<path d="M58.5527 49.4521H56.6348V46.0488H58.5527" stroke="white" stroke-width="0.137785" stroke-linecap="round" stroke-linejoin="round"/>
<path d="M57.1941 49.453H57.9933V46.0511H57.1941V49.453Z" stroke="white" stroke-width="0.137785" stroke-linecap="round" stroke-linejoin="round"/>
<path d="M58.5526 46.0493H56.2612V44.3477H58.926" stroke="white" stroke-width="0.137785" stroke-linecap="round" stroke-linejoin="round"/>
<path d="M57.0385 46.0508H58.1504V44.3491H57.0385V46.0508Z" stroke="white" stroke-width="0.137785" stroke-linecap="round" stroke-linejoin="round"/>
<path d="M58.2441 43.3496H57.5938" stroke="white" stroke-width="0.137785" stroke-linecap="round" stroke-linejoin="round"/>
<path d="M56.9443 43.3496H57.5933" stroke="white" stroke-width="0.137785" stroke-linecap="round" stroke-linejoin="round"/>
<path d="M54.6592 40.4531C55.3577 40.4531 55.6733 41.0897 55.6733 41.0897" stroke="white" stroke-width="0.137785" stroke-linecap="round" stroke-linejoin="round"/>
<path d="M54.2208 38.7617C54.083 38.9574 53.959 39.164 53.959 39.3018C53.959 39.6311 54.2718 39.8998 54.6576 39.8998C54.8138 39.8995 54.9662 39.8514 55.0943 39.762" stroke="white" stroke-width="0.137785" stroke-linecap="round" stroke-linejoin="round"/>
<path d="M54.6586 40.4531C53.9601 40.4531 53.6445 41.0897 53.6445 41.0897V43.348" stroke="white" stroke-width="0.137785" stroke-linecap="round" stroke-linejoin="round"/>
<path d="M54.2209 39.7617L53.6436 41.09" stroke="white" stroke-width="0.137785" stroke-linecap="round" stroke-linejoin="round"/>
<path d="M54.2207 37.4258H52.6279" stroke="white" stroke-width="0.137785" stroke-linecap="round" stroke-linejoin="round"/>
<path d="M54.6592 45.1992C54.8708 45.2007 55.0778 45.2613 55.257 45.374C55.4361 45.4866 55.5803 45.6471 55.6733 45.8372V48.4812H54.6592" stroke="white" stroke-width="0.137785" stroke-linecap="round" stroke-linejoin="round"/>
<path d="M54.6586 45.1992C54.447 45.2007 54.24 45.2613 54.0608 45.374C53.8817 45.4866 53.7375 45.6471 53.6445 45.8372V48.4812H54.6586" stroke="white" stroke-width="0.137785" stroke-linecap="round" stroke-linejoin="round"/>
<path d="M58.6932 42.6016H56.4941" stroke="white" stroke-width="0.137785" stroke-linecap="round" stroke-linejoin="round"/>
<path d="M55.6716 43.3496H52.6279" stroke="white" stroke-width="0.137785" stroke-linecap="round" stroke-linejoin="round"/>
<path d="M45.1338 57.6484H52.6279" stroke="white" stroke-width="0.413354" stroke-linecap="round" stroke-linejoin="round"/>
<path d="M60.122 57.6484H52.6279" stroke="white" stroke-width="0.413354" stroke-linecap="round" stroke-linejoin="round"/>
<path d="M71.8819 62.9353H71.0704V61.6622H71.8819L71.0704 61.1593V59.4301H68.192V57.6485H60.122V56.2004C59.7086 56.2004 59.6907 55.6024 59.3628 55.6024C59.6907 55.6024 59.71 55.0044 60.122 55.0044H59.1175V51.422C59.1175 50.9715 58.8351 50.9715 58.8351 50.6118L58.4038 50.1489L58.977 49.46H58.5526V46.0512H58.9302V44.3495L58.2412 43.3506C58.2412 43.3506 59.4964 42.2111 57.9905 41.0923C57.7769 40.5136 57.5909 39.8963 57.5909 39.8963C57.5909 39.8963 57.4049 40.5136 57.1913 41.0923C55.6881 42.207 56.9447 43.3506 56.9447 43.3506L56.2557 44.3495L55.666 43.3506V41.0923L55.0887 39.7641C55.1673 39.714 55.2323 39.6453 55.278 39.564C55.3236 39.4828 55.3486 39.3915 55.3505 39.2983C55.3505 38.9677 54.6519 38.236 54.6519 38.236C54.4981 38.4029 54.3541 38.5787 54.2207 38.7624V38.7624L53.9313 38.1038C54.027 38.0201 54.1027 37.916 54.1528 37.7991C54.2029 37.6822 54.2261 37.5556 54.2207 37.4286C55.3836 36.5027 54.3874 35.2117 52.6279 34.1094C50.8697 35.2117 49.8722 36.5027 51.0365 37.4286C51.031 37.5555 51.054 37.682 51.1038 37.7989C51.1537 37.9157 51.229 38.0199 51.3244 38.1038L51.0365 38.7624C50.9012 38.58 50.7553 38.4056 50.5997 38.2402C50.5997 38.2402 49.9011 38.9718 49.9011 39.3025C49.9031 39.3957 49.928 39.4869 49.9736 39.5681C50.0193 39.6494 50.0843 39.7181 50.1629 39.7682V39.7682L49.5856 41.0964V43.3506L48.9973 44.3495L48.3083 43.3506C48.3083 43.3506 49.5649 42.2111 48.0589 41.0923C47.8454 40.5136 47.658 39.8963 47.658 39.8963C47.658 39.8963 47.472 40.5136 47.2584 41.0923C45.7566 42.207 47.0132 43.3506 47.0132 43.3506L46.3242 44.3495V46.0512H46.6976V49.4545H46.2801L46.8519 50.1434L46.4221 50.6118C46.4221 50.9715 46.1382 50.9715 46.1382 51.422V55.0044H45.1338C45.5471 55.0044 45.5664 55.6024 45.8943 55.6024C45.5664 55.6024 45.5471 56.2004 45.1338 56.2004V57.6485H37.0637V59.4301H34.1813V61.1661L33.3711 61.6622H34.1813V62.9353H33.3711L34.1813 63.4368V72.8916H33.6412V73.5475H71.6146V72.8916H71.0745V63.4368L71.8819 62.9353Z" stroke="white" stroke-width="0.272849" stroke-linecap="round" stroke-linejoin="round"/>
<path d="M52.898 34.2539C52.8494 33.4326 52.7574 32.6144 52.6224 31.8027C52.4875 32.6144 52.3955 33.4326 52.3469 34.2539" stroke="white" stroke-width="0.137785" stroke-linecap="round" stroke-linejoin="round"/>
</g>
</g>
<defs>
<filter id="filter0_d_2902_9859" x="0.0833366" y="0.0833366" width="105.833" height="105.833" filterUnits="userSpaceOnUse" color-interpolation-filters="sRGB">
<feFlood flood-opacity="0" result="BackgroundImageFix"/>
<feColorMatrix in="SourceAlpha" type="matrix" values="0 0 0 0 0 0 0 0 0 0 0 0 0 0 0 0 0 0 127 0" result="hardAlpha"/>
<feMorphology radius="2.1828" operator="erode" in="SourceAlpha" result="effect1_dropShadow_2902_9859"/>
<feOffset/>
<feGaussianBlur stdDeviation="9.54973"/>
<feComposite in2="hardAlpha" operator="out"/>
<feColorMatrix type="matrix" values="0 0 0 0 0 0 0 0 0 0 0 0 0 0 0 0 0 0 0.13 0"/>
<feBlend mode="normal" in2="BackgroundImageFix" result="effect1_dropShadow_2902_9859"/>
<feBlend mode="normal" in="SourceGraphic" in2="effect1_dropShadow_2902_9859" result="shape"/>
</filter>
<clipPath id="clip0_2902_9859">
<rect width="38.9283" height="42.0188" fill="white" transform="translate(33.3711 31.7344)"/>
</clipPath>
</defs>
</svg>
