<svg width="32" height="22" viewBox="0 0 32 22" fill="none" xmlns="http://www.w3.org/2000/svg">
<path d="M26.7428 1.82368C24.767 0.979578 22.6482 0.357681 20.4329 0.00149416C20.3925 -0.00538013 20.3522 0.0117991 20.3314 0.0461583C20.0589 0.497402 19.7571 1.08609 19.5457 1.54879C17.163 1.21666 14.7925 1.21666 12.4587 1.54879C12.2473 1.0758 11.9345 0.497402 11.6607 0.0461583C11.64 0.0129455 11.5997 -0.00423374 11.5593 0.00149416C9.34522 0.356542 7.22643 0.978439 5.24937 1.82368C5.23226 1.83055 5.21759 1.84201 5.20785 1.85689C1.18896 7.44714 0.0880226 12.9 0.628108 18.2852C0.630551 18.3116 0.646436 18.3368 0.668431 18.3528C3.31998 20.1658 5.88846 21.2664 8.40924 21.996C8.44958 22.0075 8.49232 21.9937 8.518 21.9628C9.11429 21.2046 9.64583 20.4052 10.1016 19.5645C10.1285 19.5153 10.1028 19.4569 10.0478 19.4374C9.20471 19.1396 8.4019 18.7765 7.62965 18.3642C7.56857 18.331 7.56368 18.2497 7.61987 18.2107C7.78238 18.0974 7.94493 17.9794 8.10011 17.8603C8.12818 17.8385 8.1673 17.8339 8.20031 17.8477C13.2737 20.0043 18.7662 20.0043 23.7796 17.8477C23.8127 17.8328 23.8518 17.8374 23.8811 17.8591C24.0363 17.9783 24.1988 18.0974 24.3625 18.2107C24.4187 18.2497 24.4151 18.331 24.354 18.3642C23.5817 18.7845 22.7789 19.1396 21.9346 19.4362C21.8796 19.4557 21.8552 19.5153 21.8821 19.5645C22.3476 20.404 22.8791 21.2034 23.4644 21.9616C23.4889 21.9937 23.5328 22.0075 23.5732 21.996C26.1062 21.2664 28.6746 20.1658 31.3262 18.3528C31.3494 18.3368 31.3641 18.3127 31.3665 18.2864C32.0129 12.0604 30.2839 6.65231 26.7831 1.85803C26.7746 1.84201 26.7599 1.83055 26.7428 1.82368ZM10.8592 15.0062C9.33177 15.0062 8.07321 13.7005 8.07321 12.0971C8.07321 10.4937 9.30736 9.18803 10.8592 9.18803C12.4232 9.18803 13.6696 10.5051 13.6451 12.0971C13.6451 13.7005 12.411 15.0062 10.8592 15.0062ZM21.1599 15.0062C19.6325 15.0062 18.3739 13.7005 18.3739 12.0971C18.3739 10.4937 19.6081 9.18803 21.1599 9.18803C22.7239 9.18803 23.9703 10.5051 23.9459 12.0971C23.9459 13.7005 22.7239 15.0062 21.1599 15.0062Z" fill="#5165F6"/>
</svg>
