<svg width="52" height="40" viewBox="0 0 52 40" fill="none" xmlns="http://www.w3.org/2000/svg">
<circle cx="20.7383" cy="20" r="20" fill="#F2FDFF"/>
<path d="M45.9284 18.0113C45.9284 20.8403 44.8046 23.5534 42.8042 25.5538C40.8038 27.5542 38.0907 28.678 35.2617 28.678C32.4327 28.678 29.7196 27.5542 27.7192 25.5538C25.7189 23.5534 24.5951 20.8403 24.5951 18.0113C24.5951 15.1823 25.7189 12.4692 27.7192 10.4688C29.7196 8.46845 32.4327 7.34465 35.2617 7.34465C36.2751 7.34465 37.2617 7.49131 38.1951 7.75798L40.2884 5.66465C38.7417 5.02465 37.0484 4.67798 35.2617 4.67798C33.5108 4.67798 31.7769 5.02286 30.1593 5.69292C28.5416 6.36298 27.0717 7.34511 25.8336 8.58322C23.3331 11.0837 21.9284 14.4751 21.9284 18.0113C21.9284 21.5475 23.3331 24.9389 25.8336 27.4394C27.0717 28.6775 28.5416 29.6596 30.1593 30.3297C31.7769 30.9998 33.5108 31.3446 35.2617 31.3446C38.7979 31.3446 42.1893 29.9399 44.6898 27.4394C47.1903 24.9389 48.5951 21.5475 48.5951 18.0113H45.9284ZM29.8084 15.4513L27.9284 17.3446L33.9284 23.3446L47.2617 10.0113L45.3817 8.11798L33.9284 19.5713L29.8084 15.4513Z" fill="#1A9FBD"/>
</svg>
