<svg width="52" height="40" viewBox="0 0 52 40" fill="none" xmlns="http://www.w3.org/2000/svg">
<circle cx="20.7383" cy="20" r="20" fill="#F2FDFF"/>
<path d="M47.3951 18.6778L49.2617 20.5578L40.5551 29.3445L35.9284 24.6778L37.7951 22.7978L40.5551 25.5711L47.3951 18.6778ZM33.9284 7.34448C35.3429 7.34448 36.6994 7.90639 37.6996 8.90658C38.6998 9.90677 39.2617 11.2633 39.2617 12.6778C39.2617 14.0923 38.6998 15.4489 37.6996 16.4491C36.6994 17.4492 35.3429 18.0111 33.9284 18.0111C32.5139 18.0111 31.1573 17.4492 30.1571 16.4491C29.157 15.4489 28.5951 14.0923 28.5951 12.6778C28.5951 11.2633 29.157 9.90677 30.1571 8.90658C31.1573 7.90639 32.5139 7.34448 33.9284 7.34448V7.34448ZM33.9284 10.0111C33.2211 10.0111 32.5429 10.2921 32.0428 10.7922C31.5427 11.2923 31.2617 11.9706 31.2617 12.6778C31.2617 13.3851 31.5427 14.0633 32.0428 14.5634C32.5429 15.0635 33.2211 15.3445 33.9284 15.3445C34.6356 15.3445 35.3139 15.0635 35.814 14.5634C36.3141 14.0633 36.5951 13.3851 36.5951 12.6778C36.5951 11.9706 36.3141 11.2923 35.814 10.7922C35.3139 10.2921 34.6356 10.0111 33.9284 10.0111V10.0111ZM33.9284 19.3445C34.8351 19.3445 35.9284 19.4645 37.1417 19.6911L34.9151 21.9178L33.9284 21.8778C29.9684 21.8778 25.7951 23.8245 25.7951 24.6778V26.1445H34.0617L36.5951 28.6778H23.2617V24.6778C23.2617 21.1311 30.3684 19.3445 33.9284 19.3445Z" fill="#1A9FBD"/>
</svg>
