<svg width="52" height="40" viewBox="0 0 52 40" fill="none" xmlns="http://www.w3.org/2000/svg">
<circle cx="20.9766" cy="20" r="20" fill="#F2FDFF"/>
<g clip-path="url(#clip0_2902_9205)">
<path d="M24.3568 9.99992H45.6901V23.3333H24.3568V9.99992ZM45.6901 25.9999C46.3973 25.9999 47.0756 25.719 47.5757 25.2189C48.0758 24.7188 48.3568 24.0405 48.3568 23.3333V9.99992C48.3568 8.51992 47.1568 7.33325 45.6901 7.33325H24.3568C22.8768 7.33325 21.6901 8.51992 21.6901 9.99992V23.3333C21.6901 24.0405 21.9711 24.7188 22.4712 25.2189C22.9712 25.719 23.6495 25.9999 24.3568 25.9999H19.0234V28.6666H51.0234V25.9999H45.6901Z" fill="#1A9FBD"/>
</g>
<defs>
<clipPath id="clip0_2902_9205">
<rect width="32" height="32" fill="white" transform="translate(19.0234 2)"/>
</clipPath>
</defs>
</svg>
