<svg width="52" height="40" viewBox="0 0 52 40" fill="none" xmlns="http://www.w3.org/2000/svg">
<circle cx="20.7383" cy="20" r="20" fill="#F2FDFF"/>
<path d="M45.9284 16.6666H49.9284V19.3333H45.9284V16.6666ZM20.595 16.6666H24.595V19.3333H20.595V16.6666ZM36.595 3.33325V7.33325H33.9284V3.33325H36.595ZM25.8217 6.66659L28.6617 9.51992L26.7684 11.3999L23.9284 8.57325L25.8217 6.66659ZM41.8617 9.50659L44.6884 6.66659L46.595 8.57325L43.755 11.3999L41.8617 9.50659ZM35.2617 9.99992C37.3834 9.99992 39.4183 10.8428 40.9186 12.3431C42.4188 13.8434 43.2617 15.8782 43.2617 17.9999C43.2617 20.9599 41.6484 23.5466 39.2617 24.9333V27.3333C39.2617 27.6869 39.1212 28.026 38.8712 28.2761C38.6211 28.5261 38.282 28.6666 37.9284 28.6666H32.595C32.2414 28.6666 31.9023 28.5261 31.6522 28.2761C31.4022 28.026 31.2617 27.6869 31.2617 27.3333V24.9333C28.875 23.5466 27.2617 20.9599 27.2617 17.9999C27.2617 15.8782 28.1046 13.8434 29.6048 12.3431C31.1051 10.8428 33.14 9.99992 35.2617 9.99992V9.99992ZM37.9284 29.9999V31.3333C37.9284 31.6869 37.7879 32.026 37.5378 32.2761C37.2878 32.5261 36.9487 32.6666 36.595 32.6666H33.9284C33.5747 32.6666 33.2356 32.5261 32.9856 32.2761C32.7355 32.026 32.595 31.6869 32.595 31.3333V29.9999H37.9284ZM33.9284 25.9999H36.595V23.1599C38.9017 22.5733 40.595 20.4799 40.595 17.9999C40.595 16.5854 40.0331 15.2289 39.0329 14.2287C38.0327 13.2285 36.6762 12.6666 35.2617 12.6666C33.8472 12.6666 32.4907 13.2285 31.4905 14.2287C30.4903 15.2289 29.9284 16.5854 29.9284 17.9999C29.9284 20.4799 31.6217 22.5733 33.9284 23.1599V25.9999Z" fill="#1A9FBD"/>
</svg>
