<svg width="311" height="24" viewBox="0 0 311 24" fill="none" xmlns="http://www.w3.org/2000/svg">
<path d="M21.9608 5.80826C21.2121 6.13793 20.4188 6.35555 19.6067 6.4541C20.4618 5.94014 21.102 5.13413 21.4092 4.18493C20.6167 4.64743 19.7383 4.9841 18.8033 5.1716C18.1865 4.51195 17.3691 4.07445 16.478 3.92701C15.587 3.77958 14.6722 3.93047 13.8758 4.35625C13.0793 4.78204 12.4457 5.45889 12.0734 6.2817C11.701 7.10451 11.6108 8.02724 11.8167 8.9066C8.40833 8.74576 5.38917 7.10826 3.36667 4.63493C2.99899 5.25977 2.80722 5.97245 2.81167 6.69743C2.81167 8.12243 3.53667 9.37493 4.635 10.1108C3.98405 10.09 3.34748 9.91404 2.77833 9.59743V9.64743C2.77796 10.5944 3.10522 11.5124 3.70459 12.2456C4.30395 12.9787 5.13851 13.482 6.06667 13.6699C5.46525 13.8311 4.83534 13.8553 4.22333 13.7408C4.48677 14.5558 4.99805 15.2682 5.68585 15.7787C6.37364 16.2891 7.20363 16.5722 8.06 16.5883C6.60961 17.7266 4.81873 18.3444 2.975 18.3424C2.65 18.3424 2.32583 18.3233 2 18.2866C3.87976 19.4902 6.06543 20.1291 8.2975 20.1274C15.8417 20.1274 19.9625 13.8808 19.9625 8.47326C19.9625 8.29826 19.9625 8.12326 19.95 7.94826C20.755 7.36898 21.4494 6.64978 22 5.82493L21.9608 5.80826Z" fill="#B6B3B3"/>
<path d="M79.4 12.0608C79.4 6.50473 74.9225 2.00001 69.4 2.00001C63.8775 2.00001 59.4 6.50473 59.4 12.0608C59.4 17.0828 63.0567 21.2446 67.8375 21.9992V14.9692H65.2984V12.06H67.8375V9.84491C67.8375 7.32385 69.3309 5.93043 71.615 5.93043C72.7084 5.93043 73.8534 6.12745 73.8534 6.12745V8.60324H72.5917C71.3492 8.60324 70.9617 9.37876 70.9617 10.1744V12.0608H73.735L73.2917 14.97H70.9617V22C75.7434 21.2446 79.4 17.082 79.4 12.0608Z" fill="#B6B3B3"/>
<g clip-path="url(#clip0_2902_9429)">
<path d="M133.839 19.0433H130.878V14.4025C130.878 13.2958 130.855 11.8717 129.334 11.8717C127.79 11.8717 127.554 13.0758 127.554 14.3208V19.0433H124.593V9.50002H127.438V10.8008H127.476C127.873 10.0508 128.84 9.25918 130.284 9.25918C133.285 9.25918 133.84 11.2342 133.84 13.805V19.0433H133.839ZM121.248 8.19418C120.294 8.19418 119.528 7.42252 119.528 6.47335C119.528 5.52502 120.295 4.75418 121.248 4.75418C122.198 4.75418 122.968 5.52502 122.968 6.47335C122.968 7.42252 122.197 8.19418 121.248 8.19418ZM122.733 19.0433H119.763V9.50002H122.733V19.0433ZM135.321 2.00002H118.276C117.46 2.00002 116.8 2.64502 116.8 3.44085V20.5592C116.8 21.3558 117.46 22 118.276 22H135.318C136.133 22 136.8 21.3558 136.8 20.5592V3.44085C136.8 2.64502 136.133 2.00002 135.318 2.00002H135.321Z" fill="#B6B3B3"/>
</g>
<path d="M184.2 2C181.483 2 181.144 2.0125 180.077 2.06C179.012 2.11 178.287 2.2775 177.65 2.525C176.992 2.78 176.434 3.1225 175.878 3.67833C175.322 4.23417 174.979 4.79167 174.725 5.45C174.477 6.0875 174.309 6.8125 174.26 7.8775C174.21 8.94417 174.2 9.28333 174.2 12C174.2 14.7167 174.212 15.0558 174.26 16.1225C174.31 17.1867 174.477 17.9125 174.725 18.55C174.98 19.2067 175.322 19.7658 175.878 20.3217C176.434 20.8767 176.992 21.2208 177.65 21.475C178.288 21.7217 179.013 21.8908 180.077 21.94C181.144 21.99 181.483 22 184.2 22C186.917 22 187.256 21.9875 188.322 21.94C189.387 21.89 190.112 21.7217 190.75 21.475C191.407 21.22 191.966 20.8767 192.522 20.3217C193.077 19.7658 193.421 19.2092 193.675 18.55C193.922 17.9125 194.091 17.1867 194.14 16.1225C194.19 15.0558 194.2 14.7167 194.2 12C194.2 9.28333 194.187 8.94417 194.14 7.8775C194.09 6.81333 193.922 6.08667 193.675 5.45C193.42 4.7925 193.077 4.23417 192.522 3.67833C191.966 3.1225 191.409 2.77917 190.75 2.525C190.112 2.2775 189.387 2.10917 188.322 2.06C187.256 2.01 186.917 2 184.2 2ZM184.2 3.8C186.869 3.8 187.187 3.81333 188.242 3.85917C189.217 3.905 189.746 4.06667 190.097 4.205C190.566 4.38583 190.897 4.6025 191.249 4.95167C191.598 5.30167 191.815 5.63417 191.996 6.1025C192.132 6.45417 192.296 6.98333 192.34 7.95833C192.387 9.01333 192.398 9.33 192.398 12C192.398 14.67 192.386 14.9875 192.337 16.0417C192.286 17.0167 192.123 17.5458 191.986 17.8975C191.799 18.3658 191.587 18.6975 191.237 19.0492C190.887 19.3983 190.55 19.615 190.087 19.7958C189.737 19.9325 189.199 20.0958 188.224 20.14C187.162 20.1875 186.85 20.1983 184.175 20.1983C181.499 20.1983 181.187 20.1858 180.126 20.1367C179.15 20.0858 178.612 19.9233 178.262 19.7858C177.788 19.5992 177.462 19.3867 177.113 19.0367C176.762 18.6875 176.538 18.35 176.363 17.8867C176.226 17.5367 176.064 16.9992 176.013 16.0242C175.976 14.9742 175.962 14.65 175.962 11.9875C175.962 9.32417 175.976 8.99917 176.013 7.93667C176.064 6.96167 176.226 6.425 176.363 6.075C176.538 5.6 176.762 5.275 177.113 4.92417C177.462 4.575 177.788 4.35 178.262 4.17583C178.612 4.0375 179.138 3.875 180.113 3.825C181.176 3.7875 181.488 3.775 184.162 3.775L184.2 3.8V3.8ZM184.2 6.865C181.362 6.865 179.065 9.165 179.065 12C179.065 14.8375 181.365 17.135 184.2 17.135C187.037 17.135 189.335 14.835 189.335 12C189.335 9.1625 187.035 6.865 184.2 6.865ZM184.2 15.3333C182.358 15.3333 180.867 13.8417 180.867 12C180.867 10.1583 182.358 8.66667 184.2 8.66667C186.042 8.66667 187.533 10.1583 187.533 12C187.533 13.8417 186.042 15.3333 184.2 15.3333ZM190.738 6.6625C190.738 7.325 190.2 7.8625 189.538 7.8625C188.876 7.8625 188.338 7.32417 188.338 6.6625C188.338 6.00083 188.877 5.46333 189.538 5.46333C190.199 5.4625 190.738 6.00083 190.738 6.6625Z" fill="#B6B3B3"/>
<path d="M241.6 2C236.075 2 231.6 6.59118 231.6 12.2539C231.6 16.7853 234.465 20.6279 238.437 21.9823C238.937 22.0788 239.121 21.7618 239.121 21.4892C239.121 21.2457 239.112 20.6006 239.108 19.7461C236.327 20.3647 235.74 18.3703 235.74 18.3703C235.285 17.1869 234.627 16.8707 234.627 16.8707C233.722 16.235 234.697 16.2478 234.697 16.2478C235.702 16.3196 236.229 17.3039 236.229 17.3039C237.121 18.8719 238.57 18.4191 239.142 18.1567C239.232 17.4936 239.489 17.0416 239.775 16.7853C237.554 16.5289 235.22 15.6471 235.22 11.7181C235.22 10.5987 235.607 9.68444 236.249 8.96667C236.137 8.70776 235.799 7.66528 236.337 6.2528C236.337 6.2528 237.174 5.97766 239.087 7.30383C239.887 7.07568 240.737 6.96289 241.587 6.95776C242.437 6.96289 243.287 7.07568 244.087 7.30383C245.987 5.97766 246.824 6.2528 246.824 6.2528C247.362 7.66528 247.024 8.70776 246.924 8.96667C247.562 9.68444 247.949 10.5987 247.949 11.7181C247.949 15.6573 245.612 16.5246 243.387 16.7767C243.737 17.0843 244.062 17.7132 244.062 18.6737C244.062 20.046 244.049 21.1483 244.049 21.4815C244.049 21.7507 244.224 22.0711 244.737 21.9686C248.737 20.6236 251.6 16.7784 251.6 12.2539C251.6 6.59118 247.122 2 241.6 2" fill="#B6B3B3"/>
<path d="M308.583 7.49167C308.467 7.07626 308.246 6.69778 307.941 6.39282C307.636 6.08786 307.257 5.86674 306.842 5.75084C305.283 5.33335 299.008 5.33335 299.008 5.33335C299.008 5.33335 292.751 5.32501 291.176 5.75084C290.761 5.86694 290.382 6.08824 290.077 6.39335C289.773 6.69845 289.552 7.07704 289.436 7.49251C289.14 9.08818 288.994 10.708 289 12.3308C288.996 13.9478 289.141 15.5617 289.436 17.1516C289.552 17.567 289.773 17.9454 290.078 18.2503C290.382 18.5553 290.761 18.7765 291.176 18.8925C292.733 19.3108 299.009 19.3108 299.009 19.3108C299.009 19.3108 305.266 19.3108 306.842 18.8925C307.257 18.7765 307.636 18.5553 307.941 18.2501C308.246 17.945 308.467 17.5664 308.583 17.1508C308.871 15.5606 309.01 13.9469 308.999 12.3308C309.011 10.708 308.872 9.08767 308.583 7.49084V7.49167ZM297.007 15.325V9.32834L302.228 12.3317L297.007 15.325Z" fill="#B6B3B3"/>
<defs>
<clipPath id="clip0_2902_9429">
<rect width="20" height="20" fill="white" transform="translate(116.8 2.00002)"/>
</clipPath>
</defs>
</svg>
