<svg width="52" height="40" viewBox="0 0 52 40" fill="none" xmlns="http://www.w3.org/2000/svg">
<circle cx="20.8633" cy="20" r="20" fill="#F2FDFF"/>
<path d="M36.4701 30.0112L39.1367 28.6779L41.8034 30.0112V20.6779H36.4701V30.0112ZM41.8034 14.0112V11.3446L39.1367 12.6779L36.4701 11.3446V14.0112L33.8034 15.3446L36.4701 16.6779V19.3446L39.1367 18.0112L41.8034 19.3446V16.6779L44.4701 15.3446L41.8034 14.0112ZM45.8034 6.01123H24.4701C23.7628 6.01123 23.0846 6.29218 22.5845 6.79228C22.0844 7.29238 21.8034 7.97065 21.8034 8.6779V22.0112C21.8034 22.7185 22.0844 23.3968 22.5845 23.8968C23.0846 24.3969 23.7628 24.6779 24.4701 24.6779H33.8034V22.0112H24.4701V8.6779H45.8034V22.0112H44.4701V24.6779H45.8034C46.5106 24.6779 47.1889 24.3969 47.689 23.8968C48.1891 23.3968 48.4701 22.7185 48.4701 22.0112V8.6779C48.4701 7.97065 48.1891 7.29238 47.689 6.79228C47.1889 6.29218 46.5106 6.01123 45.8034 6.01123ZM33.8034 12.6779H25.8034V10.0112H33.8034V12.6779ZM31.1367 16.6779H25.8034V14.0112H31.1367V16.6779ZM33.8034 20.6779H25.8034V18.0112H33.8034V20.6779Z" fill="#1A9FBD"/>
</svg>
