<svg width="93" height="40" viewBox="0 0 93 40" fill="none" xmlns="http://www.w3.org/2000/svg">
<path fill-rule="evenodd" clip-rule="evenodd" d="M0.457031 20.5882C0.457031 15.76 4.28859 11.8457 9.01544 11.8457C13.742 11.8457 17.5737 15.76 17.5737 20.5882C17.5737 25.4163 13.742 29.3306 9.01544 29.3306C4.28859 29.3306 0.457031 25.4163 0.457031 20.5882Z" fill="#FD3753"/>
<mask id="mask0_2902_9321" style="mask-type:alpha" maskUnits="userSpaceOnUse" x="0" y="11" width="18" height="19">
<path d="M0.373047 11.7598H17.6592V29.4175H0.373047V11.7598Z" fill="white"/>
</mask>
<g mask="url(#mask0_2902_9321)">
<path fill-rule="evenodd" clip-rule="evenodd" d="M9.01608 11.9327C4.34362 11.9327 0.542389 15.8159 0.542389 20.5886C0.542389 25.3614 4.34362 29.2444 9.01608 29.2444C13.6884 29.2444 17.4898 25.3614 17.4898 20.5886C17.4898 15.8159 13.6884 11.9327 9.01608 11.9327ZM9.01608 29.4175C4.2501 29.4175 0.372955 25.457 0.372955 20.5886C0.372955 15.7203 4.2501 11.7596 9.01608 11.7596C13.7819 11.7596 17.6592 15.7203 17.6592 20.5886C17.6592 25.457 13.7819 29.4175 9.01608 29.4175Z" fill="#D31831"/>
</g>
<path fill-rule="evenodd" clip-rule="evenodd" d="M7.91809 24.4005C8.16783 24.132 8.29271 23.8008 8.29271 23.407C8.29271 23.2191 8.25984 23.0425 8.1941 22.8769C8.12819 22.7112 8.03618 22.5636 7.91809 22.4338C7.79983 22.3043 7.66411 22.2012 7.51077 22.1252C7.35744 22.0491 7.18868 22.0108 7.00468 22.0108C6.83846 22.0108 6.67631 22.047 6.51857 22.1183C6.361 22.1901 6.22291 22.2908 6.10465 22.4207C5.98655 22.5505 5.89235 22.7002 5.82203 22.8701C5.75223 23.0403 5.71715 23.2191 5.71715 23.407C5.71715 23.595 5.74985 23.7741 5.81559 23.9441C5.88133 24.1142 5.97317 24.2618 6.0916 24.387C6.20986 24.5123 6.34575 24.6132 6.49892 24.6888C6.65225 24.7652 6.82067 24.8031 7.00468 24.8031C7.36404 24.8031 7.66835 24.6689 7.91809 24.4005ZM6.24257 25.1925C6.00604 25.0942 5.79814 24.9576 5.61854 24.7828C5.43894 24.6083 5.29882 24.4029 5.19784 24.1656C5.09737 23.9285 5.04688 23.6755 5.04688 23.407C5.04688 23.1386 5.09737 22.8881 5.19784 22.6555C5.29882 22.4226 5.43894 22.219 5.61854 22.0447C5.79814 21.8703 6.00604 21.7337 6.24257 21.6352C6.47926 21.5369 6.73341 21.4876 7.00468 21.4876C7.27645 21.4876 7.53043 21.5369 7.76679 21.6352C8.00348 21.7337 8.21155 21.8703 8.39115 22.0447C8.57092 22.219 8.71104 22.4226 8.81151 22.6555C8.91249 22.8881 8.96281 23.1386 8.96281 23.407C8.96281 23.6755 8.91249 23.9285 8.81151 24.1656C8.71104 24.4029 8.57092 24.6083 8.39115 24.7828C8.21155 24.9576 8.00348 25.0942 7.76679 25.1925C7.53043 25.291 7.27645 25.3399 7.00468 25.3399C6.73341 25.3399 6.47926 25.291 6.24257 25.1925ZM11.9128 18.7627C12.0662 18.691 12.2019 18.5903 12.3201 18.4605C12.4386 18.331 12.5328 18.1808 12.6026 18.0108C12.6729 17.8412 12.708 17.6619 12.708 17.4739C12.708 17.2862 12.6751 17.1093 12.6092 16.9436C12.5436 16.7783 12.4516 16.6305 12.3333 16.5007C12.2151 16.3709 12.0772 16.2683 11.9194 16.1921C11.7619 16.1162 11.5953 16.0779 11.4201 16.0779C11.2537 16.0779 11.0916 16.1137 10.9338 16.1854C10.7763 16.257 10.6361 16.3555 10.5133 16.4805C10.3908 16.606 10.2944 16.7536 10.2242 16.9237C10.1541 17.0937 10.119 17.2773 10.119 17.4739C10.119 17.6619 10.1521 17.8388 10.2176 18.0041C10.2834 18.1697 10.3754 18.3175 10.4936 18.4473C10.6117 18.5771 10.7498 18.6798 10.9077 18.7559C11.0651 18.8319 11.2361 18.8702 11.4201 18.8702C11.5953 18.8702 11.7598 18.8343 11.9128 18.7627ZM12.6026 25.2595L9.01551 20.5881L5.36219 16.0242L5.82203 15.6215L9.38318 20.2793L13.0626 24.8434L12.6026 25.2595ZM10.6514 19.2457C10.4106 19.1472 10.2024 19.011 10.027 18.8364C9.852 18.6619 9.71171 18.4584 9.60666 18.2258C9.50161 17.993 9.44892 17.7424 9.44892 17.4739C9.44892 17.2057 9.50161 16.9551 9.60666 16.7223C9.71171 16.4897 9.852 16.2861 10.027 16.1113C10.2024 15.937 10.4106 15.7984 10.6514 15.6952C10.8925 15.5924 11.1485 15.541 11.4201 15.541C11.6915 15.541 11.9457 15.5924 12.1822 15.6952C12.4186 15.7984 12.627 15.937 12.8066 16.1113C12.9862 16.2861 13.1263 16.4897 13.2269 16.7223C13.3278 16.9551 13.3781 17.2057 13.3781 17.4739C13.3781 17.7424 13.3278 17.993 13.2269 18.2258C13.1263 18.4584 12.9862 18.6619 12.8066 18.8364C12.627 19.011 12.4186 19.1472 12.1822 19.2457C11.9457 19.3444 11.6915 19.3934 11.4201 19.3934C11.1485 19.3934 10.8925 19.3444 10.6514 19.2457Z" fill="white"/>
<path fill-rule="evenodd" clip-rule="evenodd" d="M23.581 19.2472V25.3547H21.7676V15.8242H23.1737L28.0358 22.0794V15.8377H29.849V25.3547H28.3775L23.581 19.2472Z" fill="#222222"/>
<path fill-rule="evenodd" clip-rule="evenodd" d="M33.0804 20.5883C33.0804 20.9999 33.1397 21.3983 33.2578 21.7829C33.3761 22.1678 33.547 22.5078 33.7703 22.8032C33.9938 23.0985 34.2674 23.3356 34.5916 23.5146C34.9155 23.6935 35.2835 23.783 35.6954 23.783C36.116 23.783 36.486 23.6914 36.8057 23.5078C37.1254 23.3245 37.3948 23.0805 37.6139 22.7764C37.8328 22.4721 37.9994 22.1298 38.1132 21.7493C38.2271 21.3691 38.2842 20.9821 38.2842 20.5883C38.2842 20.1768 38.2229 19.7783 38.1002 19.3936C37.9774 19.009 37.8045 18.6687 37.581 18.3735C37.3577 18.078 37.0861 17.8433 36.7664 17.6687C36.4465 17.4942 36.0851 17.4068 35.6822 17.4068C35.2619 17.4068 34.8915 17.4987 34.5719 17.6822C34.252 17.8657 33.9804 18.1073 33.7571 18.4069C33.5338 18.707 33.365 19.0469 33.2514 19.4272C33.1373 19.8076 33.0804 20.1946 33.0804 20.5883ZM35.6692 25.4206C35.0121 25.4206 34.4118 25.2844 33.8688 25.0113C33.3256 24.7384 32.8589 24.376 32.4694 23.9239C32.0796 23.4721 31.7795 22.9553 31.5692 22.3735C31.359 21.7919 31.2539 21.1971 31.2539 20.5883C31.2539 19.953 31.3656 19.3444 31.5889 18.7627C31.8124 18.1812 32.1233 17.6666 32.5219 17.2191C32.9206 16.7716 33.3913 16.416 33.9345 16.1519C34.4777 15.8881 35.0689 15.7559 35.7086 15.7559C36.3657 15.7559 36.9657 15.8969 37.5089 16.1787C38.0519 16.4605 38.5162 16.8296 38.9016 17.2862C39.2872 17.7426 39.5851 18.2617 39.7954 18.8432C40.0056 19.4249 40.1107 20.0156 40.1107 20.615C40.1107 21.2505 39.999 21.8568 39.7757 22.434C39.5522 23.0112 39.2434 23.5211 38.8493 23.9642C38.455 24.4071 37.9862 24.7607 37.4431 25.0246C36.8999 25.2888 36.3086 25.4206 35.6692 25.4206Z" fill="#222222"/>
<path fill-rule="evenodd" clip-rule="evenodd" d="M47.628 22.6836C47.628 22.4688 47.5906 22.2608 47.5164 22.0595C47.4418 21.858 47.341 21.6815 47.2141 21.5292C47.087 21.377 46.9359 21.2562 46.7609 21.1668C46.5855 21.0774 46.3929 21.0324 46.1826 21.0324H42.8449V24.3078H46.0906C46.3095 24.3078 46.5111 24.2631 46.695 24.1734C46.879 24.0843 47.0409 23.9654 47.1812 23.8179C47.3212 23.6701 47.431 23.4979 47.5098 23.301C47.5887 23.1044 47.628 22.8982 47.628 22.6836ZM42.8449 16.8713V20.0527H45.8146C46.0248 20.0527 46.2175 20.0103 46.3929 19.9251C46.5679 19.8401 46.7192 19.7261 46.8463 19.5828C46.9732 19.4398 47.0738 19.2719 47.1484 19.0794C47.2227 18.887 47.26 18.6834 47.26 18.4685C47.26 18.245 47.2249 18.0348 47.155 17.8378C47.0848 17.641 46.9906 17.4709 46.8725 17.3277C46.7543 17.1848 46.6096 17.0726 46.4388 16.992C46.268 16.9115 46.086 16.8713 45.8935 16.8713H42.8449ZM48.8239 22.8982C48.8239 23.2653 48.7515 23.6011 48.607 23.9052C48.4625 24.2093 48.2654 24.4687 48.0157 24.6837C47.7659 24.8985 47.4769 25.0641 47.1484 25.1804C46.8198 25.2967 46.4671 25.3549 46.0906 25.3549H41.6621V15.8242H46.3009C46.6248 15.8242 46.9186 15.8959 47.1812 16.039C47.444 16.1823 47.6673 16.368 47.8513 16.5961C48.0353 16.8243 48.1777 17.0839 48.2785 17.3746C48.3791 17.6656 48.4296 17.9586 48.4296 18.2539C48.4296 18.7283 48.3134 19.1667 48.0814 19.5694C47.8493 19.972 47.5186 20.2719 47.0892 20.4687C47.6236 20.6299 48.0464 20.9276 48.3574 21.3613C48.6683 21.7955 48.8239 22.3077 48.8239 22.8982Z" fill="#424242"/>
<path fill-rule="evenodd" clip-rule="evenodd" d="M51.6748 20.858H54.5001C54.7451 20.858 54.9666 20.8042 55.1636 20.6969C55.3609 20.5895 55.5294 20.4442 55.6696 20.2607C55.8095 20.0772 55.9193 19.8647 55.9983 19.6229C56.0769 19.3815 56.1164 19.1309 56.1164 18.8712C56.1164 18.603 56.0703 18.3501 55.9783 18.113C55.8863 17.8759 55.7636 17.6656 55.6106 17.4819C55.4571 17.2988 55.2775 17.1554 55.0718 17.0525C54.8658 16.9497 54.6489 16.8982 54.4212 16.8982H51.6748V20.858ZM50.4922 25.3547V15.8242H54.4869C54.8985 15.8242 55.2775 15.9114 55.6236 16.0861C55.9696 16.2605 56.2675 16.4933 56.5172 16.7839C56.7668 17.075 56.9617 17.4015 57.1019 17.7639C57.2419 18.1263 57.312 18.4955 57.312 18.8712C57.312 19.2025 57.2661 19.5224 57.1741 19.8309C57.0823 20.1399 56.9508 20.4196 56.78 20.67C56.6091 20.9206 56.4032 21.1356 56.1623 21.3144C55.9212 21.4935 55.6519 21.6232 55.3542 21.7036L57.6145 25.3547H56.2741L54.1453 21.9318H51.6748V25.3547H50.4922Z" fill="#424242"/>
<path fill-rule="evenodd" clip-rule="evenodd" d="M59.8345 20.5883C59.8345 21.0716 59.9111 21.5392 60.0645 21.991C60.2178 22.443 60.4345 22.8434 60.7149 23.1925C60.9953 23.5414 61.3327 23.8188 61.7269 24.0246C62.121 24.2306 62.559 24.3334 63.0409 24.3334C63.5402 24.3334 63.9872 24.2238 64.3813 24.0044C64.7755 23.7854 65.1107 23.499 65.3867 23.1454C65.6624 22.792 65.8728 22.3916 66.0173 21.9441C66.1618 21.4966 66.2342 21.0447 66.2342 20.5883C66.2342 20.1049 66.1573 19.6376 66.0041 19.1856C65.8508 18.7336 65.6317 18.3354 65.347 17.9908C65.0622 17.6466 64.7249 17.3712 64.3352 17.1654C63.9455 16.9596 63.5141 16.8565 63.0409 16.8565C62.5417 16.8565 62.0948 16.9641 61.7007 17.1787C61.3064 17.3935 60.9713 17.6755 60.6953 18.0246C60.4194 18.3735 60.2068 18.7717 60.058 19.2191C59.9089 19.6667 59.8345 20.1231 59.8345 20.5883ZM63.0278 25.4206C62.3708 25.4206 61.7728 25.2844 61.234 25.0113C60.6953 24.7384 60.2332 24.376 59.8477 23.9239C59.4621 23.4721 59.1644 22.9553 58.9542 22.3735C58.7439 21.7919 58.6387 21.1971 58.6387 20.5883C58.6387 19.953 58.7505 19.3444 58.974 18.7627C59.1973 18.1812 59.5062 17.6666 59.9004 17.2191C60.2945 16.7716 60.761 16.416 61.2998 16.1519C61.8386 15.8881 62.4233 15.7559 63.0541 15.7559C63.7112 15.7559 64.3069 15.8969 64.8413 16.1787C65.3755 16.4605 65.8354 16.8296 66.221 17.2862C66.6064 17.7426 66.9043 18.2592 67.1146 18.8365C67.3248 19.4137 67.4299 20.0021 67.4299 20.6017C67.4299 21.2372 67.3182 21.8457 67.0949 22.4273C66.8714 23.009 66.5648 23.5211 66.1751 23.9642C65.785 24.4071 65.3209 24.7607 64.782 25.0246C64.2434 25.2888 63.6585 25.4206 63.0278 25.4206Z" fill="#424242"/>
<path fill-rule="evenodd" clip-rule="evenodd" d="M69.0859 25.3547V15.8377H70.2686V21.0994L75.0781 15.8242H76.3529L72.6076 20.0257L76.563 25.3547H75.2752L71.885 20.7237L70.2686 22.4418V25.3547H69.0859Z" fill="#424242"/>
<path fill-rule="evenodd" clip-rule="evenodd" d="M83.9472 24.2809V25.3547H77.6133V15.8242H83.8289V16.8982H78.7961V19.9855H83.1719V20.9921H78.7961V24.2809H83.9472Z" fill="#424242"/>
<path fill-rule="evenodd" clip-rule="evenodd" d="M86.8116 20.858H89.6369C89.8819 20.858 90.1033 20.8042 90.3003 20.6969C90.4976 20.5895 90.6662 20.4442 90.8063 20.2607C90.9462 20.0772 91.056 19.8647 91.135 19.6229C91.2136 19.3815 91.2531 19.1309 91.2531 18.8712C91.2531 18.603 91.207 18.3501 91.115 18.113C91.023 17.8759 90.9003 17.6656 90.7473 17.4819C90.5938 17.2988 90.4142 17.1554 90.2085 17.0525C90.0025 16.9497 89.7856 16.8982 89.5579 16.8982H86.8116V20.858ZM85.6289 25.3547V15.8242H89.6236C90.0352 15.8242 90.4142 15.9114 90.7604 16.0861C91.1063 16.2605 91.4042 16.4933 91.654 16.7839C91.9035 17.075 92.0984 17.4015 92.2387 17.7639C92.3786 18.1263 92.4488 18.4955 92.4488 18.8712C92.4488 19.2025 92.4028 19.5224 92.3108 19.8309C92.219 20.1399 92.0875 20.4196 91.9167 20.67C91.7458 20.9206 91.5399 21.1356 91.299 21.3144C91.0579 21.4935 90.7887 21.6232 90.491 21.7036L92.7512 25.3547H91.4108L89.2821 21.9318H86.8116V25.3547H85.6289Z" fill="#424242"/>
</svg>
