<svg width="80" height="80" viewBox="0 0 80 80" fill="none" xmlns="http://www.w3.org/2000/svg">
<path d="M33.3333 55V25L53.3333 40L33.3333 55ZM40 6.66663C35.6226 6.66663 31.2881 7.52882 27.2439 9.20398C23.1997 10.8791 19.5251 13.3344 16.4298 16.4297C10.1786 22.6809 6.66666 31.1594 6.66666 40C6.66666 48.8405 10.1786 57.319 16.4298 63.5702C19.5251 66.6655 23.1997 69.1208 27.2439 70.7959C31.2881 72.4711 35.6226 73.3333 40 73.3333C48.8405 73.3333 57.319 69.8214 63.5702 63.5702C69.8214 57.319 73.3333 48.8405 73.3333 40C73.3333 35.6226 72.4711 31.288 70.796 27.2438C69.1208 23.1997 66.6655 19.525 63.5702 16.4297C60.4749 13.3344 56.8003 10.8791 52.7561 9.20398C48.7119 7.52882 44.3774 6.66663 40 6.66663V6.66663Z" fill="white"/>
</svg>
