<svg width="80" height="80" viewBox="0 0 80 80" fill="none" xmlns="http://www.w3.org/2000/svg">
<path d="M33.3333 54.9998V24.9998L53.3333 39.9998L33.3333 54.9998ZM40 6.6665C35.6226 6.6665 31.2881 7.5287 27.2439 9.20385C23.1997 10.879 19.525 13.3343 16.4298 16.4296C10.1785 22.6808 6.66665 31.1593 6.66665 39.9998C6.66665 48.8404 10.1785 57.3189 16.4298 63.5701C19.525 66.6654 23.1997 69.1207 27.2439 70.7958C31.2881 72.471 35.6226 73.3332 40 73.3332C48.8405 73.3332 57.319 69.8213 63.5702 63.5701C69.8214 57.3189 73.3333 48.8404 73.3333 39.9998C73.3333 35.6224 72.4711 31.2879 70.796 27.2437C69.1208 23.1995 66.6655 19.5249 63.5702 16.4296C60.4749 13.3343 56.8003 10.879 52.7561 9.20385C48.7119 7.5287 44.3774 6.6665 40 6.6665V6.6665Z" fill="white"/>
</svg>
