<svg width="155" height="53" viewBox="0 0 155 53" fill="none" xmlns="http://www.w3.org/2000/svg">
<path d="M19.1889 22.1253L13.5934 16.5366L17.1739 13.0002L22.7745 18.5889L19.1889 22.1253Z" fill="url(#paint0_linear_2902_9163)"/>
<path d="M153.424 48.6425C153.507 48.6267 153.621 48.6162 153.734 48.6162C153.905 48.6162 154.018 48.6478 154.096 48.7215C154.158 48.7793 154.194 48.8635 154.194 48.9635C154.194 49.1319 154.091 49.2424 153.956 49.2898C154.055 49.3266 154.111 49.4214 154.142 49.5529C154.184 49.7318 154.215 49.8529 154.241 49.9002H154.075C154.055 49.8634 154.029 49.7529 153.993 49.595C153.956 49.4214 153.889 49.3529 153.745 49.3477H153.595V49.9002H153.435V48.6478L153.424 48.6425ZM153.584 49.2214H153.75C153.92 49.2214 154.034 49.1267 154.034 48.9793C154.034 48.8162 153.915 48.7425 153.745 48.7425C153.667 48.7425 153.61 48.7478 153.584 48.7583V49.2214Z" fill="black"/>
<path d="M153.791 50.4738C153.124 50.4738 152.582 49.9212 152.582 49.2424C152.582 48.5635 153.124 48.011 153.791 48.011C154.457 48.011 155 48.5635 155 49.2424C155 49.9212 154.457 50.4738 153.791 50.4738ZM153.791 48.1846C153.217 48.1846 152.752 48.6583 152.752 49.2424C152.752 49.8265 153.217 50.3001 153.791 50.3001C154.364 50.3001 154.829 49.8265 154.829 49.2424C154.829 48.6583 154.364 48.1846 153.791 48.1846Z" fill="black"/>
<path d="M79.5821 42.3328C79.9489 42.1381 80.3623 42.0381 80.8324 42.0381C81.3749 42.0381 81.8709 42.1749 82.3101 42.4486C82.7493 42.7222 83.1006 43.1117 83.3589 43.6169C83.6173 44.122 83.7464 44.7062 83.7464 45.3692C83.7464 46.0323 83.6173 46.6217 83.3589 47.1321C83.1006 47.6426 82.7544 48.0425 82.3101 48.3215C81.8709 48.6004 81.3749 48.7425 80.8324 48.7425C80.3571 48.7425 79.9386 48.6477 79.5821 48.453C79.2256 48.2583 78.9414 48.011 78.7244 47.711V48.6372H77.1124V39.9595H78.7244V43.0906C78.9311 42.7801 79.2153 42.5223 79.5821 42.3276V42.3328ZM81.8606 44.3536C81.7056 44.0694 81.4938 43.8537 81.2406 43.7011C80.9823 43.5537 80.7033 43.48 80.4036 43.48C80.1039 43.48 79.8353 43.5537 79.5821 43.7063C79.3238 43.8589 79.1171 44.0799 78.9621 44.3694C78.8071 44.6588 78.7244 45.0009 78.7244 45.3903C78.7244 45.7797 78.8019 46.1218 78.9621 46.4112C79.1171 46.7006 79.3289 46.9217 79.5821 47.0743C79.8404 47.2269 80.1143 47.3005 80.4036 47.3005C80.6929 47.3005 80.9823 47.2216 81.2406 47.0637C81.4989 46.9059 81.7056 46.6848 81.8606 46.3954C82.0156 46.106 82.0983 45.7639 82.0983 45.364C82.0983 44.964 82.0208 44.6378 81.8606 44.3483V44.3536Z" fill="black"/>
<path d="M91.0159 42.1487L87.0686 51.7158H85.3532L86.7328 48.4794L84.1752 42.1487H85.9836L87.6318 46.6849L89.3006 42.1487H91.0159Z" fill="black"/>
<path d="M56.8849 7.81654H50.7469V27.0454H54.7872V20.4727H56.8849C61.2404 20.4727 64.1492 18.2835 64.1492 14.142C64.1492 10.0004 61.2404 7.81128 56.8849 7.81128V7.81654ZM57.0967 17.0047H54.7872V11.2634H56.9882C58.7966 11.2634 60.0572 12.2264 60.0572 14.1472C60.0572 16.068 58.8534 17.0047 57.0967 17.0047Z" fill="black"/>
<path d="M70.0754 15.8838C70.0496 15.726 70.0496 15.405 70.0496 15.005L69.9721 13.6947H66.4071V27.0507H70.3131V21.362C70.3131 18.9308 71.9406 17.1416 73.9298 17.1416C74.4258 17.1416 74.7409 17.2731 74.7926 17.2994V13.4C74.7409 13.3737 74.3741 13.321 73.9556 13.321C72.2506 13.321 70.8866 14.4419 70.0754 15.8838Z" fill="black"/>
<path d="M83.3693 27.4191C85.7046 27.4191 87.4613 26.8823 88.2725 26.4561V23.0618C87.5388 23.4881 85.5961 24.0511 83.7361 24.0511C81.6126 24.0511 80.2486 23.0092 80.0936 21.1936H88.6961C88.722 20.9253 88.7995 20.2832 88.7995 19.5623C88.7995 16.2522 86.7276 13.3105 82.6873 13.3105C78.9363 13.3105 76.0274 16.2996 76.0274 20.3622C76.0274 24.4248 78.8588 27.4138 83.3693 27.4138V27.4191ZM82.6615 16.468C84.2631 16.468 85.1001 17.6941 85.0485 19.1413H80.0936C80.1969 17.6994 81.0908 16.468 82.6615 16.468Z" fill="black"/>
<path d="M99.4686 27.4192C102.744 27.4192 105.472 24.7775 105.472 20.3676C105.472 15.9577 102.744 13.3159 99.3601 13.3159C97.4484 13.3159 95.7176 14.4105 95.1131 15.7208H95.0614C95.0356 15.7208 95.1389 15.3472 95.1131 14.8104L95.0356 13.6896H91.4706V32.9184H95.3766V26.4825C95.3766 25.7352 95.2991 25.3616 95.2991 25.3616H95.3508C96.0328 26.4562 97.5518 27.4192 99.4686 27.4192ZM98.6574 16.6839C100.466 16.6839 101.778 18.1784 101.778 20.3676C101.778 22.5567 100.466 24.0512 98.6574 24.0512C97.0868 24.0512 95.5109 22.8251 95.5109 20.3676C95.5109 17.91 97.0868 16.6839 98.6574 16.6839Z" fill="black"/>
<path d="M112.003 22.3462V7.81665H108.097V23.225C108.097 26.2719 109.905 27.4192 112.137 27.4192C113.372 27.4192 114.287 27.1771 114.628 27.0192V23.7355C114.39 23.8407 113.842 24.0038 113.315 24.0038C112.53 24.0038 112.003 23.5776 112.003 22.3462Z" fill="black"/>
<path d="M123.225 27.4191C125.56 27.4191 127.317 26.8823 128.128 26.4561V23.0618C127.394 23.4881 125.452 24.0511 123.592 24.0511C121.468 24.0511 120.104 23.0092 119.949 21.1936H128.552C128.578 20.9253 128.655 20.2832 128.655 19.5623C128.655 16.2522 126.583 13.3105 122.543 13.3105C118.792 13.3105 115.883 16.2996 115.883 20.3622C115.883 24.4248 118.714 27.4138 123.225 27.4138V27.4191ZM122.517 16.468C124.119 16.468 124.956 17.6941 124.904 19.1413H119.949C120.053 17.6994 120.946 16.468 122.517 16.468Z" fill="black"/>
<path d="M130.753 23.3619C130.753 26.0878 132.664 27.4192 134.922 27.4192C137.335 27.4192 138.647 25.6826 138.988 24.8827H139.04C139.04 24.8827 138.963 25.2563 138.988 25.8194L139.066 27.0456H142.605V18.631C142.605 15.2946 140.585 13.3159 136.55 13.3159C134.24 13.3159 132.484 13.879 131.75 14.2263V17.8048C132.613 17.2417 134.266 16.6576 135.919 16.6576C137.573 16.6576 138.725 17.2469 138.725 18.8467V19.1677C134.003 18.4994 130.753 20.1044 130.753 23.3619ZM135.945 24.3775C135.026 24.3775 134.452 23.8144 134.452 22.9619C134.452 21.7042 135.687 20.7728 138.622 21.2516C138.622 22.9619 137.469 24.3775 135.945 24.3775Z" fill="black"/>
<path d="M146.273 27.0456H150.179V16.8155H153.088V13.6896H150.019V12.9423C150.019 11.5531 150.882 10.8058 152.22 10.8058C152.851 10.8058 153.347 10.911 153.558 10.9952V7.60099C153.321 7.54836 152.639 7.44312 151.828 7.44312C148.314 7.44312 146.397 9.4481 146.397 12.4898V13.6896H144.537V16.8155H146.268V27.0456H146.273Z" fill="black"/>
<path d="M24.2315 13.3422C23.782 14.2526 23.224 15.1682 22.5524 16.0786L18.295 11.974V11.4056C18.295 10.4952 17.9592 9.69533 17.1739 8.89544C16.3885 8.09555 15.6084 7.75349 14.5957 7.75349C13.7019 7.75349 12.8029 8.09555 12.0175 8.89544L8.99502 11.974L5.07352 8.09555L8.20969 4.90126C10.6794 2.50686 13.1439 1.13864 15.8305 1.13864C18.4087 1.02286 20.6459 1.82275 22.4387 3.64881C23.8957 5.01704 24.6759 6.95887 25.0169 9.2375C25.1305 10.49 24.9032 11.8634 24.2315 13.3422Z" fill="black"/>
<path d="M4.05584 9.13838L0 13.3938L20.7454 33.9058L24.8012 29.6504L4.05584 9.13838Z" fill="black"/>
<path d="M113.336 41.8067C114.044 42.5277 114.4 43.5381 114.4 44.8326V50.4687H112.018V45.1589C112.018 44.4063 111.832 43.8327 111.455 43.4328C111.078 43.0329 110.572 42.8329 109.921 42.8329C109.27 42.8329 108.758 43.0329 108.381 43.4328C107.999 43.8327 107.813 44.4063 107.813 45.1589V50.4687H105.431V45.1589C105.431 44.4063 105.245 43.8327 104.868 43.4328C104.491 43.0329 103.984 42.8329 103.333 42.8329C102.682 42.8329 102.155 43.0329 101.773 43.4328C101.391 43.8327 101.205 44.4063 101.205 45.1589V50.4687H98.8228V40.8595H101.205V42.0225C101.509 41.6173 101.907 41.3015 102.388 41.07C102.868 40.8384 103.4 40.7227 103.979 40.7227C104.718 40.7227 105.374 40.8805 105.953 41.2015C106.531 41.5173 106.981 41.9751 107.296 42.5645C107.601 42.0119 108.05 41.5646 108.634 41.2278C109.218 40.8911 109.854 40.7227 110.536 40.7227C111.693 40.7227 112.628 41.0858 113.336 41.8067Z" fill="black"/>
<path d="M116.622 43.0486C117.004 42.296 117.521 41.7172 118.172 41.312C118.823 40.9068 119.551 40.7068 120.363 40.7068C121.065 40.7068 121.68 40.8541 122.212 41.1383C122.739 41.4277 123.163 41.7908 123.483 42.2329V40.8647H125.886V50.4738H123.483V49.0688C123.178 49.5213 122.755 49.895 122.212 50.1897C121.675 50.4844 121.05 50.6317 120.347 50.6317C119.551 50.6317 118.828 50.4212 118.177 50.0055C117.526 49.5897 117.009 49.0004 116.627 48.2426C116.245 47.4848 116.059 46.6165 116.059 45.6324C116.059 44.6483 116.25 43.8011 116.627 43.0486H116.622ZM123.137 44.1484C122.91 43.7274 122.605 43.4011 122.217 43.1749C121.83 42.9486 121.417 42.8381 120.972 42.8381C120.528 42.8381 120.12 42.9486 119.748 43.1696C119.371 43.3906 119.071 43.7116 118.838 44.1326C118.606 44.5536 118.487 45.0535 118.487 45.6324C118.487 46.2113 118.601 46.7165 118.838 47.148C119.071 47.5795 119.376 47.9163 119.758 48.1478C120.14 48.3794 120.543 48.4952 120.977 48.4952C121.411 48.4952 121.835 48.3847 122.223 48.1584C122.61 47.9321 122.915 47.6111 123.142 47.1848C123.37 46.7638 123.483 46.2586 123.483 45.6692C123.483 45.0799 123.37 44.5747 123.142 44.1537L123.137 44.1484Z" fill="black"/>
<path d="M129.74 50.2001C129.125 49.9159 128.64 49.5318 128.283 49.0476C127.927 48.5635 127.73 48.0267 127.694 47.432H130.097C130.143 47.8004 130.319 48.1109 130.634 48.353C130.944 48.595 131.337 48.7161 131.802 48.7161C132.267 48.7161 132.613 48.6214 132.866 48.4372C133.119 48.253 133.248 48.0162 133.248 47.7267C133.248 47.4163 133.093 47.1795 132.778 47.0268C132.468 46.869 131.967 46.7006 131.29 46.5164C130.587 46.3427 130.009 46.1638 129.559 45.9796C129.11 45.7954 128.727 45.5113 128.402 45.1271C128.076 44.743 127.916 44.2325 127.916 43.5852C127.916 43.0537 128.066 42.5696 128.366 42.1275C128.665 41.6908 129.099 41.3434 129.657 41.0856C130.221 40.833 130.882 40.7014 131.641 40.7014C132.768 40.7014 133.662 40.9856 134.333 41.5592C135.005 42.1328 135.372 42.9011 135.439 43.8747H133.155C133.119 43.4905 132.964 43.1905 132.685 42.9643C132.406 42.738 132.034 42.6275 131.569 42.6275C131.135 42.6275 130.804 42.7064 130.572 42.8695C130.339 43.0327 130.221 43.259 130.221 43.5484C130.221 43.8747 130.381 44.1167 130.696 44.2851C131.011 44.4535 131.507 44.6219 132.179 44.7956C132.861 44.9692 133.424 45.1482 133.863 45.3323C134.307 45.5165 134.69 45.806 135.01 46.1901C135.336 46.5795 135.501 47.09 135.511 47.7267C135.511 48.2793 135.361 48.7792 135.062 49.216C134.762 49.658 134.328 50.0001 133.765 50.2474C133.202 50.4948 132.546 50.6211 131.796 50.6211C131.047 50.6211 130.334 50.479 129.719 50.1948L129.74 50.2001Z" fill="black"/>
<path d="M137.449 43.0486C137.831 42.296 138.348 41.7172 138.999 41.312C139.65 40.9068 140.378 40.7068 141.189 40.7068C141.892 40.7068 142.507 40.8541 143.039 41.1383C143.566 41.4277 143.99 41.7908 144.31 42.2329V40.8647H146.713V50.4738H144.31V49.0688C144.005 49.5213 143.582 49.895 143.039 50.1897C142.502 50.4844 141.877 50.6317 141.174 50.6317C140.378 50.6317 139.655 50.4212 139.004 50.0055C138.353 49.5897 137.836 49.0004 137.454 48.2426C137.072 47.4848 136.886 46.6165 136.886 45.6324C136.886 44.6483 137.077 43.8011 137.454 43.0486H137.449ZM143.964 44.1484C143.737 43.7274 143.432 43.4011 143.044 43.1749C142.657 42.9486 142.243 42.8381 141.799 42.8381C141.355 42.8381 140.947 42.9486 140.575 43.1696C140.197 43.3906 139.898 43.7116 139.665 44.1326C139.433 44.5536 139.314 45.0535 139.314 45.6324C139.314 46.2113 139.428 46.7165 139.665 47.148C139.898 47.5795 140.203 47.9163 140.585 48.1478C140.967 48.3794 141.37 48.4952 141.804 48.4952C142.238 48.4952 142.662 48.3847 143.049 48.1584C143.437 47.9321 143.742 47.6111 143.969 47.1848C144.196 46.7638 144.31 46.2586 144.31 45.6692C144.31 45.0799 144.196 44.5747 143.969 44.1537L143.964 44.1484Z" fill="black"/>
<path d="M149.198 39.3069C148.919 39.0332 148.779 38.6964 148.779 38.2912C148.779 37.886 148.919 37.5492 149.198 37.2756C149.477 37.0019 149.823 36.8704 150.247 36.8704C150.67 36.8704 151.016 37.0072 151.295 37.2756C151.574 37.5492 151.714 37.886 151.714 38.2912C151.714 38.6964 151.574 39.0332 151.295 39.3069C151.016 39.5805 150.67 39.7121 150.247 39.7121C149.823 39.7121 149.477 39.5752 149.198 39.3069ZM151.419 40.8593V50.4684H149.038V40.8593H151.419Z" fill="black"/>
<path d="M151.419 40.8647H149.038V47.4217L151.419 44.4695V40.8647Z" fill="#ED0331"/>
<path d="M44.0509 4.21704C44.0509 4.21704 23.4462 24.8615 23.3325 24.9773C22.7745 25.5456 21.9892 24.9773 21.9892 24.9773L19.1889 22.125L22.7745 18.5887L29.0314 12.2791C32.2037 9.07951 36.0891 6.71143 40.3516 5.37477L44.0509 4.21704Z" fill="#16BBE5"/>
<defs>
<linearGradient id="paint0_linear_2902_9163" x1="15.4689" y1="14.8631" x2="20.9805" y2="20.1454" gradientUnits="userSpaceOnUse">
<stop stop-color="#15CFFF"/>
<stop offset="1" stop-color="#1196B7"/>
</linearGradient>
</defs>
</svg>
