<svg width="24" height="24" viewBox="0 0 24 24" fill="none" xmlns="http://www.w3.org/2000/svg">
<g clip-path="url(#clip0_2903_4972)">
<path d="M12 0C5.37253 0 0 5.37253 0 12C0 18.6275 5.37253 24 12 24C18.6275 24 24 18.6275 24 12C24 5.37253 18.6275 0 12 0Z" fill="#40B3E0"/>
<path d="M17.839 6.90272L15.6957 17.709C15.6957 17.709 15.396 18.4584 14.5716 18.0987L9.62556 14.3067L7.82706 13.4375L4.7995 12.4182C4.7995 12.4182 4.33488 12.2534 4.28988 11.8937C4.24497 11.534 4.8145 11.3392 4.8145 11.3392L16.8498 6.61791C16.8498 6.61791 17.839 6.18328 17.839 6.90272Z" fill="white"/>
<path d="M9.24543 17.5877C9.24543 17.5877 9.10106 17.5742 8.92115 17.0046C8.74134 16.4351 7.82709 13.4375 7.82709 13.4375L15.0962 8.82126C15.0962 8.82126 15.5159 8.56645 15.5009 8.82126C15.5009 8.82126 15.5758 8.86616 15.351 9.07598C15.1262 9.28588 9.64059 14.2169 9.64059 14.2169" fill="#D2E5F1"/>
<path d="M11.522 15.7606L9.56564 17.5443C9.56564 17.5443 9.41274 17.6604 9.24539 17.5876L9.62002 14.2744" fill="#B5CFE4"/>
</g>
<defs>
<clipPath id="clip0_2903_4972">
<rect width="24" height="24" fill="white"/>
</clipPath>
</defs>
</svg>
