<svg xmlns="http://www.w3.org/2000/svg" width="56" height="56" viewBox="0 0 56 56" fill="none">
<path d="M25.6667 34.9994H30.3334V39.666H25.6667V34.9994ZM25.6667 16.3327H30.3334V30.3327H25.6667V16.3327ZM28.0001 4.66602C15.0967 4.66602 4.66675 15.166 4.66675 27.9994C4.66675 34.1877 7.12507 40.1227 11.5009 44.4985C13.6676 46.6652 16.2399 48.3839 19.0708 49.5565C21.9017 50.7292 24.9359 51.3327 28.0001 51.3327C34.1885 51.3327 40.1234 48.8744 44.4992 44.4985C48.8751 40.1227 51.3334 34.1877 51.3334 27.9994C51.3334 24.9352 50.7299 21.901 49.5573 19.0701C48.3847 16.2391 46.6659 13.6669 44.4992 11.5002C42.3325 9.33349 39.7603 7.61477 36.9294 6.44216C34.0984 5.26955 31.0643 4.66602 28.0001 4.66602ZM28.0001 46.666C23.0494 46.666 18.3014 44.6994 14.8008 41.1987C11.3001 37.698 9.33342 32.9501 9.33342 27.9994C9.33342 23.0486 11.3001 18.3007 14.8008 14.8C18.3014 11.2993 23.0494 9.33268 28.0001 9.33268C32.9508 9.33268 37.6987 11.2993 41.1994 14.8C44.7001 18.3007 46.6668 23.0486 46.6668 27.9994C46.6668 32.9501 44.7001 37.698 41.1994 41.1987C37.6987 44.6994 32.9508 46.666 28.0001 46.666Z" fill="#D4A486"/>
</svg>
