<svg
                xmlns="http://www.w3.org/2000/svg"
                width="18"
                height="18"
                viewBox="0 0 18 18"
                fill="none"
              >
                <g clip-path="url(#clip0_352_12590)">
                  <path
                    d="M11.4993 3.71901C12.187 3.8532 12.8191 4.18957 13.3147 4.68508C13.8102 5.18059 14.1465 5.81268 14.2807 6.50047M11.4993 0.902344C12.9282 1.06109 14.2607 1.70099 15.278 2.71699C16.2953 3.73298 16.9368 5.06468 17.0974 6.49343M16.3932 12.1127V14.2252C16.394 14.4213 16.3538 14.6154 16.2753 14.7951C16.1967 14.9748 16.0815 15.1361 15.937 15.2687C15.7925 15.4012 15.6219 15.5022 15.4361 15.565C15.2503 15.6278 15.0535 15.6512 14.8581 15.6335C12.6913 15.3981 10.6099 14.6576 8.78118 13.4717C7.07979 12.3906 5.63731 10.9481 4.55618 9.24672C3.36612 7.40969 2.62553 5.31817 2.39439 3.14159C2.37679 2.94687 2.39993 2.75061 2.46234 2.56532C2.52475 2.38003 2.62505 2.20976 2.75687 2.06536C2.88869 1.92096 3.04913 1.80558 3.22797 1.72659C3.40682 1.64759 3.60016 1.60669 3.79568 1.60651H5.90818C6.24992 1.60315 6.58122 1.72416 6.84033 1.947C7.09944 2.16983 7.26868 2.47929 7.31651 2.81768C7.40568 3.49372 7.57103 4.15751 7.80943 4.79639C7.90417 5.04842 7.92468 5.32234 7.86851 5.58567C7.81235 5.84901 7.68188 6.09072 7.49255 6.28218L6.59826 7.17647C7.60068 8.93938 9.06035 10.399 10.8233 11.4015L11.7176 10.5072C11.909 10.3179 12.1507 10.1874 12.4141 10.1312C12.6774 10.0751 12.9513 10.0956 13.2033 10.1903C13.8422 10.4287 14.506 10.5941 15.1821 10.6832C15.5241 10.7315 15.8365 10.9038 16.0598 11.1673C16.2831 11.4309 16.4018 11.7673 16.3932 12.1127Z"
                    stroke="white"
                    stroke-width="1.3"
                    stroke-linecap="round"
                    stroke-linejoin="round"
                  />
                </g>
                <defs>
                  <clipPath id="clip0_352_12590">
                    <rect
                      width="16.9"
                      height="16.9"
                      fill="white"
                      transform="translate(0.900391 0.199219)"
                    />
                  </clipPath>
                </defs>
              </svg>