<svg width="54" height="16" viewBox="0 0 54 16" fill="none" xmlns="http://www.w3.org/2000/svg">
<g id="Group">
<path id="Vector" d="M0.53125 5.09884C1.3368 5.09884 2.1435 5.09884 2.97526 5.09884C2.97526 5.6171 2.97526 6.12192 2.97526 6.69279C3.62472 5.36077 4.71854 4.87721 6.07442 4.90632C7.4417 4.93542 8.47969 5.53763 9.09611 6.75323C9.31373 6.48011 9.51199 6.18237 9.75924 5.93275C10.3905 5.29473 11.1835 4.99027 12.0779 4.91751C12.6693 4.86938 13.2515 4.91975 13.8155 5.10668C14.858 5.45032 15.4995 6.18461 15.8676 7.17411C16.1319 7.88489 16.206 8.62701 16.2071 9.37809C16.2094 11.1265 16.2082 12.8749 16.2082 14.6233C16.2082 14.667 16.2025 14.7118 16.198 14.7733C15.4015 14.7733 14.6085 14.7733 13.7881 14.7733C13.7881 14.686 13.7881 14.5998 13.7881 14.5136C13.7881 12.8906 13.7973 11.2687 13.7813 9.64561C13.7779 9.27287 13.7335 8.88782 13.6286 8.53075C13.4133 7.79982 12.9074 7.33081 12.1235 7.2435C11.2359 7.145 10.4805 7.39685 9.99168 8.18935C9.7524 8.57664 9.6339 9.00647 9.62935 9.45644C9.61226 11.1299 9.60542 12.8033 9.5963 14.4778C9.5963 14.573 9.5963 14.6681 9.5963 14.7778C8.77594 14.7778 7.9738 14.7778 7.14546 14.7778C7.14546 14.6849 7.14546 14.5976 7.14546 14.5114C7.14432 12.7775 7.14888 11.0437 7.13634 9.30981C7.13178 8.75014 6.9848 8.21845 6.59399 7.79198C5.98783 7.13045 5.22101 7.10806 4.43141 7.35544C3.52673 7.63863 3.12908 8.3315 3.02425 9.21243C2.98779 9.52025 2.98665 9.83366 2.98551 10.1437C2.9821 11.5955 2.98438 13.0484 2.98438 14.5002C2.98438 14.5875 2.98438 14.6759 2.98438 14.7923C2.15603 14.7923 1.34364 14.7923 0.532389 14.7923C0.53125 11.5597 0.53125 8.32927 0.53125 5.09884Z" fill="#0A0103"/>
<path id="Vector_2" d="M25.7844 6.24771C25.7844 5.91415 25.7844 5.52014 25.7844 5.1127C26.6036 5.1127 27.4001 5.1127 28.2147 5.1127C28.2147 8.32409 28.2147 11.5411 28.2147 14.7737C27.4194 14.7737 26.6184 14.7737 25.7969 14.7737C25.7969 14.3697 25.7969 13.9656 25.7969 13.5481C25.7559 13.5615 25.7297 13.5615 25.7194 13.5749C25.0711 14.4368 24.1516 14.8331 23.1125 14.9551C21.5196 15.1431 20.133 14.6764 19.0164 13.529C18.2119 12.703 17.804 11.6933 17.6878 10.5628C17.5636 9.35948 17.7368 8.20544 18.3829 7.16669C19.3889 5.54924 20.8952 4.82503 22.8106 4.91345C23.6959 4.95487 24.5071 5.22015 25.209 5.76863C25.4129 5.9287 25.6078 6.09996 25.7844 6.24771ZM22.8858 7.14095C21.3191 7.14206 20.1318 8.33416 20.1296 9.90796C20.1273 11.4952 21.335 12.7365 22.888 12.741C24.4821 12.7466 25.7468 11.4941 25.7445 9.91468C25.7411 8.37222 24.4707 7.13983 22.8858 7.14095Z" fill="#0A0103"/>
<path id="Vector_3" d="M46.7563 6.25389C46.7563 5.91361 46.7563 5.51848 46.7563 5.11216C47.5756 5.11216 48.372 5.11216 49.1855 5.11216C49.1855 8.32691 49.1855 11.5439 49.1855 14.7754C48.3868 14.7754 47.5858 14.7754 46.7643 14.7754C46.7643 14.368 46.7643 13.965 46.7643 13.5207C46.5729 13.7188 46.4236 13.9012 46.247 14.0512C45.4449 14.7318 44.4844 15.0038 43.4487 14.9971C42.0837 14.9881 40.9044 14.5012 39.9667 13.5128C39.1577 12.6588 38.7498 11.629 38.6484 10.4727C38.5413 9.25149 38.7395 8.08849 39.4232 7.05198C40.4361 5.51736 41.9105 4.83009 43.7586 4.91292C44.6519 4.95322 45.4711 5.21738 46.1787 5.77146C46.3826 5.93152 46.5752 6.10278 46.7563 6.25389ZM43.8509 7.14153C42.2853 7.14377 41.0981 8.33699 41.0969 9.91078C41.0958 11.4969 42.3058 12.7382 43.8577 12.7416C45.4529 12.745 46.7164 11.4924 46.7119 9.91302C46.7085 8.37057 45.438 7.13929 43.8509 7.14153Z" fill="#0A0103"/>
<path id="Vector_4" d="M37.3524 7.91007C36.5811 7.91007 35.8154 7.91007 35.052 7.91007C34.8036 6.91273 33.7565 6.49634 32.8871 7.04258C32.2502 7.4433 32.265 8.24363 32.9475 8.55145C33.3725 8.74398 33.8442 8.838 34.2989 8.96449C34.9996 9.15925 35.7163 9.30253 36.3509 9.68198C37.7307 10.5069 38.1158 12.2386 37.1827 13.518C36.6825 14.203 35.9624 14.5825 35.15 14.7963C33.8249 15.1455 32.5362 15.0727 31.3284 14.3866C30.3508 13.8303 29.7914 12.9952 29.7037 11.8748C29.7014 11.8468 29.7071 11.8177 29.7094 11.7774C30.4671 11.7774 31.2179 11.7774 31.9882 11.7774C32.0668 12.4423 32.4701 12.8329 33.1184 12.9874C33.6471 13.1128 34.1678 13.0669 34.6589 12.8285C35.0782 12.6247 35.2616 12.2912 35.2206 11.8804C35.1876 11.5524 34.9836 11.3453 34.6976 11.2423C34.2897 11.0957 33.867 10.9871 33.4466 10.8763C32.7721 10.6983 32.0953 10.5349 31.4697 10.2081C29.9406 9.40887 29.69 7.76119 30.2369 6.68327C30.6232 5.921 31.2692 5.43072 32.0736 5.16432C33.4716 4.70203 34.8389 4.78598 36.1105 5.55833C36.948 6.06763 37.3376 6.85341 37.3695 7.8138C37.3718 7.84291 37.3616 7.87089 37.3524 7.91007Z" fill="#0A0103"/>
<path id="Vector_5" d="M53.7804 5.11914C53.7804 8.33949 53.7804 11.5509 53.7804 14.7757C52.9703 14.7757 52.1693 14.7757 51.3535 14.7757C51.3535 11.5587 51.3535 8.34844 51.3535 5.11914C52.1522 5.11914 52.9532 5.11914 53.7804 5.11914Z" fill="#0A0103"/>
<path id="Vector_6" d="M53.7813 5.11914H51.3555V11.636L53.7813 8.69992V5.11914Z" fill="#ED0331"/>
<path id="Vector_7" d="M52.5579 2.93866C53.3136 2.93866 53.9263 2.33678 53.9263 1.59433C53.9263 0.851877 53.3136 0.25 52.5579 0.25C51.8021 0.25 51.1895 0.851877 51.1895 1.59433C51.1895 2.33678 51.8021 2.93866 52.5579 2.93866Z" fill="#0A0103"/>
</g>
</svg>
