<svg
              xmlns="http://www.w3.org/2000/svg"
              width="83"
              height="23"
              viewBox="0 0 83 23"
              fill="none"
            >
              <path
                d="M0.290039 7.45961C1.52615 7.45961 2.76401 7.45961 4.04033 7.45961C4.04033 8.25693 4.04033 9.03358 4.04033 9.91183C5.03691 7.86257 6.71536 7.11864 8.79594 7.16342C10.894 7.20819 12.4868 8.13466 13.4327 10.0048C13.7666 9.58464 14.0708 9.12657 14.4502 8.74255C15.4188 7.76097 16.6357 7.29257 18.0082 7.18064C18.9156 7.10659 19.809 7.18408 20.6745 7.47166C22.2743 8.00034 23.2586 9.13001 23.8233 10.6523C24.229 11.7458 24.3426 12.8876 24.3444 14.0431C24.3478 16.7329 24.3461 19.4228 24.3461 22.1127C24.3461 22.1798 24.3374 22.2487 24.3304 22.3434C23.1082 22.3434 21.8914 22.3434 20.6325 22.3434C20.6325 22.2091 20.6325 22.0765 20.6325 21.9439C20.6325 19.4469 20.6465 16.9516 20.622 14.4546C20.6168 13.8812 20.5486 13.2888 20.3877 12.7395C20.0573 11.615 19.281 10.8934 18.0781 10.7591C16.7161 10.6075 15.557 10.995 14.8069 12.2142C14.4397 12.8101 14.2579 13.4713 14.2509 14.1636C14.2247 16.7381 14.2142 19.3126 14.2002 21.8888C14.2002 22.0352 14.2002 22.1815 14.2002 22.3503C12.9414 22.3503 11.7105 22.3503 10.4394 22.3503C10.4394 22.2074 10.4394 22.0731 10.4394 21.9405C10.4377 19.273 10.4447 16.6055 10.4254 13.938C10.4184 13.077 10.1929 12.259 9.59321 11.6029C8.66307 10.5852 7.4864 10.5507 6.27477 10.9313C4.88655 11.367 4.27636 12.4329 4.11551 13.7882C4.05956 14.2618 4.05781 14.7439 4.05607 15.221C4.05082 17.4545 4.05432 19.6897 4.05432 21.9232C4.05432 22.0576 4.05432 22.1936 4.05432 22.3727C2.78324 22.3727 1.53664 22.3727 0.291787 22.3727C0.290039 17.3994 0.290039 12.4295 0.290039 7.45961Z"
                fill="#0A0103"
              />
              <path
                d="M39.0411 9.22589C39.0411 8.71272 39.0411 8.10655 39.0411 7.47972C40.2981 7.47972 41.5203 7.47972 42.7704 7.47972C42.7704 12.4203 42.7704 17.3695 42.7704 22.3429C41.55 22.3429 40.3209 22.3429 39.0603 22.3429C39.0603 21.7212 39.0603 21.0995 39.0603 20.4572C38.9973 20.4779 38.9571 20.4779 38.9414 20.4985C37.9466 21.8245 36.5356 22.4341 34.9411 22.6218C32.4968 22.9111 30.369 22.193 28.6556 20.4279C27.4213 19.157 26.7953 17.6037 26.617 15.8645C26.4264 14.0132 26.6922 12.2378 27.6835 10.6397C29.2274 8.15133 31.5387 7.03715 34.4778 7.17319C35.8363 7.23691 37.0811 7.64504 38.1581 8.48885C38.4711 8.73511 38.7701 8.99858 39.0411 9.22589ZM34.5932 10.6001C32.1891 10.6018 30.3673 12.4358 30.3638 14.857C30.3603 17.2989 32.2136 19.2087 34.5967 19.2156C37.0426 19.2242 38.9834 17.2972 38.9799 14.8674C38.9746 12.4944 37.0252 10.5984 34.5932 10.6001Z"
                fill="#0A0103"
              />
              <path
                d="M71.2217 9.2354C71.2217 8.7119 71.2217 8.10401 71.2217 7.4789C72.4788 7.4789 73.7009 7.4789 74.9492 7.4789C74.9492 12.4247 74.9492 17.3739 74.9492 22.3455C73.7236 22.3455 72.4945 22.3455 71.2339 22.3455C71.2339 21.7187 71.2339 21.0987 71.2339 20.415C70.9402 20.7199 70.7111 21.0006 70.4401 21.2313C69.2093 22.2783 67.7354 22.6968 66.1461 22.6865C64.0515 22.6727 62.2419 21.9236 60.803 20.403C59.5617 19.0891 58.9357 17.5048 58.7801 15.7259C58.6158 13.8471 58.92 12.0579 59.969 10.4632C61.5234 8.10229 63.7858 7.04494 66.6217 7.17237C67.9924 7.23437 69.2495 7.64077 70.3352 8.49319C70.6482 8.73945 70.9437 9.00293 71.2217 9.2354ZM66.7633 10.601C64.361 10.6044 62.5392 12.4402 62.5374 14.8614C62.5357 17.3016 64.3925 19.2113 66.7738 19.2165C69.2215 19.2217 71.1605 17.2947 71.1535 14.8648C71.1482 12.4918 69.1988 10.5976 66.7633 10.601Z"
                fill="#0A0103"
              />
              <path
                d="M56.7905 11.7853C55.6068 11.7853 54.4319 11.7853 53.2605 11.7853C52.8793 10.251 51.2726 9.61035 49.9385 10.4507C48.9612 11.0672 48.9839 12.2985 50.0312 12.7721C50.6834 13.0683 51.4072 13.2129 52.1048 13.4075C53.1801 13.7071 54.2798 13.9276 55.2536 14.5113C57.3709 15.7805 57.9619 18.4445 56.53 20.4129C55.7624 21.4668 54.6574 22.0505 53.4108 22.3795C51.3775 22.9167 49.4 22.8048 47.5467 21.7492C46.0466 20.8933 45.1882 19.6087 45.0535 17.8849C45.05 17.8418 45.0588 17.797 45.0623 17.7351C46.225 17.7351 47.3772 17.7351 48.5591 17.7351C48.6797 18.758 49.2986 19.359 50.2935 19.5966C51.1047 19.7895 51.9037 19.7189 52.6573 19.3521C53.3007 19.0387 53.5822 18.5255 53.5192 17.8935C53.4685 17.3889 53.1556 17.0703 52.7167 16.9119C52.0908 16.6863 51.4422 16.5193 50.797 16.3488C49.762 16.075 48.7234 15.8236 47.7635 15.3207C45.4172 14.0912 45.0326 11.5563 45.8718 9.89794C46.4645 8.72521 47.4558 7.97095 48.6902 7.56109C50.8355 6.84988 52.9335 6.97904 54.8847 8.16726C56.1698 8.9508 56.7677 10.1597 56.8167 11.6372C56.8202 11.682 56.8045 11.725 56.7905 11.7853Z"
                fill="#0A0103"
              />
              <path
                d="M82.0004 7.49023C82.0004 12.4446 82.0004 17.3852 82.0004 22.3465C80.7573 22.3465 79.5282 22.3465 78.2764 22.3465C78.2764 17.3973 78.2764 12.4584 78.2764 7.49023C79.502 7.49023 80.7311 7.49023 82.0004 7.49023Z"
                fill="#0A0103"
              />
              <path
                d="M82.0006 7.49023H78.2783V17.5161L82.0006 12.9991V7.49023Z"
                fill="#ED0331"
              />
              <path
                d="M80.1233 4.1364C81.283 4.1364 82.2231 3.21043 82.2231 2.0682C82.2231 0.925964 81.283 0 80.1233 0C78.9636 0 78.0234 0.925964 78.0234 2.0682C78.0234 3.21043 78.9636 4.1364 80.1233 4.1364Z"
                fill="#0A0103"
              />
            </svg>