<svg
                xmlns="http://www.w3.org/2000/svg"
                width="27"
                height="24"
                viewBox="0 0 27 24"
                fill="none"
              >
                <path
                  d="M27.0001 12.0013C27.0001 18.6256 21.6296 23.9994 15.0053 23.9994C14.2805 23.9994 13.5753 23.9374 12.893 23.8101C11.9919 23.6501 11.1267 23.3922 10.3072 23.0396C9.16784 22.5564 8.11004 21.8969 7.18284 21.0905C5.94222 20.0295 4.9236 18.7137 4.19882 17.225C3.43486 15.6448 3.00391 13.8721 3.00391 11.9981C3.00391 5.37057 8.37449 0 14.9988 0C16.8727 0 18.6488 0.430952 20.229 1.19818C21.7112 1.91969 23.0269 2.93831 24.0945 4.17892C24.8943 5.10612 25.5571 6.16065 26.0436 7.30332C26.3961 8.12278 26.6541 8.98795 26.814 9.88903C26.9348 10.5746 27.0001 11.2798 27.0001 12.0013Z"
                  fill="#C98917"
                />
                <path
                  d="M24.9434 12.0013C24.9434 18.6256 19.5696 23.9994 12.9453 23.9994C12.2238 23.9994 11.5153 23.9994 10.833 23.8101C10.3139 23.6925 9.90251 23.5913 9.42258 23.4444C9.03407 23.3236 8.6325 23.2387 8.26032 23.0396C7.07846 22.5662 6.04679 21.9328 5.1457 21.1003C4.38174 20.3886 3.9867 20.0033 3.43169 19.2949C2.91585 18.6158 2.55999 18.1065 2.17474 17.2348C1.3259 15.6775 0.976562 13.8851 0.976562 12.0079C0.976562 5.3836 6.34715 0.00976562 12.9747 0.00976562C14.8454 0.00976562 16.6345 0.385216 18.2016 1.20794C18.9884 1.65848 19.4945 1.94252 20.2486 2.47468C20.8983 2.97419 21.2509 3.31699 22.0671 4.1691C22.916 5.07671 23.5885 6.10512 24.0162 7.2935C24.2154 7.8126 24.359 8.24029 24.5059 8.70389C24.6202 9.10546 24.6855 9.38623 24.7998 9.87921C24.9434 10.5975 24.9434 11.2798 24.9434 12.0013Z"
                  fill="#F8C364"
                />
                <path
                  d="M22.035 4.17997L5.12333 21.0916C3.79456 20.0729 2.7988 18.7801 2.14258 17.226L18.1694 1.19922C19.73 1.84565 21.0327 2.89691 22.035 4.17997Z"
                  fill="#E8AB3E"
                />
                <path
                  d="M24.7548 9.88844L10.8338 23.8095C9.86738 23.705 9.00221 23.4373 8.24805 23.039L23.9844 7.30273C24.4022 8.1222 24.6602 8.96777 24.7548 9.88844Z"
                  fill="#E8AB3E"
                />
                <path
                  d="M12.9455 2.96094C13.2556 2.96094 13.5593 2.974 13.8629 3.00664C18.4238 3.46371 21.9857 7.31616 21.9857 12.0011C21.9857 16.6861 18.4238 20.5385 13.8629 20.9956C13.5593 21.0283 13.2556 21.0413 12.9455 21.0413C7.95362 21.0413 3.90527 16.9962 3.90527 12.0011C3.90527 7.00927 7.95362 2.96094 12.9455 2.96094Z"
                  fill="#E8AB3E"
                />
                <path
                  d="M13.8621 20.9959C13.5291 21.0416 13.2516 21.0546 12.9414 21.0644C7.84835 21.1918 3.96977 16.99 3.87183 11.9981C3.77389 6.87567 7.89079 2.87957 12.9447 2.94813C13.2548 2.9514 13.5585 2.96772 13.8621 3.0069C9.29465 3.46397 5.73276 7.31642 5.73276 12.0014C5.72623 16.6864 9.29465 20.5388 13.8621 20.9959Z"
                  fill="#C98917"
                />
                <path
                  d="M19.736 9.02793C19.4585 7.6404 18.6162 6.96132 17.4376 6.71646C17.369 6.7034 17.369 6.60872 17.4343 6.5924C18.5998 6.3051 19.4062 5.57705 19.7295 4.26134C19.7458 4.19605 19.8372 4.18952 19.8535 4.25481C20.1669 5.42034 20.8591 6.23654 22.0736 6.57281C22.1421 6.5924 22.1356 6.68381 22.0671 6.69687C20.8297 6.88297 20.1931 7.78078 19.8633 9.03446C19.8437 9.09976 19.7491 9.09649 19.736 9.02793Z"
                  fill="#F9F9F9"
                />
              </svg>