            <svg
              xmlns="http://www.w3.org/2000/svg"
              width="41"
              height="40"
              viewBox="0 0 41 40"
              fill="none"
            >
              <path
                d="M36.6542 18.4609C38.7782 18.4609 40.5 16.739 40.5 14.6151C40.5 12.4911 38.778 10.7692 36.654 10.7692C34.5298 10.7692 32.8077 12.4912 32.8077 14.6154V18.4609H36.6542ZM25.8846 18.4609C28.0088 18.4609 29.7308 16.7389 29.7308 14.6147V3.84615C29.7308 1.72198 28.0088 0 25.8846 0C23.7604 0 22.0385 1.72198 22.0385 3.84615V14.6147C22.0385 16.7389 23.7604 18.4609 25.8846 18.4609Z"
                fill="#2EB67D"
              />
              <path
                d="M4.34583 21.5391C2.22184 21.5391 0.50001 23.261 0.50001 25.3849C0.50001 27.5089 2.22201 29.2308 4.346 29.2308C6.47017 29.2308 8.19232 27.5088 8.19232 25.3846V21.5391H4.34583ZM15.1154 21.5391C12.9912 21.5391 11.2692 23.2611 11.2692 25.3853V36.1538C11.2692 38.278 12.9912 40 15.1154 40C17.2396 40 18.9615 38.278 18.9615 36.1538V25.3853C18.9615 23.2611 17.2396 21.5391 15.1154 21.5391Z"
                fill="#E01E5A"
              />
              <path
                d="M22.0388 36.1538C22.0388 38.2778 23.7606 39.9996 25.8846 39.9996C28.0086 39.9996 29.7304 38.2776 29.7304 36.1536C29.7304 34.0295 28.0084 32.3073 25.8842 32.3073L22.0388 32.3073L22.0388 36.1538ZM22.0388 25.3842C22.0388 27.5084 23.7607 29.2304 25.8849 29.2304L36.6535 29.2304C38.7777 29.2304 40.4996 27.5084 40.4996 25.3842C40.4996 23.2601 38.7777 21.5381 36.6535 21.5381L25.8849 21.5381C23.7607 21.5381 22.0388 23.2601 22.0388 25.3842Z"
                fill="#ECB22E"
              />
              <path
                d="M18.9612 3.8462C18.9612 1.72221 17.2394 0.000374572 15.1154 0.000374479C12.9914 0.000374386 11.2695 1.72237 11.2695 3.84636C11.2695 5.97053 12.9915 7.69268 15.1157 7.69268L18.9612 7.69268L18.9612 3.8462ZM18.9612 14.6158C18.9612 12.4916 17.2392 10.7696 15.115 10.7696L4.34646 10.7696C2.22229 10.7696 0.500305 12.4916 0.500305 14.6158C0.500305 16.7399 2.22229 18.4619 4.34646 18.4619L15.115 18.4619C17.2392 18.4619 18.9612 16.7399 18.9612 14.6158Z"
                fill="#36C5F0"
              />
            </svg>