            <svg
              xmlns="http://www.w3.org/2000/svg"
              width="88"
              height="88"
              viewBox="0 0 88 88"
              fill="none"
            >
              <path
                d="M79.5393 40.6139C84.2121 40.6139 88.0001 36.8259 88.0001 32.1531C88.0001 27.4803 84.2118 23.6923 79.539 23.6923C74.8658 23.6923 71.0771 27.4807 71.0771 32.1539V40.6139H79.5393ZM55.8463 40.6139C60.5195 40.6139 64.3078 36.8256 64.3078 32.1524V8.46154C64.3078 3.78837 60.5195 0 55.8463 0C51.1731 0 47.3848 3.78836 47.3848 8.46154V32.1524C47.3848 36.8256 51.1731 40.6139 55.8463 40.6139Z"
                fill="#2EB67D"
              />
              <path
                d="M8.46066 47.3861C3.78788 47.3861 -0.000152588 51.1741 -0.000152588 55.8469C-0.000152588 60.5197 3.78825 64.3077 8.46102 64.3077C13.1342 64.3077 16.9229 60.5193 16.9229 55.8462V47.3861H8.46066ZM32.1537 47.3861C27.4805 47.3861 23.6922 51.1744 23.6922 55.8476V79.5385C23.6922 84.2116 27.4805 88 32.1537 88C36.8269 88 40.6152 84.2116 40.6152 79.5385V55.8476C40.6152 51.1744 36.8269 47.3861 32.1537 47.3861Z"
                fill="#E01E5A"
              />
              <path
                d="M47.3851 79.5393C47.3851 84.2121 51.1731 88.0001 55.8459 88.0001C60.5187 88.0001 64.3067 84.2117 64.3067 79.539C64.3067 74.8658 60.5183 71.0771 55.8452 71.0771L47.3851 71.0771L47.3851 79.5393ZM47.3851 55.8463C47.3851 60.5195 51.1734 64.3078 55.8466 64.3078L79.5375 64.3078C84.2107 64.3078 87.999 60.5195 87.999 55.8463C87.999 51.1731 84.2107 47.3848 79.5375 47.3848L55.8466 47.3848C51.1735 47.3848 47.3851 51.1731 47.3851 55.8463Z"
                fill="#ECB22E"
              />
              <path
                d="M40.6149 8.46066C40.6149 3.78789 36.8269 -0.000150978 32.1541 -0.000151182C27.4813 -0.000151387 23.6933 3.78825 23.6933 8.46103C23.6933 13.1342 27.4817 16.9229 32.1548 16.9229L40.6149 16.9229L40.6149 8.46066ZM40.6149 32.1537C40.6149 27.4805 36.8266 23.6922 32.1534 23.6922L8.46252 23.6922C3.78934 23.6922 0.000977137 27.4805 0.000976932 32.1537C0.000976728 36.8269 3.78934 40.6152 8.46251 40.6152L32.1534 40.6152C36.8265 40.6152 40.6149 36.8269 40.6149 32.1537Z"
                fill="#36C5F0"
              />
            </svg>