<svg xmlns="http://www.w3.org/2000/svg" width="17" height="17" viewBox="0 0 17 17" fill="none">
<path opacity="0.2" d="M6.16914 12.9527V8.8227L8.98269 11.29L7.04168 13.304C6.97154 13.3767 6.88127 13.4269 6.78244 13.448C6.68361 13.4691 6.58072 13.4602 6.48697 13.4225C6.39322 13.3847 6.31288 13.3199 6.25625 13.2361C6.19962 13.1524 6.16929 13.0537 6.16914 12.9527ZM15.2135 2.30405L2.36448 7.33318C2.2847 7.36388 2.21703 7.41964 2.17164 7.49207C2.12624 7.5645 2.10557 7.6497 2.11271 7.73489C2.11986 7.82007 2.15444 7.90064 2.21127 7.96449C2.2681 8.02835 2.34411 8.07205 2.42789 8.08904L6.16914 8.8227L15.3003 2.37697C15.3031 2.36552 15.3026 2.35353 15.2989 2.34235C15.2952 2.33117 15.2884 2.32124 15.2794 2.31367C15.2704 2.3061 15.2595 2.30119 15.2478 2.29949C15.2362 2.29779 15.2243 2.29937 15.2135 2.30405Z" fill="#3470E4"/>
<path d="M15.6102 1.92586C15.5316 1.85799 15.4359 1.81286 15.3336 1.79531C15.2312 1.77777 15.126 1.78849 15.0293 1.82631L2.17843 6.85543C1.9963 6.92626 1.84211 7.05432 1.73907 7.22036C1.63603 7.38639 1.58971 7.58141 1.60709 7.77605C1.62447 7.97068 1.70461 8.1544 1.83545 8.29955C1.96628 8.4447 2.14072 8.54342 2.33252 8.58085L5.66223 9.23462V12.9473C5.66158 13.1496 5.72167 13.3473 5.83474 13.515C5.9478 13.6827 6.10861 13.8125 6.29634 13.8877C6.48378 13.9643 6.68991 13.9826 6.88793 13.9404C7.08595 13.8983 7.2667 13.7975 7.40667 13.6512L9.01224 11.986L11.5595 14.2156C11.7432 14.3786 11.9803 14.4688 12.2259 14.4692C12.3336 14.4691 12.4405 14.4522 12.543 14.4191C12.7103 14.366 12.8609 14.27 12.9796 14.1406C13.0983 14.0112 13.181 13.8529 13.2196 13.6816L15.7934 2.48451C15.8164 2.38353 15.8116 2.27819 15.7793 2.17977C15.747 2.08136 15.6885 1.99359 15.6102 1.92586ZM11.7332 4.20866L6.05221 8.27711L2.90639 7.66012L11.7332 4.20866ZM6.67681 12.9473V9.93658L8.24877 11.3151L6.67681 12.9473ZM12.2272 13.4546L6.98435 8.85732L14.5303 3.449L12.2272 13.4546Z" fill="#3470E4"/>
</svg>