            <svg
              xmlns="http://www.w3.org/2000/svg"
              width="88"
              height="88"
              viewBox="0 0 88 88"
              fill="none"
            >
              <g clip-path="url(#clip0_3_21908)">
                <path
                  d="M0 30.1714C0 19.6104 0 14.3299 2.05531 10.2962C3.8632 6.74798 6.74798 3.8632 10.2962 2.05531C14.3299 0 19.6104 0 30.1714 0H57.8286C68.3896 0 73.6701 0 77.7038 2.05531C81.252 3.8632 84.1368 6.74798 85.9447 10.2962C88 14.3299 88 19.6104 88 30.1714V57.8286C88 68.3896 88 73.6701 85.9447 77.7038C84.1368 81.252 81.252 84.1368 77.7038 85.9447C73.6701 88 68.3896 88 57.8286 88H30.1714C19.6104 88 14.3299 88 10.2962 85.9447C6.74798 84.1368 3.8632 81.252 2.05531 77.7038C0 73.6701 0 68.3896 0 57.8286V30.1714Z"
                  fill="#4087FC"
                />
                <path
                  d="M19.6938 25.1445C17.4952 25.1445 15.7129 27.1547 15.7129 29.6343V51.4098C15.7129 57.7329 20.2578 62.8588 25.8643 62.8588L49.4462 62.6344C51.6448 62.6344 53.4272 60.6243 53.4272 58.1446V36.1446C53.4272 29.8215 48.0337 25.1446 42.4272 25.1446L19.6938 25.1445Z"
                  fill="white"
                />
                <path
                  d="M58.8084 33.717C57.3858 35.1236 56.57 37.1537 56.57 39.2875V48.3995C56.57 50.5332 57.3858 52.5633 58.8084 53.97L67.6606 61.7665C69.4618 63.5476 72.2843 62.1049 72.2843 59.4033V28.7122C72.2843 26.0105 69.4618 24.5679 67.6606 26.3489L58.8084 33.717Z"
                  fill="white"
                />
              </g>
              <defs>
                <clipPath id="clip0_3_21908">
                  <rect width="88" height="88" fill="white" />
                </clipPath>
              </defs>
            </svg>