            <svg
              xmlns="http://www.w3.org/2000/svg"
              width="40"
              height="40"
              viewBox="0 0 40 40"
              fill="none"
            >
              <g clip-path="url(#clip0_4_8081)">
                <path
                  d="M0 13.7143C0 8.91384 0 6.51361 0.93423 4.68008C1.756 3.06726 3.06726 1.756 4.68008 0.93423C6.51361 0 8.91384 0 13.7143 0H26.2857C31.0862 0 33.4864 0 35.3199 0.93423C36.9327 1.756 38.244 3.06726 39.0658 4.68008C40 6.51361 40 8.91384 40 13.7143V26.2857C40 31.0862 40 33.4864 39.0658 35.3199C38.244 36.9327 36.9327 38.244 35.3199 39.0658C33.4864 40 31.0862 40 26.2857 40H13.7143C8.91384 40 6.51361 40 4.68008 39.0658C3.06726 38.244 1.756 36.9327 0.93423 35.3199C0 33.4864 0 31.0862 0 26.2857V13.7143Z"
                  fill="#4087FC"
                />
                <path
                  d="M8.9521 11.4297C7.95273 11.4297 7.14258 12.3434 7.14258 13.4705V23.3685C7.14258 26.2426 9.20846 28.5725 11.7569 28.5725L22.4759 28.4705C23.4753 28.4705 24.2854 27.5568 24.2854 26.4297V16.4297C24.2854 13.5556 21.8338 11.4297 19.2854 11.4297L8.9521 11.4297Z"
                  fill="white"
                />
                <path
                  d="M26.7314 15.3263C26.0848 15.9656 25.714 16.8884 25.714 17.8583V22.0001C25.714 22.97 26.0848 23.8928 26.7314 24.5322L30.7552 28.0761C31.5739 28.8856 32.8569 28.2299 32.8569 27.0019V13.0513C32.8569 11.8233 31.5739 11.1676 30.7552 11.9771L26.7314 15.3263Z"
                  fill="white"
                />
              </g>
              <defs>
                <clipPath id="clip0_4_8081">
                  <rect width="40" height="40" fill="white" />
                </clipPath>
              </defs>
            </svg>