<svg width="16" height="13" viewBox="0 0 16 13" fill="none" xmlns="http://www.w3.org/2000/svg">
<path d="M15.942 12.822V8.496C15.942 6.9 15.662 5.444 15.102 4.128C14.542 2.784 13.562 1.412 12.162 0.0119981L9.684 2.028C10.664 3.008 11.364 3.932 11.784 4.8C12.204 5.668 12.414 6.606 12.414 7.614L13.884 6.06H9.138V12.822H15.942ZM6.828 12.822V8.496C6.828 6.9 6.548 5.444 5.988 4.128C5.428 2.784 4.448 1.412 3.048 0.0119981L0.569999 2.028C1.55 3.008 2.25 3.932 2.67 4.8C3.09 5.668 3.3 6.606 3.3 7.614L4.77 6.06H0.0239986V12.822H6.828Z" fill="#3470E4"/>
</svg>
