<svg width="16" height="13" viewBox="0 0 16 13" fill="none" xmlns="http://www.w3.org/2000/svg">
<path d="M0.0580001 12.822V8.496C0.0580001 6.9 0.338 5.444 0.898 4.128C1.458 2.784 2.438 1.412 3.838 0.0119981L6.316 2.028C5.336 3.008 4.636 3.932 4.216 4.8C3.796 5.668 3.586 6.606 3.586 7.614L2.116 6.06H6.862V12.822H0.0580001ZM9.172 12.822V8.496C9.172 6.9 9.452 5.444 10.012 4.128C10.572 2.784 11.552 1.412 12.952 0.0119981L15.43 2.028C14.45 3.008 13.75 3.932 13.33 4.8C12.91 5.668 12.7 6.606 12.7 7.614L11.23 6.06H15.976V12.822H9.172Z" fill="#3470E4"/>
</svg>
